<svg width="632" height="555" viewBox="0 0 632 555" fill="none" xmlns="http://www.w3.org/2000/svg">
<path d="M265.84 60.799L302.13 59.6957C306.13 59.5831 314.03 59.0311 316.96 55.7437C317.64 54.9782 318.03 54.3141 317.74 53.1094L318.33 52.4454L331.11 66.8332L330.52 67.4973C313.74 60.686 296.28 63.2193 278.72 63.4332C303.11 86.0511 258.04 135.914 273.35 153.162C276.47 156.675 281.06 157.879 285.25 156.675L285.54 157.665C279.49 159.208 273.15 156.9 268.86 152.07C247.3 127.797 290.52 79.1497 277.25 64.21L276.67 63.5569L262.82 64.21L234.34 96.2736C231.71 99.2345 230.73 103.851 232 107.915L231.51 108.466L216.78 91.883L217.27 91.3316C220.98 92.4349 225.07 91.3316 227.81 88.2581L281.95 27.3055C284.78 24.1194 285.75 19.9428 284.49 15.6646L285.08 15L299.81 31.5835L299.22 32.2481C295.81 30.8183 291.71 31.6963 289.08 34.6685L265.86 60.8099L265.84 60.799Z" fill="white"/>
<path d="M257.031 183.931L256.051 143.075C255.951 138.571 255.461 129.677 252.541 126.379C251.861 125.613 251.271 125.174 250.201 125.5L249.611 124.836L262.391 110.448L262.981 111.112C256.931 130.004 259.181 149.66 259.371 169.43C279.461 141.971 323.751 192.712 339.071 175.476C342.191 171.963 343.261 166.796 342.191 162.079L343.071 161.752C344.441 168.563 342.391 175.701 338.101 180.531C316.541 204.804 273.331 156.146 260.061 171.085L259.481 171.738L260.061 187.331L288.541 219.395C291.171 222.356 295.271 223.459 298.881 222.029L299.371 222.58L284.641 239.164L284.151 238.613C285.131 234.436 284.151 229.831 281.421 226.746L227.281 165.794C224.451 162.608 220.741 161.515 216.941 162.934L216.351 162.27L231.081 145.686L231.671 146.351C230.401 150.19 231.181 154.806 233.821 157.767L257.041 183.909L257.031 183.931Z" fill="white"/>
<path d="M366.401 193.849L330.111 194.953C326.111 195.065 318.211 195.617 315.281 198.904C314.601 199.67 314.211 200.334 314.501 201.538L313.911 202.203L301.131 187.815L301.721 187.151C318.501 193.962 335.961 191.429 353.521 191.215C329.131 168.597 374.201 118.734 358.891 101.486C355.771 97.9737 351.181 96.769 346.991 97.9736L346.701 96.983C352.751 95.4406 359.091 97.7483 363.381 102.578C384.941 126.851 341.721 175.498 354.991 190.438L355.571 191.091L369.421 190.438L397.901 158.374C400.531 155.413 401.511 150.798 400.241 146.733L400.731 146.181L415.461 162.765L414.971 163.317C411.261 162.213 407.171 163.317 404.431 166.39L350.291 227.343C347.461 230.529 346.491 234.706 347.751 238.984L347.161 239.648L332.431 223.064L333.021 222.4C336.431 223.83 340.531 222.952 343.161 219.98L366.381 193.838L366.401 193.849Z" fill="white"/>
<path d="M375.201 70.7177L376.181 111.574C376.281 116.077 376.771 124.972 379.691 128.27C380.371 129.036 380.961 129.475 382.031 129.148L382.621 129.812L369.841 144.201L369.251 143.536C375.301 124.645 373.051 104.988 372.861 85.2182C352.771 112.677 308.481 61.9359 293.161 79.1724C290.041 82.685 288.971 87.8524 290.041 92.5696L289.161 92.8962C287.791 86.0849 289.841 78.9475 294.131 74.1177C315.691 49.8448 358.901 98.5028 372.171 83.563L372.751 82.9105L372.171 67.3176L343.691 35.254C341.061 32.2931 336.961 31.1894 333.351 32.6192L332.861 32.0678L347.591 15.4844L348.081 16.0357C347.101 20.2126 348.081 24.8173 350.811 27.902L404.951 88.8546C407.781 92.0407 411.491 93.1328 415.291 91.7143L415.881 92.3783L401.151 108.962L400.561 108.298C401.831 104.459 401.051 99.8426 398.411 96.8817L375.191 70.7402L375.201 70.7177Z" fill="white"/>
<path d="M130.33 319.22H128.735L133.348 306.656H134.919L139.532 319.22H137.937L134.182 308.643H134.084L130.33 319.22ZM130.919 314.312H137.348V315.662H130.919V314.312ZM173.733 310.582H172.212C172.122 310.144 171.965 309.76 171.74 309.429C171.519 309.097 171.249 308.819 170.93 308.594C170.615 308.365 170.265 308.193 169.881 308.079C169.496 307.964 169.096 307.907 168.678 307.907C167.918 307.907 167.229 308.099 166.611 308.484C165.997 308.868 165.509 309.435 165.145 310.183C164.785 310.932 164.605 311.85 164.605 312.938C164.605 314.026 164.785 314.944 165.145 315.692C165.509 316.441 165.997 317.007 166.611 317.392C167.229 317.776 167.918 317.968 168.678 317.968C169.096 317.968 169.496 317.911 169.881 317.796C170.265 317.682 170.615 317.512 170.93 317.287C171.249 317.058 171.519 316.778 171.74 316.447C171.965 316.111 172.122 315.727 172.212 315.293H173.733C173.619 315.936 173.41 316.51 173.108 317.017C172.805 317.524 172.429 317.956 171.979 318.312C171.529 318.664 171.024 318.931 170.464 319.115C169.907 319.299 169.312 319.392 168.678 319.392C167.607 319.392 166.654 319.13 165.82 318.606C164.985 318.083 164.329 317.338 163.85 316.373C163.372 315.408 163.133 314.263 163.133 312.938C163.133 311.613 163.372 310.467 163.85 309.502C164.329 308.537 164.985 307.793 165.82 307.269C166.654 306.746 167.607 306.484 168.678 306.484C169.312 306.484 169.907 306.576 170.464 306.76C171.024 306.944 171.529 307.214 171.979 307.57C172.429 307.921 172.805 308.351 173.108 308.858C173.41 309.361 173.619 309.936 173.733 310.582ZM195.431 312.938C195.431 314.263 195.191 315.408 194.713 316.373C194.234 317.338 193.578 318.083 192.744 318.606C191.909 319.13 190.956 319.392 189.885 319.392C188.813 319.392 187.86 319.13 187.026 318.606C186.192 318.083 185.535 317.338 185.057 316.373C184.578 315.408 184.339 314.263 184.339 312.938C184.339 311.613 184.578 310.467 185.057 309.502C185.535 308.537 186.192 307.793 187.026 307.269C187.86 306.746 188.813 306.484 189.885 306.484C190.956 306.484 191.909 306.746 192.744 307.269C193.578 307.793 194.234 308.537 194.713 309.502C195.191 310.467 195.431 311.613 195.431 312.938ZM193.958 312.938C193.958 311.85 193.776 310.932 193.412 310.183C193.052 309.435 192.564 308.868 191.946 308.484C191.333 308.099 190.646 307.907 189.885 307.907C189.124 307.907 188.435 308.099 187.817 308.484C187.204 308.868 186.715 309.435 186.351 310.183C185.991 310.932 185.811 311.85 185.811 312.938C185.811 314.026 185.991 314.944 186.351 315.692C186.715 316.441 187.204 317.007 187.817 317.392C188.435 317.776 189.124 317.968 189.885 317.968C190.646 317.968 191.333 317.776 191.946 317.392C192.564 317.007 193.052 316.441 193.412 315.692C193.776 314.944 193.958 314.026 193.958 312.938ZM214.872 306.656H216.393V314.974C216.393 315.833 216.191 316.6 215.786 317.275C215.385 317.946 214.819 318.475 214.087 318.864C213.355 319.248 212.496 319.441 211.51 319.441C210.524 319.441 209.666 319.248 208.933 318.864C208.201 318.475 207.633 317.946 207.228 317.275C206.827 316.6 206.627 315.833 206.627 314.974V306.656H208.148V314.852C208.148 315.465 208.283 316.011 208.553 316.49C208.823 316.964 209.207 317.338 209.706 317.612C210.209 317.882 210.811 318.017 211.51 318.017C212.209 318.017 212.811 317.882 213.314 317.612C213.817 317.338 214.201 316.964 214.467 316.49C214.737 316.011 214.872 315.465 214.872 314.852V306.656ZM228.069 319.22V306.656H232.315C233.3 306.656 234.106 306.834 234.732 307.189C235.362 307.541 235.828 308.018 236.131 308.619C236.433 309.22 236.585 309.891 236.585 310.631C236.585 311.371 236.433 312.044 236.131 312.649C235.832 313.255 235.37 313.737 234.744 314.097C234.118 314.453 233.317 314.631 232.339 314.631H229.296V313.281H232.29C232.965 313.281 233.507 313.165 233.916 312.932C234.325 312.698 234.621 312.384 234.805 311.987C234.994 311.586 235.088 311.134 235.088 310.631C235.088 310.128 234.994 309.678 234.805 309.281C234.621 308.885 234.323 308.574 233.91 308.349C233.497 308.12 232.949 308.005 232.266 308.005H229.591V319.22H228.069ZM247.673 319.22V306.656H249.195V317.87H255.035V319.22H247.673ZM266.028 319.22V306.656H273.611V308.005H267.55V312.251H273.218V313.6H267.55V317.87H273.709V319.22H266.028ZM290.193 312.263V313.613H284.697V312.263H290.193ZM301.575 319.22V306.656H305.968C306.843 306.656 307.565 306.807 308.133 307.11C308.702 307.408 309.125 307.811 309.403 308.318C309.681 308.821 309.82 309.38 309.82 309.993C309.82 310.533 309.724 310.979 309.532 311.33C309.344 311.682 309.094 311.96 308.783 312.165C308.477 312.369 308.143 312.521 307.783 312.619V312.741C308.168 312.766 308.554 312.901 308.943 313.146C309.332 313.392 309.657 313.743 309.918 314.201C310.18 314.66 310.311 315.22 310.311 315.882C310.311 316.512 310.168 317.079 309.882 317.582C309.595 318.085 309.143 318.484 308.526 318.778C307.908 319.072 307.105 319.22 306.115 319.22H301.575ZM303.096 317.87H306.115C307.109 317.87 307.814 317.678 308.231 317.293C308.653 316.905 308.863 316.435 308.863 315.882C308.863 315.457 308.755 315.064 308.538 314.705C308.321 314.341 308.013 314.05 307.612 313.833C307.211 313.613 306.736 313.502 306.188 313.502H303.096V317.87ZM303.096 312.177H305.919C306.377 312.177 306.79 312.087 307.158 311.907C307.53 311.727 307.824 311.474 308.041 311.146C308.262 310.819 308.372 310.435 308.372 309.993C308.372 309.441 308.18 308.973 307.796 308.588C307.411 308.2 306.802 308.005 305.968 308.005H303.096V312.177ZM329.694 306.656H331.215V314.974C331.215 315.833 331.013 316.6 330.608 317.275C330.207 317.946 329.641 318.475 328.909 318.864C328.177 319.248 327.318 319.441 326.332 319.441C325.346 319.441 324.488 319.248 323.755 318.864C323.023 318.475 322.455 317.946 322.05 317.275C321.649 316.6 321.449 315.833 321.449 314.974V306.656H322.97V314.852C322.97 315.465 323.105 316.011 323.375 316.49C323.645 316.964 324.029 317.338 324.528 317.612C325.031 317.882 325.633 318.017 326.332 318.017C327.031 318.017 327.633 317.882 328.136 317.612C328.639 317.338 329.023 316.964 329.289 316.49C329.559 316.011 329.694 315.465 329.694 314.852V306.656ZM344.413 306.656V319.22H342.891V306.656H344.413ZM356.101 319.22V306.656H357.623V317.87H363.463V319.22H356.101ZM372.099 308.005V306.656H381.522V308.005H377.571V319.22H376.05V308.005H372.099ZM406.005 319.22V306.656H410.397C411.272 306.656 411.994 306.807 412.563 307.11C413.131 307.408 413.555 307.811 413.833 308.318C414.111 308.821 414.25 309.38 414.25 309.993C414.25 310.533 414.154 310.979 413.962 311.33C413.773 311.682 413.524 311.96 413.213 312.165C412.906 312.369 412.573 312.521 412.213 312.619V312.741C412.598 312.766 412.984 312.901 413.373 313.146C413.761 313.392 414.086 313.743 414.348 314.201C414.61 314.66 414.741 315.22 414.741 315.882C414.741 316.512 414.598 317.079 414.311 317.582C414.025 318.085 413.573 318.484 412.955 318.778C412.338 319.072 411.534 319.22 410.544 319.22H406.005ZM407.526 317.87H410.544C411.538 317.87 412.244 317.678 412.661 317.293C413.082 316.905 413.293 316.435 413.293 315.882C413.293 315.457 413.185 315.064 412.968 314.705C412.751 314.341 412.442 314.05 412.041 313.833C411.641 313.613 411.166 313.502 410.618 313.502H407.526V317.87ZM407.526 312.177H410.348C410.806 312.177 411.219 312.087 411.587 311.907C411.96 311.727 412.254 311.474 412.471 311.146C412.692 310.819 412.802 310.435 412.802 309.993C412.802 309.441 412.61 308.973 412.225 308.588C411.841 308.2 411.232 308.005 410.397 308.005H407.526V312.177ZM425.878 319.22V306.656H430.124C431.105 306.656 431.911 306.823 432.541 307.159C433.171 307.49 433.637 307.946 433.94 308.527C434.242 309.108 434.394 309.768 434.394 310.508C434.394 311.249 434.242 311.905 433.94 312.478C433.637 313.05 433.173 313.5 432.547 313.827C431.921 314.15 431.122 314.312 430.148 314.312H426.713V312.938H430.099C430.77 312.938 431.31 312.84 431.719 312.643C432.132 312.447 432.43 312.169 432.614 311.809C432.803 311.445 432.897 311.011 432.897 310.508C432.897 310.005 432.803 309.566 432.614 309.189C432.426 308.813 432.126 308.523 431.713 308.318C431.3 308.11 430.754 308.005 430.075 308.005H427.4V319.22H425.878ZM431.792 313.576L434.884 319.22H433.118L430.075 313.576H431.792ZM446.082 319.22H444.487L449.1 306.656H450.671L455.284 319.22H453.689L449.935 308.643H449.836L446.082 319.22ZM446.671 314.312H453.1V315.662H446.671V314.312ZM475.842 306.656V319.22H474.369L467.523 309.355H467.4V319.22H465.879V306.656H467.351L474.222 316.545H474.345V306.656H475.842ZM491.401 319.22H487.524V306.656H491.573C492.792 306.656 493.835 306.907 494.702 307.41C495.569 307.909 496.233 308.627 496.696 309.564C497.158 310.496 497.389 311.613 497.389 312.913C497.389 314.222 497.156 315.349 496.689 316.293C496.223 317.234 495.544 317.958 494.653 318.465C493.761 318.968 492.677 319.22 491.401 319.22ZM489.045 317.87H491.303C492.342 317.87 493.203 317.67 493.886 317.269C494.569 316.868 495.078 316.298 495.413 315.557C495.749 314.817 495.916 313.936 495.916 312.913C495.916 311.899 495.751 311.026 495.419 310.294C495.088 309.557 494.593 308.993 493.935 308.6C493.276 308.204 492.456 308.005 491.475 308.005H489.045V317.87Z" fill="white"/>
<path d="M66.7422 312.66H112.541M565.272 312.66H514.998" stroke="white" stroke-width="1.43963" stroke-linecap="round"/>
<path d="M102.718 348.034V348.049C102.718 352.277 102.302 356.147 101.558 359.717C99.9073 367.61 96.5996 374.007 92.3208 379.439C86.0924 387.347 77.8342 393.239 69.6343 398.927C65.7863 401.6 61.9529 404.229 58.3459 406.996L98.2791 465.738C104.464 474.836 110.349 478.903 114.496 480.846H93.6351L49.0069 415.203C48.4009 415.838 47.8168 416.481 47.2472 417.145C41.1941 424.184 37.1927 432.727 37.1927 444.717H37.1781V465.658C37.1781 475.493 41.0188 478.911 45.1662 480.853H16.8574C21.0048 478.911 24.8455 475.493 24.8455 465.658V363.229C24.8455 353.401 21.0048 349.984 16.8574 348.034H45.1662C41.0188 349.977 37.1781 353.394 37.1781 363.229V432.72C38.9232 426.199 42.0849 420.818 46.0935 416.16C52.3292 408.909 60.5729 403.367 68.7581 397.679C76.9434 391.998 85.0629 386.186 91.116 378.497C94.8326 373.78 97.7825 368.362 99.5058 361.798C101.287 354.073 98.2936 349.707 94.7231 348.034H102.711H102.718Z" fill="white"/>
<path d="M168.939 348.035C164.791 349.977 160.951 353.394 160.951 363.23V432.523C162.63 428.697 165.595 425.762 169.289 423.432C175.123 419.752 182.775 417.438 190.369 415.028C194.641 413.67 198.898 412.283 202.797 410.632C205.827 409.347 208.631 407.909 211.07 406.2C216.473 402.403 220.036 397.387 220.241 389.633V363.222C220.241 353.394 216.4 349.977 212.253 348.027H240.561C236.414 349.97 232.573 353.387 232.573 363.222V465.651C232.573 475.486 236.414 478.904 240.561 480.846H212.253C216.4 478.904 220.241 475.486 220.241 465.651V397.38C218.569 401.593 215.626 404.849 211.946 407.434C206.104 411.538 198.438 414.057 190.829 416.467C183.221 418.883 175.664 421.191 170.1 424.703C164.528 428.215 160.951 432.8 160.951 440.117V465.651C160.951 475.486 164.791 478.904 168.939 480.846H140.63C144.777 478.904 148.618 475.486 148.618 465.651V363.222C148.618 353.394 144.777 349.977 140.63 348.027H168.939V348.035Z" fill="white"/>
<path d="M364.856 348.028C361.388 349.656 358.131 352.306 357.16 358.885C356.861 360.944 356.846 363.427 356.868 365.698V424.155C356.868 428.719 356.948 433.275 356.707 437.832C356.481 441.672 355.78 449.032 352.933 456.414C350.735 462.11 347.529 467.17 343.134 471.237C339.337 474.749 335.036 477.166 330.604 478.714C326.223 480.247 321.966 480.853 318.403 480.977C314.584 481.124 310.495 480.7 306.501 479.707C305.318 479.415 304.193 479.079 303.113 478.714C285.998 472.88 276.578 460.219 274.541 440.752C274.052 436.013 274.103 430.282 274.14 425.09V363.215C274.14 353.387 270.299 349.97 266.151 348.02H294.46C290.313 349.963 286.472 353.38 286.472 363.215V422.805C286.472 428.799 286.414 434.794 286.633 440.789C287.122 451.179 289.042 460.796 296.256 469.331C298.724 472.048 301.536 474.099 304.42 475.552C305.34 476.02 306.333 476.45 307.384 476.837C310.948 478.166 314.781 478.853 318.388 478.948C321.769 479.028 325.858 478.575 330.085 477.188C334.357 475.786 338.497 473.501 342.141 470.149C346.361 466.272 349.435 461.394 351.545 455.867C354.283 448.689 354.94 441.512 355.189 437.722C355.386 434.531 355.371 430.194 355.357 426.419V363.142C355.342 353.358 351.509 349.948 347.369 348.013H364.864L364.856 348.028Z" fill="white"/>
<path d="M445.489 348.831C449.06 349.364 452.514 350.204 455.778 351.408C460.67 353.219 464.919 355.789 468.344 359.097C472.068 362.69 474.55 366.895 475.923 371.342C477.179 375.606 478.501 385.267 475.054 389.494C473.66 391.21 471.177 391.78 468.921 391.086C466.591 390.37 465.014 388.37 464.715 386.106C464.277 382.536 467.117 379.075 467.212 373.007C467.117 369.816 466.226 366.267 463.97 362.785C461.874 359.55 458.72 356.578 454.478 354.271C451.469 352.635 448.089 351.416 444.474 350.664C440.473 349.824 436.574 349.59 432.354 349.729C428.9 349.89 425.651 350.43 422.664 351.343C418.086 352.745 414.369 354.95 411.529 357.666C402.161 367.034 402.862 376.066 409.631 384.011C418.969 394.292 441.78 401.382 457.194 409.961C461.707 412.393 466.226 415.218 470.169 418.497C473.937 421.637 477.296 425.295 479.596 429.588C480.72 431.684 481.582 433.918 482.122 436.298C484.451 448.697 480.764 460.905 467.701 471.456C459.618 477.612 448.928 480.956 437.509 480.766H437.392C432.091 480.671 426.184 479.817 420.408 477.634C415.173 475.662 410.463 472.756 406.732 468.944C402.635 464.753 400.153 459.905 398.985 454.852C397.356 447.85 398.525 441.483 399.16 438.642C399.481 437.204 399.81 436.05 399.905 435.736L401.38 436.16C401.292 436.474 400.971 437.584 400.657 438.978C400.043 441.746 398.875 447.835 400.379 454.531C401.46 459.343 403.797 463.987 407.703 467.995C411.266 471.653 415.815 474.443 420.904 476.297C426.519 478.349 432.273 479.072 437.399 478.977H437.509C448.622 478.736 458.501 474.859 465.357 468.623C475.047 459.664 477.8 445.36 469.169 435.481C458.457 423.878 436.129 415.277 423.314 408.194C414.399 403.324 406.14 398.373 400.752 388.844C397.115 382.412 396.874 374.131 401.328 364.924C403.285 361.317 406.024 358.053 409.601 355.381C413.114 352.767 417.312 350.81 422.168 349.583C425.935 348.648 430.696 348.101 434.865 348.086C438.385 348.064 441.89 348.342 445.467 348.831H445.489Z" fill="white"/>
<path d="M543.66 348.035C539.513 349.977 535.672 353.394 535.672 363.23V432.523C537.352 428.697 540.316 425.762 544.011 423.432C549.845 419.752 557.497 417.438 565.091 415.028C569.362 413.67 573.619 412.283 577.519 410.632C580.549 409.347 583.353 407.909 585.791 406.2C591.195 402.403 594.758 397.387 594.962 389.633V363.222C594.962 353.394 591.122 349.977 586.974 348.027H615.283C611.136 349.97 607.295 353.387 607.295 363.222V465.651C607.295 475.486 611.136 478.904 615.283 480.846H586.974C591.122 478.904 594.962 475.486 594.962 465.651V397.38C593.29 401.593 590.348 404.849 586.668 407.434C580.826 411.538 573.159 414.057 565.551 416.467C557.943 418.883 550.385 421.191 544.821 424.703C539.25 428.215 535.672 432.8 535.672 440.117V465.651C535.672 475.486 539.513 478.904 543.66 480.846H515.352C519.499 478.904 523.34 475.486 523.34 465.651V363.222C523.34 353.394 519.499 349.977 515.352 348.027H543.66V348.035Z" fill="white"/>
<path fill-rule="evenodd" clip-rule="evenodd" d="M313.605 395.616C313.605 402.169 310.63 407.481 306.96 407.481C303.29 407.481 300.315 402.169 300.315 395.616C300.315 389.063 303.29 383.75 306.96 383.75C310.63 383.75 313.605 389.063 313.605 395.616Z" fill="white"/>
<path fill-rule="evenodd" clip-rule="evenodd" d="M338.816 431.181C338.557 431.608 338.266 432.118 337.945 432.691C338.386 432.071 338.806 431.438 339.204 430.794C339.075 430.924 338.946 431.053 338.816 431.181Z" fill="white"/>
<path fill-rule="evenodd" clip-rule="evenodd" d="M338.302 431.685C338.474 431.518 338.645 431.35 338.816 431.181C338.851 431.123 338.886 431.066 338.92 431.01C338.722 431.209 338.516 431.435 338.302 431.685Z" fill="white"/>
<path d="M338.302 431.685C335.801 434.122 333.182 436.379 330.289 438.118C319.242 445.084 308.479 439.359 300.315 430.794C300.626 431.321 300.954 431.837 301.297 432.341C307.7 442.966 316.815 455.157 327.431 447.155C331.478 444.347 335.028 437.946 337.356 433.749L337.414 433.645C337.599 433.312 337.776 432.992 337.945 432.691C338.266 432.118 338.557 431.608 338.816 431.181C338.645 431.35 338.474 431.518 338.302 431.685ZM331.231 439.542C332.511 438.621 333.693 437.594 334.78 436.485C332.474 439.747 329.699 443.485 326.489 445.731C318.399 450.832 312.601 445.162 306.87 438.397C313.823 443.973 323.156 445.629 331.231 439.542Z" fill="white"/>
<path fill-rule="evenodd" clip-rule="evenodd" d="M334.78 436.485C333.693 437.594 332.511 438.621 331.231 439.542C323.156 445.629 313.823 443.973 306.87 438.397C312.601 445.162 318.399 450.832 326.489 445.731C329.699 443.485 332.474 439.747 334.78 436.485Z" fill="white"/>
<path d="M323.925 398.152C328.665 391.471 339.378 384.726 338.396 388.359C337.827 390.466 333.471 392.691 332.502 393.564C340.179 391.862 346.917 396.546 343.922 394.954C339.267 392.661 328.651 396.131 323.925 398.152Z" fill="white"/>
<path d="M21.4173 525.985L16.8574 508.985H20.6573L22.6273 517.345C22.7873 518.045 22.9373 518.795 23.0673 519.585C23.1973 520.385 23.3273 521.175 23.4573 521.985C23.5873 522.785 23.7073 523.555 23.8373 524.295H23.2173C23.3573 523.555 23.4873 522.785 23.6273 521.985C23.7673 521.185 23.9072 520.385 24.0472 519.585C24.1872 518.795 24.3472 518.045 24.5272 517.345L26.6072 508.985H30.2272L32.2971 517.345C32.4671 518.045 32.6271 518.795 32.7771 519.585C32.9171 520.385 33.0671 521.175 33.2071 521.985C33.3471 522.785 33.4871 523.555 33.6271 524.295H32.9871C33.1171 523.555 33.2471 522.785 33.3671 521.985C33.4971 521.185 33.6272 520.385 33.7672 519.585C33.9072 518.795 34.0571 518.045 34.2071 517.345L36.177 508.985H39.987L35.407 525.985H31.4371L29.1771 517.295C28.9372 516.325 28.7272 515.285 28.5572 514.155C28.3872 513.025 28.1972 511.865 27.9772 510.675H28.8472C28.6072 511.835 28.4173 512.975 28.2673 514.085C28.1173 515.195 27.9071 516.265 27.6471 517.295L25.3972 525.985H21.4173Z" fill="white"/>
<path d="M75.666 525.985V508.985H87.0458V511.875H79.1459V515.985H86.4459V518.825H79.1459V523.105H87.0658V525.995H75.666V525.985Z" fill="white"/>
<path d="M122.453 525.985L128.263 508.985H132.823L138.783 525.985H134.913L132.183 517.785C131.853 516.725 131.523 515.565 131.183 514.315C130.843 513.055 130.493 511.685 130.113 510.195H130.873C130.503 511.695 130.163 513.075 129.853 514.345C129.533 515.615 129.223 516.765 128.913 517.795L126.293 525.995H122.443L122.453 525.985ZM126.083 522.045V519.315H135.153V522.045H126.083Z" fill="white"/>
<path d="M174.463 525.985V508.985H181.093C182.383 508.985 183.483 509.215 184.393 509.665C185.293 510.125 185.993 510.765 186.463 511.595C186.933 512.425 187.173 513.395 187.173 514.515C187.173 515.635 186.933 516.595 186.453 517.405C185.973 518.215 185.273 518.835 184.353 519.265C183.433 519.695 182.323 519.905 181.013 519.905H176.513V517.085H180.453C181.163 517.085 181.753 516.985 182.213 516.795C182.673 516.605 183.013 516.315 183.243 515.925C183.473 515.545 183.583 515.065 183.583 514.505C183.583 513.945 183.473 513.445 183.243 513.055C183.013 512.665 182.673 512.365 182.213 512.155C181.753 511.945 181.163 511.845 180.453 511.845H177.953V525.975H174.473L174.463 525.985ZM183.923 525.985L179.783 518.245H183.563L187.783 525.985H183.923Z" fill="white"/>
<path d="M267.823 525.985V519.595L261.523 508.985H265.593L268.473 514.275C268.773 514.805 269.033 515.335 269.263 515.865C269.493 516.395 269.723 517.015 269.973 517.745H269.213C269.453 517.005 269.673 516.375 269.893 515.855C270.113 515.335 270.363 514.805 270.643 514.285L273.423 508.995H277.483L271.283 519.605V525.995H267.813L267.823 525.985Z" fill="white"/>
<path d="M319.622 526.213C318.122 526.213 316.772 525.873 315.582 525.183C314.392 524.493 313.432 523.503 312.742 522.203C312.052 520.903 311.702 519.333 311.702 517.494C311.702 515.654 312.052 514.074 312.742 512.764C313.442 511.464 314.382 510.464 315.582 509.784C316.782 509.104 318.132 508.754 319.622 508.754C321.112 508.754 322.482 509.094 323.672 509.784C324.862 510.464 325.812 511.464 326.512 512.764C327.212 514.074 327.552 515.644 327.552 517.494C327.552 519.343 327.202 520.903 326.512 522.203C325.822 523.503 324.872 524.493 323.672 525.183C322.482 525.863 321.132 526.213 319.622 526.213ZM319.622 523.123C320.502 523.123 321.272 522.913 321.932 522.483C322.592 522.053 323.102 521.423 323.462 520.573C323.832 519.733 324.012 518.704 324.012 517.494C324.012 516.284 323.832 515.234 323.462 514.394C323.092 513.554 322.582 512.914 321.932 512.484C321.272 512.054 320.502 511.844 319.622 511.844C318.742 511.844 317.982 512.064 317.322 512.494C316.662 512.924 316.142 513.564 315.782 514.404C315.412 515.244 315.232 516.274 315.232 517.494C315.232 518.714 315.412 519.723 315.782 520.563C316.152 521.403 316.662 522.033 317.322 522.473C317.982 522.913 318.752 523.123 319.622 523.123Z" fill="white"/>
<path d="M370.75 526.225C369.35 526.225 368.12 525.965 367.07 525.445C366.02 524.925 365.2 524.195 364.62 523.275C364.04 522.345 363.75 521.265 363.75 520.025V508.996H367.23V519.745C367.23 520.405 367.38 520.995 367.67 521.505C367.96 522.015 368.37 522.425 368.9 522.715C369.43 523.005 370.05 523.155 370.75 523.155C371.45 523.155 372.09 523.005 372.62 522.715C373.15 522.425 373.56 522.015 373.85 521.505C374.14 520.995 374.29 520.405 374.29 519.745V508.996H377.78V520.025C377.78 521.265 377.49 522.345 376.9 523.275C376.31 524.205 375.49 524.925 374.44 525.445C373.39 525.965 372.16 526.225 370.75 526.225Z" fill="white"/>
<path d="M414.42 525.985V508.985H421.05C422.34 508.985 423.44 509.215 424.35 509.665C425.25 510.125 425.95 510.765 426.42 511.595C426.89 512.425 427.13 513.395 427.13 514.515C427.13 515.635 426.89 516.595 426.41 517.405C425.93 518.215 425.23 518.835 424.31 519.265C423.39 519.695 422.28 519.905 420.97 519.905H416.47V517.085H420.41C421.12 517.085 421.71 516.985 422.17 516.795C422.63 516.605 422.97 516.315 423.2 515.925C423.43 515.545 423.54 515.065 423.54 514.505C423.54 513.945 423.43 513.445 423.2 513.055C422.97 512.665 422.63 512.365 422.17 512.155C421.71 511.945 421.12 511.845 420.41 511.845H417.91V525.975H414.43L414.42 525.985ZM423.88 525.985L419.74 518.245H423.52L427.74 525.985H423.88Z" fill="white"/>
<path d="M507.386 526.215C505.616 526.215 504.236 525.755 503.216 524.825C502.196 523.895 501.696 522.585 501.696 520.875V519.885H505.176V520.935C505.176 521.745 505.376 522.365 505.776 522.785C506.176 523.205 506.716 523.415 507.386 523.415C508.056 523.415 508.596 523.205 508.996 522.785C509.396 522.365 509.586 521.745 509.586 520.925V508.985H513.036V520.865C513.036 522.585 512.536 523.905 511.526 524.835C510.516 525.765 509.146 526.225 507.386 526.225V526.215Z" fill="white"/>
<path d="M557.166 526.213C555.666 526.213 554.316 525.873 553.126 525.183C551.936 524.493 550.976 523.503 550.286 522.203C549.596 520.903 549.246 519.333 549.246 517.494C549.246 515.654 549.596 514.074 550.286 512.764C550.986 511.464 551.926 510.464 553.126 509.784C554.326 509.104 555.676 508.754 557.166 508.754C558.656 508.754 560.026 509.094 561.216 509.784C562.406 510.464 563.356 511.464 564.056 512.764C564.756 514.074 565.096 515.644 565.096 517.494C565.096 519.343 564.746 520.903 564.056 522.203C563.366 523.503 562.416 524.493 561.216 525.183C560.026 525.863 558.676 526.213 557.166 526.213ZM557.166 523.123C558.046 523.123 558.816 522.913 559.476 522.483C560.136 522.053 560.646 521.423 561.006 520.573C561.376 519.733 561.556 518.704 561.556 517.494C561.556 516.284 561.376 515.234 561.006 514.394C560.636 513.554 560.126 512.914 559.476 512.484C558.816 512.054 558.046 511.844 557.166 511.844C556.286 511.844 555.526 512.064 554.866 512.494C554.206 512.924 553.686 513.564 553.326 514.404C552.956 515.244 552.776 516.274 552.776 517.494C552.776 518.714 552.956 519.723 553.326 520.563C553.696 521.403 554.206 522.033 554.866 522.473C555.526 522.913 556.296 523.123 557.166 523.123Z" fill="white"/>
<path d="M605.595 525.985V519.595L599.295 508.985H603.365L606.245 514.275C606.545 514.805 606.805 515.335 607.035 515.865C607.265 516.395 607.495 517.015 607.745 517.745H606.985C607.225 517.005 607.445 516.375 607.665 515.855C607.885 515.335 608.135 514.805 608.415 514.285L611.195 508.995H615.255L609.055 519.605V525.995H605.585L605.595 525.985Z" fill="white"/>
</svg>
