<svg width="1361" height="469" viewBox="0 0 1361 469" fill="none" xmlns="http://www.w3.org/2000/svg">
<path d="M133.702 126.845L199.892 125.065C207.192 124.885 221.602 123.995 226.942 118.655C228.192 117.405 228.902 116.345 228.362 114.385L229.432 113.315L252.742 136.625L251.672 137.695C221.072 126.665 189.222 130.755 157.192 131.115C201.672 167.765 119.472 248.545 147.402 276.485C153.092 282.175 161.462 284.135 169.112 282.175L169.642 283.775C158.612 286.265 147.042 282.525 139.212 274.705C99.8917 235.385 178.712 156.555 154.512 132.355L153.442 131.285L128.172 132.355L76.2116 184.315C71.4116 189.115 69.6317 196.595 71.9417 203.175L71.0516 204.065L44.1816 177.195L45.0717 176.305C51.8317 178.085 59.3017 176.305 64.2917 171.325L163.042 72.5746C168.202 67.4146 169.982 60.6545 167.672 53.7145L168.742 52.6445L195.612 79.5146L194.542 80.5845C188.312 78.2745 180.842 79.6945 176.042 84.4945L133.692 126.845H133.702Z" fill="black"/>
<path d="M117.641 326.334L115.861 260.144C115.681 252.844 114.791 238.434 109.451 233.094C108.201 231.844 107.141 231.134 105.181 231.674L104.111 230.604L127.421 207.294L128.491 208.364C117.461 238.964 121.551 270.814 121.911 302.844C158.561 258.364 239.341 340.564 267.281 312.634C272.971 306.944 274.931 298.574 272.971 290.924L274.571 290.394C277.061 301.424 273.321 312.994 265.501 320.824C226.181 360.144 147.351 281.324 123.151 305.524L122.081 306.594L123.151 331.864L175.111 383.824C179.911 388.624 187.391 390.404 193.971 388.094L194.861 388.984L167.991 415.854L167.101 414.964C168.881 408.204 167.101 400.734 162.121 395.744L63.3714 296.994C58.2114 291.834 51.4514 290.054 44.5114 292.364L43.4414 291.294L70.3114 264.424L71.3814 265.494C69.0714 271.724 70.4914 279.194 75.2914 283.994L117.641 326.344V326.334Z" fill="black"/>
<path d="M317.132 342.394L250.942 344.174C243.642 344.354 229.232 345.244 223.892 350.584C222.642 351.834 221.932 352.894 222.472 354.854L221.402 355.924L198.092 332.614L199.162 331.544C229.762 342.574 261.612 338.484 293.642 338.124C249.162 301.474 331.362 220.694 303.432 192.754C297.742 187.064 289.372 185.104 281.722 187.064L281.192 185.464C292.222 182.974 303.792 186.714 311.622 194.534C350.942 233.854 272.122 312.684 296.322 336.884L297.392 337.954L322.662 336.884L374.622 284.924C379.422 280.124 381.202 272.644 378.892 266.064L379.782 265.174L406.652 292.044L405.762 292.934C399.002 291.154 391.532 292.934 386.542 297.914L287.792 396.664C282.632 401.824 280.852 408.584 283.162 415.524L282.092 416.594L255.222 389.724L256.292 388.654C262.522 390.964 269.992 389.544 274.792 384.744L317.142 342.394H317.132Z" fill="black"/>
<path d="M333.192 142.905L334.972 209.095C335.152 216.395 336.042 230.805 341.382 236.145C342.632 237.395 343.692 238.105 345.652 237.565L346.722 238.635L323.412 261.945L322.342 260.875C333.372 230.275 329.282 198.425 328.922 166.395C292.272 210.875 211.492 128.675 183.552 156.605C177.862 162.295 175.902 170.665 177.862 178.315L176.262 178.845C173.772 167.815 177.512 156.245 185.332 148.415C224.652 109.095 303.482 187.915 327.682 163.715L328.752 162.645L327.682 137.375L275.722 85.4148C270.922 80.6148 263.442 78.8347 256.862 81.1447L255.972 80.2548L282.842 53.3848L283.732 54.2747C281.952 61.0347 283.732 68.5048 288.712 73.4948L387.462 172.245C392.622 177.405 399.382 179.185 406.322 176.875L407.392 177.945L380.522 204.815L379.452 203.745C381.762 197.515 380.342 190.045 375.542 185.245L333.192 142.895V142.905Z" fill="black"/>
<path d="M653.697 105.192H651.513L657.831 87.9859H659.982L666.299 105.192H664.115L658.974 90.708H658.839L653.697 105.192ZM654.504 98.4708H663.309V100.319H654.504V98.4708ZM713.137 93.3628H711.054C710.93 92.7635 710.715 92.237 710.407 91.7833C710.104 91.3297 709.735 90.9488 709.298 90.6407C708.866 90.3271 708.388 90.0919 707.861 89.935C707.335 89.7782 706.786 89.6998 706.214 89.6998C705.173 89.6998 704.229 89.963 703.383 90.4895C702.543 91.016 701.874 91.7917 701.375 92.8167C700.882 93.8417 700.636 95.0991 700.636 96.5889C700.636 98.0787 700.882 99.3361 701.375 100.361C701.874 101.386 702.543 102.162 703.383 102.688C704.229 103.215 705.173 103.478 706.214 103.478C706.786 103.478 707.335 103.4 707.861 103.243C708.388 103.086 708.866 102.854 709.298 102.545C709.735 102.232 710.104 101.848 710.407 101.394C710.715 100.935 710.93 100.409 711.054 99.815H713.137C712.98 100.694 712.695 101.481 712.28 102.176C711.866 102.87 711.35 103.461 710.734 103.948C710.118 104.43 709.426 104.797 708.659 105.049C707.897 105.301 707.082 105.427 706.214 105.427C704.747 105.427 703.442 105.069 702.299 104.352C701.157 103.635 700.258 102.615 699.602 101.294C698.947 99.9718 698.62 98.4036 698.62 96.5889C698.62 94.7742 698.947 93.206 699.602 91.8841C700.258 90.5623 701.157 89.543 702.299 88.826C703.442 88.1091 704.747 87.7507 706.214 87.7507C707.082 87.7507 707.897 87.8767 708.659 88.1287C709.426 88.3808 710.118 88.7504 710.734 89.2377C711.35 89.7194 711.866 90.3075 712.28 91.002C712.695 91.6909 712.98 92.4778 713.137 93.3628ZM742.851 96.5889C742.851 98.4036 742.523 99.9718 741.868 101.294C741.212 102.615 740.313 103.635 739.171 104.352C738.028 105.069 736.723 105.427 735.256 105.427C733.788 105.427 732.483 105.069 731.341 104.352C730.198 103.635 729.299 102.615 728.644 101.294C727.989 99.9718 727.661 98.4036 727.661 96.5889C727.661 94.7742 727.989 93.206 728.644 91.8841C729.299 90.5623 730.198 89.543 731.341 88.826C732.483 88.1091 733.788 87.7507 735.256 87.7507C736.723 87.7507 738.028 88.1091 739.171 88.826C740.313 89.543 741.212 90.5623 741.868 91.8841C742.523 93.206 742.851 94.7742 742.851 96.5889ZM740.834 96.5889C740.834 95.0991 740.585 93.8417 740.087 92.8167C739.594 91.7917 738.924 91.016 738.079 90.4895C737.238 89.963 736.298 89.6998 735.256 89.6998C734.214 89.6998 733.27 89.963 732.424 90.4895C731.584 91.016 730.915 91.7917 730.417 92.8167C729.924 93.8417 729.677 95.0991 729.677 96.5889C729.677 98.0787 729.924 99.3361 730.417 100.361C730.915 101.386 731.584 102.162 732.424 102.688C733.27 103.215 734.214 103.478 735.256 103.478C736.298 103.478 737.238 103.215 738.079 102.688C738.924 102.162 739.594 101.386 740.087 100.361C740.585 99.3361 740.834 98.0787 740.834 96.5889ZM769.474 87.9859H771.558V99.3782C771.558 100.554 771.281 101.605 770.726 102.529C770.177 103.447 769.402 104.173 768.399 104.705C767.397 105.231 766.22 105.494 764.871 105.494C763.521 105.494 762.345 105.231 761.342 104.705C760.339 104.173 759.561 103.447 759.006 102.529C758.458 101.605 758.183 100.554 758.183 99.3782V87.9859H760.267V99.2101C760.267 100.05 760.451 100.798 760.821 101.453C761.191 102.103 761.717 102.615 762.401 102.991C763.089 103.36 763.913 103.545 764.871 103.545C765.828 103.545 766.652 103.36 767.341 102.991C768.029 102.615 768.556 102.103 768.92 101.453C769.29 100.798 769.474 100.05 769.474 99.2101V87.9859ZM787.548 105.192V87.9859H793.362C794.711 87.9859 795.815 88.2295 796.672 88.7168C797.534 89.1985 798.173 89.851 798.587 90.6743C799.002 91.4977 799.209 92.4162 799.209 93.43C799.209 94.4438 799.002 95.3651 798.587 96.194C798.178 97.023 797.546 97.6839 796.689 98.1768C795.832 98.664 794.734 98.9077 793.395 98.9077H789.228V97.0594H793.328C794.252 97.0594 794.994 96.8998 795.554 96.5805C796.114 96.2612 796.521 95.83 796.773 95.2867C797.03 94.7378 797.159 94.1189 797.159 93.43C797.159 92.7411 797.03 92.125 796.773 91.5817C796.521 91.0384 796.112 90.6127 795.546 90.3047C794.98 89.991 794.23 89.8342 793.294 89.8342H789.631V105.192H787.548ZM814.394 105.192V87.9859H816.478V103.344H824.476V105.192H814.394ZM839.531 105.192V87.9859H849.915V89.8342H841.615V95.648H849.378V97.4962H841.615V103.344H850.05V105.192H839.531ZM872.624 95.6648V97.5131H865.097V95.6648H872.624ZM888.211 105.192V87.9859H894.226C895.425 87.9859 896.413 88.1931 897.192 88.6076C897.97 89.0165 898.55 89.5682 898.931 90.2627C899.312 90.9516 899.502 91.7161 899.502 92.5562C899.502 93.2956 899.371 93.9061 899.107 94.3877C898.85 94.8694 898.508 95.2503 898.083 95.5303C897.662 95.8104 897.206 96.0176 896.713 96.152V96.3201C897.24 96.3537 897.769 96.5385 898.301 96.8745C898.833 97.2106 899.278 97.6923 899.637 98.3196C899.995 98.9469 900.174 99.7142 900.174 100.622C900.174 101.484 899.978 102.26 899.586 102.949C899.194 103.638 898.575 104.184 897.73 104.587C896.884 104.99 895.783 105.192 894.428 105.192H888.211ZM890.294 103.344H894.428C895.789 103.344 896.755 103.08 897.326 102.554C897.903 102.022 898.192 101.378 898.192 100.622C898.192 100.039 898.043 99.5014 897.746 99.0085C897.45 98.51 897.027 98.1123 896.478 97.8155C895.929 97.5131 895.279 97.3618 894.529 97.3618H890.294V103.344ZM890.294 95.5471H894.159C894.786 95.5471 895.352 95.4239 895.856 95.1775C896.366 94.931 896.769 94.5838 897.066 94.1357C897.368 93.6876 897.52 93.1611 897.52 92.5562C897.52 91.8001 897.256 91.1588 896.73 90.6323C896.203 90.1003 895.369 89.8342 894.226 89.8342H890.294V95.5471ZM926.719 87.9859H928.802V99.3782C928.802 100.554 928.525 101.605 927.97 102.529C927.421 103.447 926.646 104.173 925.643 104.705C924.641 105.231 923.464 105.494 922.115 105.494C920.765 105.494 919.589 105.231 918.586 104.705C917.583 104.173 916.805 103.447 916.25 102.529C915.702 101.605 915.427 100.554 915.427 99.3782V87.9859H917.511V99.2101C917.511 100.05 917.695 100.798 918.065 101.453C918.435 102.103 918.961 102.615 919.645 102.991C920.333 103.36 921.157 103.545 922.115 103.545C923.072 103.545 923.896 103.36 924.585 102.991C925.273 102.615 925.8 102.103 926.164 101.453C926.534 100.798 926.719 100.05 926.719 99.2101V87.9859ZM946.875 87.9859V105.192H944.792V87.9859H946.875ZM962.882 105.192V87.9859H964.966V103.344H972.964V105.192H962.882ZM984.791 89.8342V87.9859H997.695V89.8342H992.285V105.192H990.201V89.8342H984.791ZM1031.22 105.192V87.9859H1037.24C1038.44 87.9859 1039.43 88.1931 1040.2 88.6076C1040.98 89.0165 1041.56 89.5682 1041.94 90.2627C1042.32 90.9516 1042.51 91.7161 1042.51 92.5562C1042.51 93.2956 1042.38 93.9061 1042.12 94.3877C1041.86 94.8694 1041.52 95.2503 1041.09 95.5303C1040.67 95.8104 1040.22 96.0176 1039.73 96.152V96.3201C1040.25 96.3537 1040.78 96.5385 1041.31 96.8745C1041.85 97.2106 1042.29 97.6923 1042.65 98.3196C1043.01 98.9469 1043.19 99.7142 1043.19 100.622C1043.19 101.484 1042.99 102.26 1042.6 102.949C1042.21 103.638 1041.59 104.184 1040.74 104.587C1039.9 104.99 1038.8 105.192 1037.44 105.192H1031.22ZM1033.31 103.344H1037.44C1038.8 103.344 1039.77 103.08 1040.34 102.554C1040.92 102.022 1041.2 101.378 1041.2 100.622C1041.2 100.039 1041.06 99.5014 1040.76 99.0085C1040.46 98.51 1040.04 98.1123 1039.49 97.8155C1038.94 97.5131 1038.29 97.3618 1037.54 97.3618H1033.31V103.344ZM1033.31 95.5471H1037.17C1037.8 95.5471 1038.36 95.4239 1038.87 95.1775C1039.38 94.931 1039.78 94.5838 1040.08 94.1357C1040.38 93.6876 1040.53 93.1611 1040.53 92.5562C1040.53 91.8001 1040.27 91.1588 1039.74 90.6323C1039.22 90.1003 1038.38 89.8342 1037.24 89.8342H1033.31V95.5471ZM1058.44 105.192V87.9859H1064.25C1065.6 87.9859 1066.7 88.2155 1067.56 88.6748C1068.43 89.1285 1069.06 89.753 1069.48 90.5483C1069.89 91.3437 1070.1 92.2482 1070.1 93.262C1070.1 94.2757 1069.89 95.1747 1069.48 95.9588C1069.06 96.7429 1068.43 97.359 1067.57 97.8071C1066.71 98.2496 1065.62 98.4708 1064.29 98.4708H1059.58V96.5889H1064.22C1065.14 96.5889 1065.88 96.4545 1066.44 96.1856C1067 95.9168 1067.41 95.5359 1067.66 95.0431C1067.92 94.5446 1068.05 93.9509 1068.05 93.262C1068.05 92.5731 1067.92 91.971 1067.66 91.4557C1067.41 90.9404 1066.99 90.5427 1066.43 90.2627C1065.86 89.977 1065.12 89.8342 1064.19 89.8342H1060.52V105.192H1058.44ZM1066.54 97.4626L1070.77 105.192H1068.35L1064.19 97.4626H1066.54ZM1086.11 105.192H1083.92L1090.24 87.9859H1092.39L1098.71 105.192H1096.52L1091.38 90.708H1091.25L1086.11 105.192ZM1086.91 98.4708H1095.72V100.319H1086.91V98.4708ZM1126.86 87.9859V105.192H1124.85L1115.47 91.6825H1115.3V105.192H1113.22V87.9859H1115.23L1124.64 101.529H1124.81V87.9859H1126.86ZM1148.17 105.192H1142.86V87.9859H1148.41C1150.07 87.9859 1151.5 88.3304 1152.69 89.0193C1153.88 89.7026 1154.79 90.6855 1155.42 91.9682C1156.05 93.2452 1156.37 94.7742 1156.37 96.5553C1156.37 98.3476 1156.05 99.8906 1155.41 101.184C1154.77 102.473 1153.84 103.464 1152.62 104.159C1151.4 104.847 1149.92 105.192 1148.17 105.192ZM1144.94 103.344H1148.04C1149.46 103.344 1150.64 103.069 1151.57 102.52C1152.51 101.971 1153.21 101.19 1153.66 100.176C1154.12 99.1625 1154.35 97.9555 1154.35 96.5553C1154.35 95.1663 1154.13 93.9705 1153.67 92.9679C1153.22 91.9598 1152.54 91.1868 1151.64 90.6491C1150.74 90.1059 1149.61 89.8342 1148.27 89.8342H1144.94V103.344Z" fill="black"/>
<path d="M566.617 96.4897H629.337M1249.33 96.4897H1180.48" stroke="black" stroke-width="1.97152" stroke-linecap="round"/>
<path d="M615.885 143.122V143.142C615.885 148.932 615.315 154.231 614.295 159.121C612.035 169.931 607.505 178.69 601.646 186.13C593.116 196.959 581.807 205.028 570.578 212.818C565.308 216.478 560.058 220.078 555.118 223.867L609.805 304.313C618.275 316.772 626.334 322.342 632.014 325.002H603.446L542.329 235.107C541.499 235.977 540.699 236.857 539.919 237.767C531.63 247.406 526.15 259.105 526.15 275.524H526.13V304.203C526.13 317.672 531.39 322.352 537.069 325.012H498.302C503.981 322.352 509.241 317.672 509.241 304.203V163.931C509.241 150.472 503.981 145.792 498.302 143.122H537.069C531.39 145.782 526.13 150.462 526.13 163.931V259.095C528.52 250.166 532.85 242.796 538.339 236.417C546.879 226.487 558.168 218.898 569.378 211.108C580.587 203.329 591.706 195.369 599.996 184.84C605.086 178.38 609.125 170.96 611.485 161.971C613.925 151.392 609.825 145.412 604.936 143.122H615.875H615.885Z" fill="black"/>
<path d="M706.571 143.122C700.891 145.782 695.631 150.461 695.631 163.931V258.825C697.931 253.585 701.991 249.566 707.05 246.376C715.04 241.336 725.519 238.166 735.919 234.867C741.768 233.007 747.598 231.107 752.938 228.847C757.088 227.087 760.927 225.117 764.267 222.777C771.667 217.578 776.546 210.708 776.826 200.089V163.921C776.826 150.461 771.567 145.782 765.887 143.112H804.655C798.975 145.772 793.715 150.451 793.715 163.921V304.193C793.715 317.662 798.975 322.342 804.655 325.001H765.887C771.567 322.342 776.826 317.662 776.826 304.193V210.698C774.537 216.468 770.507 220.927 765.467 224.467C757.467 230.087 746.968 233.537 736.549 236.836C726.129 240.146 715.78 243.306 708.16 248.116C700.531 252.926 695.631 259.205 695.631 269.225V304.193C695.631 317.662 700.891 322.342 706.571 325.001H667.803C673.482 322.342 678.742 317.662 678.742 304.193V163.921C678.742 150.461 673.482 145.782 667.803 143.112H706.571V143.122Z" fill="black"/>
<path d="M974.871 143.112C970.122 145.342 965.662 148.972 964.332 157.981C963.922 160.801 963.902 164.201 963.932 167.311V247.366C963.932 253.616 964.042 259.856 963.712 266.095C963.402 271.355 962.442 281.434 958.542 291.544C955.533 299.343 951.143 306.273 945.123 311.843C939.924 316.652 934.034 319.962 927.964 322.082C921.965 324.182 916.135 325.012 911.255 325.182C906.025 325.382 900.426 324.802 894.956 323.442C893.336 323.042 891.796 322.582 890.316 322.082C866.878 314.092 853.979 296.753 851.189 270.095C850.519 263.605 850.589 255.756 850.639 248.646V163.911C850.639 150.452 845.379 145.772 839.699 143.102H878.467C872.787 145.762 867.528 150.442 867.528 163.911V245.516C867.528 253.726 867.448 261.935 867.748 270.145C868.418 284.374 871.048 297.543 880.927 309.233C884.307 312.953 888.156 315.762 892.106 317.752C893.366 318.392 894.726 318.982 896.166 319.512C901.046 321.332 906.295 322.272 911.235 322.402C915.865 322.512 921.465 321.892 927.254 319.992C933.104 318.072 938.774 314.942 943.763 310.353C949.543 305.043 953.753 298.363 956.643 290.794C960.392 280.964 961.292 271.135 961.632 265.945C961.902 261.575 961.882 255.636 961.862 250.466V163.811C961.842 150.412 956.593 145.742 950.923 143.092H974.882L974.871 143.112Z" fill="black"/>
<path d="M1085.3 144.213C1090.19 144.942 1094.92 146.092 1099.38 147.742C1106.08 150.222 1111.9 153.742 1116.59 158.272C1121.69 163.191 1125.09 168.951 1126.97 175.041C1128.69 180.88 1130.5 194.11 1125.78 199.899C1123.87 202.249 1120.47 203.029 1117.38 202.079C1114.19 201.099 1112.03 198.359 1111.62 195.26C1111.02 190.37 1114.91 185.63 1115.04 177.321C1114.91 172.951 1113.69 168.091 1110.6 163.321C1107.73 158.892 1103.41 154.822 1097.6 151.662C1093.49 149.422 1088.86 147.752 1083.91 146.722C1078.43 145.572 1073.09 145.252 1067.31 145.442C1062.58 145.662 1058.13 146.402 1054.04 147.652C1047.77 149.572 1042.68 152.592 1038.79 156.312C1025.96 169.141 1026.92 181.51 1036.19 192.39C1048.98 206.469 1080.22 216.178 1101.32 227.928C1107.5 231.258 1113.69 235.127 1119.09 239.617C1124.25 243.917 1128.85 248.927 1132 254.806C1133.54 257.676 1134.72 260.736 1135.46 263.996C1138.65 280.975 1133.6 297.694 1115.71 312.143C1104.64 320.572 1090.01 325.152 1074.37 324.892H1074.21C1066.95 324.762 1058.86 323.592 1050.95 320.602C1043.78 317.903 1037.33 313.923 1032.22 308.703C1026.61 302.963 1023.21 296.324 1021.61 289.404C1019.38 279.815 1020.98 271.095 1021.85 267.205C1022.29 265.236 1022.74 263.656 1022.87 263.226L1024.89 263.806C1024.77 264.236 1024.33 265.756 1023.9 267.665C1023.06 271.455 1021.46 279.795 1023.52 288.964C1025 295.554 1028.2 301.913 1033.55 307.403C1038.43 312.413 1044.66 316.233 1051.63 318.772C1059.32 321.582 1067.2 322.572 1074.22 322.442H1074.37C1089.59 322.112 1103.11 316.803 1112.5 308.263C1125.77 295.994 1129.54 276.405 1117.72 262.876C1103.05 246.987 1072.48 235.207 1054.93 225.508C1042.72 218.838 1031.41 212.059 1024.03 199.009C1019.05 190.2 1018.72 178.861 1024.82 166.251C1027.5 161.312 1031.25 156.842 1036.15 153.182C1040.96 149.602 1046.71 146.922 1053.36 145.242C1058.52 143.963 1065.04 143.213 1070.75 143.193C1075.57 143.163 1080.37 143.543 1085.27 144.213H1085.3Z" fill="black"/>
<path d="M1219.74 143.122C1214.06 145.782 1208.8 150.461 1208.8 163.931V258.825C1211.1 253.585 1215.16 249.566 1220.22 246.376C1228.21 241.336 1238.69 238.166 1249.08 234.867C1254.93 233.007 1260.76 231.107 1266.1 228.847C1270.25 227.087 1274.09 225.117 1277.43 222.777C1284.83 217.578 1289.71 210.708 1289.99 200.089V163.921C1289.99 150.461 1284.73 145.782 1279.05 143.112H1317.82C1312.14 145.772 1306.88 150.451 1306.88 163.921V304.193C1306.88 317.662 1312.14 322.342 1317.82 325.001H1279.05C1284.73 322.342 1289.99 317.662 1289.99 304.193V210.698C1287.7 216.468 1283.67 220.927 1278.63 224.467C1270.63 230.087 1260.13 233.537 1249.71 236.836C1239.3 240.146 1228.95 243.306 1221.33 248.116C1213.7 252.926 1208.8 259.205 1208.8 269.225V304.193C1208.8 317.662 1214.06 322.342 1219.74 325.001H1180.97C1186.65 322.342 1191.91 317.662 1191.91 304.193V163.921C1191.91 150.461 1186.65 145.782 1180.97 143.112H1219.74V143.122Z" fill="black"/>
<path fill-rule="evenodd" clip-rule="evenodd" d="M904.685 208.282C904.685 217.257 900.611 224.532 895.586 224.532C890.56 224.532 886.486 217.257 886.486 208.282C886.486 199.308 890.56 192.033 895.586 192.033C900.611 192.033 904.685 199.308 904.685 208.282Z" fill="black"/>
<path fill-rule="evenodd" clip-rule="evenodd" d="M939.211 256.988C938.857 257.572 938.458 258.27 938.019 259.056C938.623 258.207 939.197 257.34 939.743 256.458C939.566 256.635 939.389 256.812 939.211 256.988Z" fill="black"/>
<path fill-rule="evenodd" clip-rule="evenodd" d="M938.508 257.678C938.743 257.449 938.977 257.219 939.211 256.988C939.259 256.908 939.307 256.83 939.354 256.754C939.082 257.026 938.8 257.336 938.508 257.678Z" fill="black"/>
<path d="M938.508 257.678C935.082 261.015 931.495 264.106 927.534 266.488C912.405 276.027 897.666 268.188 886.486 256.458C886.912 257.18 887.361 257.886 887.83 258.576C896.599 273.126 909.082 289.822 923.619 278.863C929.162 275.018 934.024 266.252 937.212 260.505L937.292 260.362C937.545 259.905 937.787 259.468 938.019 259.056C938.458 258.27 938.857 257.572 939.211 256.988C938.977 257.219 938.743 257.449 938.508 257.678ZM928.824 268.438C930.577 267.176 932.195 265.77 933.684 264.252C930.526 268.719 926.726 273.838 922.33 276.914C911.251 283.899 903.31 276.134 895.463 266.87C904.985 274.506 917.765 276.774 928.824 268.438Z" fill="black"/>
<path fill-rule="evenodd" clip-rule="evenodd" d="M933.684 264.252C932.195 265.77 930.577 267.176 928.824 268.438C917.765 276.774 904.985 274.506 895.463 266.87C903.31 276.134 911.251 283.899 922.33 276.914C926.726 273.838 930.526 268.719 933.684 264.252Z" fill="black"/>
<path d="M918.817 211.756C925.308 202.606 939.98 193.369 938.635 198.345C937.856 201.23 931.89 204.278 930.564 205.473C941.077 203.142 950.304 209.556 946.203 207.376C939.828 204.236 925.29 208.988 918.817 211.756Z" fill="black"/>
<path d="M504.546 386.817L498.302 363.537H503.506L506.203 374.985C506.423 375.944 506.628 376.971 506.806 378.053C506.984 379.148 507.162 380.23 507.34 381.339C507.518 382.435 507.682 383.489 507.86 384.503H507.011C507.203 383.489 507.381 382.435 507.573 381.339C507.765 380.244 507.956 379.148 508.148 378.053C508.34 376.971 508.559 375.944 508.805 374.985L511.654 363.537H516.611L519.446 374.985C519.679 375.944 519.898 376.971 520.103 378.053C520.295 379.148 520.5 380.23 520.692 381.339C520.884 382.435 521.075 383.489 521.267 384.503H520.391C520.569 383.489 520.747 382.435 520.911 381.339C521.089 380.244 521.267 379.148 521.459 378.053C521.651 376.971 521.856 375.944 522.061 374.985L524.759 363.537H529.977L523.705 386.817H518.268L515.173 374.917C514.844 373.588 514.557 372.164 514.324 370.617C514.091 369.069 513.831 367.481 513.53 365.851H514.721C514.393 367.44 514.132 369.001 513.927 370.521C513.722 372.041 513.434 373.506 513.078 374.917L509.997 386.817H504.546Z" fill="black"/>
<path d="M578.838 386.817V363.537H594.422V367.494H583.603V373.123H593.6V377.012H583.603V382.873H594.449V386.831H578.838V386.817Z" fill="black"/>
<path d="M642.911 386.817L650.868 363.537H657.112L665.274 386.817H659.974L656.236 375.588C655.784 374.136 655.332 372.547 654.866 370.836C654.401 369.11 653.921 367.234 653.401 365.194H654.442C653.935 367.248 653.47 369.138 653.045 370.877C652.607 372.616 652.182 374.191 651.758 375.601L648.17 386.831H642.897L642.911 386.817ZM647.882 381.421V377.683H660.303V381.421H647.882Z" fill="black"/>
<path d="M714.136 386.817V363.537H723.215C724.982 363.537 726.488 363.852 727.734 364.468C728.967 365.098 729.925 365.974 730.569 367.111C731.213 368.247 731.541 369.576 731.541 371.11C731.541 372.643 731.213 373.958 730.555 375.067C729.898 376.177 728.939 377.026 727.679 377.614C726.42 378.203 724.9 378.491 723.106 378.491H716.943V374.629H722.339C723.311 374.629 724.119 374.492 724.749 374.232C725.379 373.972 725.844 373.575 726.159 373.041C726.474 372.52 726.625 371.863 726.625 371.096C726.625 370.329 726.474 369.644 726.159 369.11C725.844 368.576 725.379 368.165 724.749 367.878C724.119 367.59 723.311 367.453 722.339 367.453H718.915V386.803H714.149L714.136 386.817ZM727.091 386.817L721.421 376.218H726.598L732.377 386.817H727.091Z" fill="black"/>
<path d="M841.989 386.817V378.066L833.361 363.537H838.935L842.879 370.781C843.29 371.507 843.646 372.233 843.961 372.958C844.276 373.684 844.591 374.533 844.933 375.533H843.892C844.221 374.519 844.522 373.657 844.823 372.945C845.125 372.233 845.467 371.507 845.851 370.795L849.658 363.55H855.218L846.727 378.08V386.831H841.975L841.989 386.817Z" fill="black"/>
<path d="M912.925 387.131C910.871 387.131 909.022 386.665 907.393 385.72C905.763 384.775 904.448 383.419 903.503 381.639C902.558 379.859 902.079 377.709 902.079 375.189C902.079 372.669 902.558 370.506 903.503 368.712C904.462 366.931 905.749 365.562 907.393 364.631C909.036 363.7 910.885 363.22 912.925 363.22C914.966 363.22 916.842 363.686 918.471 364.631C920.101 365.562 921.402 366.931 922.361 368.712C923.319 370.506 923.785 372.656 923.785 375.189C923.785 377.723 923.305 379.859 922.361 381.639C921.416 383.419 920.115 384.775 918.471 385.72C916.842 386.651 914.993 387.131 912.925 387.131ZM912.925 382.899C914.13 382.899 915.185 382.611 916.088 382.023C916.992 381.434 917.691 380.571 918.184 379.407C918.69 378.257 918.937 376.846 918.937 375.189C918.937 373.532 918.69 372.094 918.184 370.944C917.677 369.794 916.979 368.917 916.088 368.328C915.185 367.739 914.13 367.452 912.925 367.452C911.72 367.452 910.679 367.753 909.775 368.342C908.871 368.931 908.159 369.807 907.666 370.958C907.16 372.108 906.913 373.518 906.913 375.189C906.913 376.86 907.16 378.243 907.666 379.393C908.173 380.544 908.871 381.406 909.775 382.009C910.679 382.611 911.734 382.899 912.925 382.899Z" fill="black"/>
<path d="M982.942 387.147C981.025 387.147 979.341 386.791 977.903 386.078C976.465 385.366 975.342 384.367 974.548 383.107C973.754 381.833 973.356 380.354 973.356 378.656V363.551H978.122V378.273C978.122 379.177 978.327 379.984 978.725 380.683C979.122 381.381 979.683 381.943 980.409 382.34C981.135 382.737 981.984 382.942 982.942 382.942C983.901 382.942 984.778 382.737 985.503 382.34C986.229 381.943 986.791 381.381 987.188 380.683C987.585 379.984 987.79 379.177 987.79 378.273V363.551H992.569V378.656C992.569 380.354 992.172 381.833 991.364 383.107C990.556 384.38 989.434 385.366 987.996 386.078C986.558 386.791 984.873 387.147 982.942 387.147Z" fill="black"/>
<path d="M1042.75 386.817V363.537H1051.83C1053.59 363.537 1055.1 363.852 1056.35 364.468C1057.58 365.098 1058.54 365.974 1059.18 367.111C1059.82 368.247 1060.15 369.576 1060.15 371.11C1060.15 372.643 1059.82 373.958 1059.17 375.067C1058.51 376.177 1057.55 377.026 1056.29 377.614C1055.03 378.203 1053.51 378.491 1051.72 378.491H1045.55V374.629H1050.95C1051.92 374.629 1052.73 374.492 1053.36 374.232C1053.99 373.972 1054.46 373.575 1054.77 373.041C1055.09 372.52 1055.24 371.863 1055.24 371.096C1055.24 370.329 1055.09 369.644 1054.77 369.11C1054.46 368.576 1053.99 368.165 1053.36 367.878C1052.73 367.59 1051.92 367.453 1050.95 367.453H1047.53V386.803H1042.76L1042.75 386.817ZM1055.7 386.817L1050.03 376.218H1055.21L1060.99 386.817H1055.7Z" fill="black"/>
<path d="M1170.06 387.132C1167.64 387.132 1165.75 386.502 1164.35 385.228C1162.95 383.955 1162.27 382.161 1162.27 379.819V378.463H1167.03V379.901C1167.03 381.011 1167.31 381.86 1167.86 382.435C1168.4 383.01 1169.14 383.298 1170.06 383.298C1170.98 383.298 1171.72 383.01 1172.27 382.435C1172.81 381.86 1173.07 381.011 1173.07 379.888V363.537H1177.8V379.806C1177.8 382.161 1177.11 383.969 1175.73 385.242C1174.35 386.516 1172.47 387.146 1170.06 387.146V387.132Z" fill="black"/>
<path d="M1238.23 387.131C1236.18 387.131 1234.33 386.665 1232.7 385.72C1231.07 384.775 1229.75 383.419 1228.81 381.639C1227.86 379.859 1227.39 377.709 1227.39 375.189C1227.39 372.669 1227.86 370.506 1228.81 368.712C1229.77 366.931 1231.06 365.562 1232.7 364.631C1234.34 363.7 1236.19 363.22 1238.23 363.22C1240.27 363.22 1242.15 363.686 1243.78 364.631C1245.41 365.562 1246.71 366.931 1247.67 368.712C1248.63 370.506 1249.09 372.656 1249.09 375.189C1249.09 377.723 1248.61 379.859 1247.67 381.639C1246.72 383.419 1245.42 384.775 1243.78 385.72C1242.15 386.651 1240.3 387.131 1238.23 387.131ZM1238.23 382.899C1239.44 382.899 1240.49 382.611 1241.4 382.023C1242.3 381.434 1243 380.571 1243.49 379.407C1244 378.257 1244.24 376.846 1244.24 375.189C1244.24 373.532 1244 372.094 1243.49 370.944C1242.98 369.794 1242.29 368.917 1241.4 368.328C1240.49 367.739 1239.44 367.452 1238.23 367.452C1237.03 367.452 1235.99 367.753 1235.08 368.342C1234.18 368.931 1233.47 369.807 1232.97 370.958C1232.47 372.108 1232.22 373.518 1232.22 375.189C1232.22 376.86 1232.47 378.243 1232.97 379.393C1233.48 380.544 1234.18 381.406 1235.08 382.009C1235.99 382.611 1237.04 382.899 1238.23 382.899Z" fill="black"/>
<path d="M1304.55 386.817V378.066L1295.93 363.537H1301.5L1305.44 370.781C1305.85 371.507 1306.21 372.233 1306.53 372.958C1306.84 373.684 1307.16 374.533 1307.5 375.533H1306.46C1306.79 374.519 1307.09 373.657 1307.39 372.945C1307.69 372.233 1308.03 371.507 1308.42 370.795L1312.22 363.55H1317.78L1309.29 378.08V386.831H1304.54L1304.55 386.817Z" fill="black"/>
</svg>
