<svg width="1349" height="436" viewBox="0 0 1349 436" fill="none" xmlns="http://www.w3.org/2000/svg">
<path d="M127.701 110.035L193.891 108.255C201.191 108.075 215.601 107.185 220.941 101.845C222.191 100.595 222.901 99.535 222.361 97.575L223.431 96.505L246.741 119.815L245.671 120.885C215.071 109.855 183.221 113.945 151.191 114.305C195.671 150.955 113.471 231.735 141.401 259.675C147.091 265.365 155.461 267.325 163.111 265.365L163.641 266.965C152.611 269.455 141.041 265.715 133.211 257.895C93.8907 218.575 172.711 139.745 148.511 115.545L147.441 114.475L122.171 115.545L70.2107 167.505C65.4107 172.305 63.6307 179.785 65.9407 186.365L65.0507 187.255L38.1807 160.385L39.0707 159.495C45.8307 161.275 53.3007 159.495 58.2907 154.515L157.041 55.765C162.201 50.605 163.981 43.845 161.671 36.905L162.741 35.835L189.611 62.705L188.541 63.775C182.311 61.465 174.841 62.885 170.041 67.685L127.691 110.035H127.701Z" fill="white"/>
<path d="M111.64 309.525L109.86 243.335C109.68 236.035 108.79 221.625 103.45 216.285C102.2 215.035 101.14 214.325 99.1804 214.865L98.1104 213.795L121.42 190.485L122.49 191.555C111.46 222.155 115.55 254.005 115.91 286.035C152.56 241.555 233.34 323.755 261.28 295.825C266.97 290.135 268.93 281.765 266.97 274.115L268.57 273.585C271.06 284.615 267.32 296.185 259.5 304.015C220.18 343.335 141.35 264.515 117.15 288.715L116.08 289.785L117.15 315.055L169.11 367.015C173.91 371.815 181.39 373.595 187.97 371.285L188.86 372.175L161.99 399.045L161.1 398.155C162.88 391.395 161.1 383.925 156.12 378.935L57.3704 280.185C52.2104 275.025 45.4504 273.245 38.5104 275.555L37.4404 274.485L64.3104 247.615L65.3804 248.685C63.0704 254.915 64.4904 262.385 69.2904 267.185L111.64 309.535V309.525Z" fill="white"/>
<path d="M311.131 325.585L244.941 327.365C237.641 327.545 223.231 328.435 217.891 333.775C216.641 335.025 215.931 336.085 216.471 338.045L215.401 339.115L192.091 315.805L193.161 314.735C223.761 325.765 255.611 321.675 287.641 321.315C243.161 284.665 325.361 203.885 297.431 175.945C291.741 170.255 283.371 168.295 275.721 170.255L275.191 168.655C286.221 166.165 297.791 169.905 305.621 177.725C344.941 217.045 266.121 295.875 290.321 320.075L291.391 321.145L316.661 320.075L368.621 268.115C373.421 263.315 375.201 255.835 372.891 249.255L373.781 248.365L400.651 275.235L399.761 276.125C393.001 274.345 385.531 276.125 380.541 281.105L281.791 379.855C276.631 385.015 274.851 391.775 277.161 398.715L276.091 399.785L249.221 372.915L250.291 371.845C256.521 374.155 263.991 372.735 268.791 367.935L311.141 325.585H311.131Z" fill="white"/>
<path d="M327.191 126.095L328.971 192.285C329.151 199.585 330.041 213.995 335.381 219.335C336.631 220.585 337.691 221.295 339.651 220.755L340.721 221.825L317.411 245.135L316.341 244.065C327.371 213.465 323.281 181.615 322.921 149.585C286.271 194.065 205.491 111.865 177.551 139.795C171.861 145.485 169.901 153.855 171.861 161.505L170.261 162.035C167.771 151.005 171.511 139.435 179.331 131.605C218.651 92.2852 297.481 171.105 321.681 146.905L322.751 145.835L321.681 120.565L269.721 68.6052C264.921 63.8052 257.441 62.0252 250.861 64.3352L249.971 63.4452L276.841 36.5752L277.731 37.4652C275.951 44.2252 277.731 51.6952 282.711 56.6852L381.461 155.435C386.621 160.595 393.381 162.375 400.321 160.065L401.391 161.135L374.521 188.005L373.451 186.935C375.761 180.705 374.341 173.235 369.541 168.435L327.191 126.085V126.095Z" fill="white"/>
<path d="M647.696 88.3823H645.511L651.829 71.1763H653.98L660.298 88.3823H658.113L652.972 73.8984H652.837L647.696 88.3823ZM648.502 81.6612H657.307V83.5095H648.502V81.6612ZM707.135 76.5532H705.052C704.928 75.9539 704.713 75.4274 704.405 74.9738C704.102 74.5201 703.733 74.1392 703.296 73.8312C702.864 73.5175 702.386 73.2823 701.859 73.1255C701.333 72.9686 700.784 72.8902 700.212 72.8902C699.171 72.8902 698.227 73.1535 697.381 73.6799C696.541 74.2064 695.872 74.9822 695.373 76.0071C694.88 77.0321 694.634 78.2895 694.634 79.7793C694.634 81.2692 694.88 82.5266 695.373 83.5515C695.872 84.5765 696.541 85.3522 697.381 85.8787C698.227 86.4052 699.171 86.6684 700.212 86.6684C700.784 86.6684 701.333 86.59 701.859 86.4332C702.386 86.2764 702.864 86.0439 703.296 85.7359C703.733 85.4222 704.102 85.0386 704.405 84.5849C704.713 84.1256 704.928 83.5992 705.052 83.0055H707.135C706.978 83.8848 706.693 84.6717 706.278 85.3662C705.864 86.0607 705.348 86.6516 704.732 87.1389C704.116 87.6206 703.425 87.9875 702.657 88.2395C701.895 88.4915 701.081 88.6176 700.212 88.6176C698.745 88.6176 697.44 88.2591 696.297 87.5422C695.155 86.8253 694.256 85.8059 693.601 84.4841C692.945 83.1623 692.618 81.594 692.618 79.7793C692.618 77.9646 692.945 76.3964 693.601 75.0746C694.256 73.7528 695.155 72.7334 696.297 72.0165C697.44 71.2996 698.745 70.9411 700.212 70.9411C701.081 70.9411 701.895 71.0671 702.657 71.3192C703.425 71.5712 704.116 71.9409 704.732 72.4281C705.348 72.9098 705.864 73.4979 706.278 74.1924C706.693 74.8813 706.978 75.6683 707.135 76.5532ZM736.849 79.7793C736.849 81.594 736.521 83.1623 735.866 84.4841C735.21 85.8059 734.311 86.8253 733.169 87.5422C732.026 88.2591 730.721 88.6176 729.254 88.6176C727.786 88.6176 726.481 88.2591 725.339 87.5422C724.196 86.8253 723.297 85.8059 722.642 84.4841C721.987 83.1623 721.659 81.594 721.659 79.7793C721.659 77.9646 721.987 76.3964 722.642 75.0746C723.297 73.7528 724.196 72.7334 725.339 72.0165C726.481 71.2996 727.786 70.9411 729.254 70.9411C730.721 70.9411 732.026 71.2996 733.169 72.0165C734.311 72.7334 735.21 73.7528 735.866 75.0746C736.521 76.3964 736.849 77.9646 736.849 79.7793ZM734.832 79.7793C734.832 78.2895 734.583 77.0321 734.085 76.0071C733.592 74.9822 732.922 74.2064 732.077 73.6799C731.237 73.1535 730.296 72.8902 729.254 72.8902C728.212 72.8902 727.268 73.1535 726.423 73.6799C725.582 74.2064 724.913 74.9822 724.415 76.0071C723.922 77.0321 723.675 78.2895 723.675 79.7793C723.675 81.2692 723.922 82.5266 724.415 83.5515C724.913 84.5765 725.582 85.3522 726.423 85.8787C727.268 86.4052 728.212 86.6684 729.254 86.6684C730.296 86.6684 731.237 86.4052 732.077 85.8787C732.922 85.3522 733.592 84.5765 734.085 83.5515C734.583 82.5266 734.832 81.2692 734.832 79.7793ZM763.473 71.1763H765.556V82.5686C765.556 83.7448 765.279 84.7949 764.724 85.7191C764.175 86.6376 763.4 87.363 762.397 87.895C761.395 88.4215 760.218 88.6848 758.869 88.6848C757.519 88.6848 756.343 88.4215 755.34 87.895C754.337 87.363 753.559 86.6376 753.004 85.7191C752.456 84.7949 752.181 83.7448 752.181 82.5686V71.1763H754.265V82.4006C754.265 83.2407 754.449 83.9884 754.819 84.6437C755.189 85.2934 755.715 85.8059 756.399 86.1812C757.088 86.5508 757.911 86.7357 758.869 86.7357C759.826 86.7357 760.65 86.5508 761.339 86.1812C762.028 85.8059 762.554 85.2934 762.918 84.6437C763.288 83.9884 763.473 83.2407 763.473 82.4006V71.1763ZM781.546 88.3823V71.1763H787.36C788.71 71.1763 789.813 71.42 790.67 71.9073C791.532 72.3889 792.171 73.0414 792.585 73.8648C793 74.6881 793.207 75.6067 793.207 76.6204C793.207 77.6342 793 78.5555 792.585 79.3845C792.176 80.2134 791.544 80.8743 790.687 81.3672C789.83 81.8545 788.732 82.0981 787.393 82.0981H783.226V80.2498H787.326C788.25 80.2498 788.992 80.0902 789.552 79.7709C790.113 79.4517 790.519 79.0204 790.771 78.4771C791.028 77.9282 791.157 77.3093 791.157 76.6204C791.157 75.9315 791.028 75.3154 790.771 74.7721C790.519 74.2288 790.11 73.8032 789.544 73.4951C788.978 73.1815 788.228 73.0246 787.292 73.0246H783.629V88.3823H781.546ZM808.392 88.3823V71.1763H810.476V86.534H818.474V88.3823H808.392ZM833.529 88.3823V71.1763H843.913V73.0246H835.613V78.8384H843.376V80.6867H835.613V86.534H844.048V88.3823H833.529ZM866.622 78.8552V80.7035H859.095V78.8552H866.622ZM882.209 88.3823V71.1763H888.224C889.423 71.1763 890.411 71.3836 891.19 71.798C891.969 72.2069 892.548 72.7586 892.929 73.4531C893.31 74.142 893.5 74.9065 893.5 75.7467C893.5 76.486 893.369 77.0965 893.106 77.5782C892.848 78.0599 892.506 78.4407 892.081 78.7208C891.66 79.0008 891.204 79.208 890.711 79.3425V79.5105C891.238 79.5441 891.767 79.7289 892.299 80.065C892.831 80.401 893.276 80.8827 893.635 81.51C893.993 82.1373 894.172 82.9046 894.172 83.812C894.172 84.6745 893.976 85.4502 893.584 86.1392C893.192 86.8281 892.573 87.3742 891.728 87.7774C890.882 88.1807 889.781 88.3823 888.426 88.3823H882.209ZM884.292 86.534H888.426C889.787 86.534 890.753 86.2708 891.324 85.7443C891.901 85.2122 892.19 84.5681 892.19 83.812C892.19 83.2295 892.041 82.6918 891.744 82.1989C891.448 81.7004 891.025 81.3028 890.476 81.0059C889.927 80.7035 889.277 80.5523 888.527 80.5523H884.292V86.534ZM884.292 78.7376H888.157C888.784 78.7376 889.35 78.6143 889.854 78.3679C890.364 78.1215 890.767 77.7742 891.064 77.3261C891.366 76.8781 891.518 76.3516 891.518 75.7467C891.518 74.9906 891.254 74.3493 890.728 73.8228C890.201 73.2907 889.367 73.0246 888.224 73.0246H884.292V78.7376ZM920.717 71.1763H922.8V82.5686C922.8 83.7448 922.523 84.7949 921.968 85.7191C921.419 86.6376 920.644 87.363 919.641 87.895C918.639 88.4215 917.462 88.6848 916.113 88.6848C914.763 88.6848 913.587 88.4215 912.584 87.895C911.582 87.363 910.803 86.6376 910.248 85.7191C909.7 84.7949 909.425 83.7448 909.425 82.5686V71.1763H911.509V82.4006C911.509 83.2407 911.694 83.9884 912.063 84.6437C912.433 85.2934 912.959 85.8059 913.643 86.1812C914.332 86.5508 915.155 86.7357 916.113 86.7357C917.07 86.7357 917.894 86.5508 918.583 86.1812C919.272 85.8059 919.798 85.2934 920.162 84.6437C920.532 83.9884 920.717 83.2407 920.717 82.4006V71.1763ZM940.874 71.1763V88.3823H938.79V71.1763H940.874ZM956.88 88.3823V71.1763H958.964V86.534H966.962V88.3823H956.88ZM978.789 73.0246V71.1763H991.693V73.0246H986.283V88.3823H984.199V73.0246H978.789ZM1025.22 88.3823V71.1763H1031.24C1032.44 71.1763 1033.42 71.3836 1034.2 71.798C1034.98 72.2069 1035.56 72.7586 1035.94 73.4531C1036.32 74.142 1036.51 74.9065 1036.51 75.7467C1036.51 76.486 1036.38 77.0965 1036.12 77.5782C1035.86 78.0599 1035.52 78.4407 1035.09 78.7208C1034.67 79.0008 1034.22 79.208 1033.72 79.3425V79.5105C1034.25 79.5441 1034.78 79.7289 1035.31 80.065C1035.84 80.401 1036.29 80.8827 1036.65 81.51C1037.01 82.1373 1037.18 82.9046 1037.18 83.812C1037.18 84.6745 1036.99 85.4502 1036.6 86.1392C1036.2 86.8281 1035.59 87.3742 1034.74 87.7774C1033.89 88.1807 1032.79 88.3823 1031.44 88.3823H1025.22ZM1027.3 86.534H1031.44C1032.8 86.534 1033.77 86.2708 1034.34 85.7443C1034.91 85.2122 1035.2 84.5681 1035.2 83.812C1035.2 83.2295 1035.05 82.6918 1034.76 82.1989C1034.46 81.7004 1034.04 81.3028 1033.49 81.0059C1032.94 80.7035 1032.29 80.5523 1031.54 80.5523H1027.3V86.534ZM1027.3 78.7376H1031.17C1031.8 78.7376 1032.36 78.6143 1032.87 78.3679C1033.38 78.1215 1033.78 77.7742 1034.08 77.3261C1034.38 76.8781 1034.53 76.3516 1034.53 75.7467C1034.53 74.9906 1034.27 74.3493 1033.74 73.8228C1033.21 73.2907 1032.38 73.0246 1031.24 73.0246H1027.3V78.7376ZM1052.44 88.3823V71.1763H1058.25C1059.6 71.1763 1060.7 71.406 1061.56 71.8653C1062.42 72.3189 1063.06 72.9434 1063.48 73.7388C1063.89 74.5341 1064.1 75.4386 1064.1 76.4524C1064.1 77.4662 1063.89 78.3651 1063.48 79.1492C1063.06 79.9334 1062.43 80.5495 1061.57 80.9975C1060.71 81.44 1059.62 81.6612 1058.28 81.6612H1053.58V79.7793H1058.22C1059.14 79.7793 1059.88 79.6449 1060.44 79.3761C1061 79.1072 1061.41 78.7264 1061.66 78.2335C1061.92 77.735 1062.05 77.1413 1062.05 76.4524C1062.05 75.7635 1061.92 75.1614 1061.66 74.6461C1061.4 74.1308 1060.99 73.7332 1060.43 73.4531C1059.86 73.1675 1059.11 73.0246 1058.18 73.0246H1054.52V88.3823H1052.44ZM1060.54 80.6531L1064.77 88.3823H1062.35L1058.18 80.6531H1060.54ZM1080.11 88.3823H1077.92L1084.24 71.1763H1086.39L1092.71 88.3823H1090.52L1085.38 73.8984H1085.25L1080.11 88.3823ZM1080.91 81.6612H1089.72V83.5095H1080.91V81.6612ZM1120.86 71.1763V88.3823H1118.84L1109.47 74.8729H1109.3V88.3823H1107.22V71.1763H1109.23L1118.64 84.7193H1118.81V71.1763H1120.86ZM1142.17 88.3823H1136.86V71.1763H1142.4C1144.07 71.1763 1145.5 71.5208 1146.69 72.2097C1147.88 72.893 1148.79 73.876 1149.42 75.1586C1150.05 76.4356 1150.37 77.9646 1150.37 79.7457C1150.37 81.538 1150.05 83.0811 1149.41 84.3749C1148.77 85.6631 1147.84 86.6544 1146.62 87.349C1145.4 88.0379 1143.92 88.3823 1142.17 88.3823ZM1138.94 86.534H1142.03C1143.46 86.534 1144.64 86.2596 1145.57 85.7107C1146.51 85.1618 1147.2 84.3805 1147.66 83.3667C1148.12 82.3529 1148.35 81.146 1148.35 79.7457C1148.35 78.3567 1148.12 77.1609 1147.67 76.1583C1147.22 75.1502 1146.54 74.3773 1145.64 73.8396C1144.74 73.2963 1143.61 73.0246 1142.27 73.0246H1138.94V86.534Z" fill="white"/>
<path d="M560.615 79.6802H623.335M1243.33 79.6802H1174.48" stroke="white" stroke-width="1.97152" stroke-linecap="round"/>
<path d="M609.884 126.312V126.332C609.884 132.122 609.314 137.422 608.294 142.312C606.034 153.121 601.504 161.88 595.645 169.32C587.115 180.149 575.806 188.219 564.577 196.008C559.307 199.668 554.057 203.268 549.118 207.058L603.804 287.503C612.274 299.962 620.333 305.532 626.013 308.192H597.445L536.328 218.297C535.498 219.167 534.698 220.047 533.918 220.957C525.629 230.596 520.149 242.296 520.149 258.715H520.129V287.393C520.129 300.862 525.389 305.542 531.069 308.202H492.301C497.98 305.542 503.24 300.862 503.24 287.393V147.121C503.24 133.662 497.98 128.982 492.301 126.312H531.069C525.389 128.972 520.129 133.652 520.129 147.121V242.286C522.519 233.356 526.849 225.987 532.338 219.607C540.878 209.678 552.167 202.088 563.377 194.299C574.586 186.519 585.705 178.559 593.995 168.03C599.085 161.57 603.124 154.151 605.484 145.161C607.924 134.582 603.824 128.602 598.935 126.312H609.874H609.884Z" fill="white"/>
<path d="M700.57 126.312C694.89 128.972 689.63 133.652 689.63 147.121V242.016C691.93 236.776 695.99 232.756 701.049 229.566C709.039 224.527 719.518 221.357 729.918 218.057C735.767 216.197 741.597 214.297 746.937 212.037C751.087 210.277 754.926 208.308 758.266 205.968C765.666 200.768 770.546 193.898 770.826 183.279V147.111C770.826 133.652 765.566 128.972 759.886 126.302H798.654C792.974 128.962 787.714 133.642 787.714 147.111V287.383C787.714 300.852 792.974 305.532 798.654 308.192H759.886C765.566 305.532 770.826 300.852 770.826 287.383V193.888C768.536 199.658 764.506 204.118 759.466 207.658C751.467 213.277 740.967 216.727 730.548 220.027C720.128 223.337 709.779 226.497 702.159 231.306C694.53 236.116 689.63 242.396 689.63 252.415V287.383C689.63 300.852 694.89 305.532 700.57 308.192H661.802C667.481 305.532 672.741 300.852 672.741 287.383V147.111C672.741 133.652 667.481 128.972 661.802 126.302H700.57V126.312Z" fill="white"/>
<path d="M968.871 126.303C964.121 128.533 959.661 132.162 958.331 141.172C957.921 143.992 957.901 147.392 957.931 150.501V230.557C957.931 236.806 958.041 243.046 957.711 249.286C957.401 254.545 956.441 264.625 952.541 274.734C949.532 282.534 945.142 289.463 939.122 295.033C933.923 299.843 928.033 303.153 921.963 305.272C915.964 307.372 910.134 308.202 905.254 308.372C900.024 308.572 894.425 307.992 888.955 306.632C887.335 306.232 885.795 305.772 884.315 305.272C860.877 297.283 847.978 279.944 845.188 253.285C844.518 246.796 844.588 238.946 844.638 231.837V147.102C844.638 133.642 839.378 128.963 833.698 126.293H872.466C866.786 128.953 861.527 133.632 861.527 147.102V228.707C861.527 236.916 861.447 245.126 861.747 253.335C862.417 267.565 865.047 280.734 874.926 292.423C878.306 296.143 882.155 298.953 886.105 300.943C887.365 301.583 888.725 302.173 890.165 302.703C895.045 304.522 900.294 305.462 905.234 305.592C909.864 305.702 915.464 305.082 921.253 303.182C927.103 301.263 932.773 298.133 937.762 293.543C943.542 288.233 947.752 281.554 950.642 273.984C954.391 264.155 955.291 254.325 955.631 249.136C955.901 244.766 955.881 238.826 955.861 233.657V147.002C955.841 133.602 950.592 128.933 944.922 126.283H968.881L968.871 126.303Z" fill="white"/>
<path d="M1079.29 127.403C1084.18 128.133 1088.91 129.283 1093.38 130.933C1100.08 133.413 1105.9 136.932 1110.59 141.462C1115.69 146.382 1119.09 152.142 1120.97 158.231C1122.69 164.071 1124.5 177.3 1119.78 183.09C1117.87 185.44 1114.47 186.22 1111.38 185.27C1108.19 184.29 1106.03 181.55 1105.62 178.45C1105.02 173.56 1108.91 168.821 1109.04 160.511C1108.91 156.141 1107.69 151.282 1104.6 146.512C1101.73 142.082 1097.41 138.012 1091.6 134.853C1087.48 132.613 1082.85 130.943 1077.9 129.913C1072.43 128.763 1067.09 128.443 1061.31 128.633C1056.58 128.853 1052.13 129.593 1048.04 130.843C1041.77 132.763 1036.68 135.782 1032.79 139.502C1019.96 152.332 1020.92 164.701 1030.19 175.58C1042.98 189.659 1074.21 199.369 1095.32 211.118C1101.5 214.448 1107.69 218.318 1113.09 222.807C1118.25 227.107 1122.85 232.117 1126 237.997C1127.54 240.866 1128.72 243.926 1129.46 247.186C1132.65 264.165 1127.6 280.884 1109.71 295.333C1098.64 303.763 1084 308.343 1068.37 308.083H1068.21C1060.95 307.953 1052.86 306.783 1044.95 303.793C1037.78 301.093 1031.33 297.113 1026.22 291.893C1020.61 286.154 1017.21 279.514 1015.61 272.595C1013.38 263.005 1014.98 254.286 1015.85 250.396C1016.29 248.426 1016.74 246.846 1016.87 246.416L1018.89 246.996C1018.77 247.426 1018.33 248.946 1017.9 250.856C1017.06 254.646 1015.46 262.985 1017.52 272.155C1019 278.744 1022.2 285.104 1027.55 290.594C1032.43 295.603 1038.66 299.423 1045.63 301.963C1053.32 304.773 1061.2 305.763 1068.22 305.633H1068.37C1083.58 305.303 1097.11 299.993 1106.5 291.453C1119.77 279.184 1123.54 259.595 1111.72 246.066C1097.05 230.177 1066.48 218.398 1048.93 208.698C1036.72 202.029 1025.41 195.249 1018.03 182.2C1013.05 173.39 1012.72 162.051 1018.82 149.442C1021.5 144.502 1025.25 140.032 1030.15 136.372C1034.96 132.793 1040.71 130.113 1047.36 128.433C1052.52 127.153 1059.04 126.403 1064.75 126.383C1069.57 126.353 1074.36 126.733 1079.26 127.403H1079.29Z" fill="white"/>
<path d="M1213.74 126.312C1208.06 128.972 1202.8 133.652 1202.8 147.121V242.016C1205.1 236.776 1209.16 232.756 1214.22 229.566C1222.21 224.527 1232.68 221.357 1243.08 218.057C1248.93 216.197 1254.76 214.297 1260.1 212.037C1264.25 210.277 1268.09 208.308 1271.43 205.968C1278.83 200.768 1283.71 193.898 1283.99 183.279V147.111C1283.99 133.652 1278.73 128.972 1273.05 126.302H1311.82C1306.14 128.962 1300.88 133.642 1300.88 147.111V287.383C1300.88 300.852 1306.14 305.532 1311.82 308.192H1273.05C1278.73 305.532 1283.99 300.852 1283.99 287.383V193.888C1281.7 199.658 1277.67 204.118 1272.63 207.658C1264.63 213.277 1254.13 216.727 1243.71 220.027C1233.29 223.337 1222.94 226.497 1215.33 231.306C1207.7 236.116 1202.8 242.396 1202.8 252.415V287.383C1202.8 300.852 1208.06 305.532 1213.74 308.192H1174.97C1180.65 305.532 1185.91 300.852 1185.91 287.383V147.111C1185.91 133.652 1180.65 128.972 1174.97 126.302H1213.74V126.312Z" fill="white"/>
<path fill-rule="evenodd" clip-rule="evenodd" d="M898.684 191.473C898.684 200.447 894.61 207.722 889.585 207.722C884.559 207.722 880.485 200.447 880.485 191.473C880.485 182.499 884.559 175.224 889.585 175.224C894.61 175.224 898.684 182.499 898.684 191.473Z" fill="white"/>
<path fill-rule="evenodd" clip-rule="evenodd" d="M933.21 240.179C932.856 240.763 932.457 241.461 932.018 242.246C932.622 241.398 933.196 240.531 933.742 239.649C933.565 239.826 933.388 240.003 933.21 240.179Z" fill="white"/>
<path fill-rule="evenodd" clip-rule="evenodd" d="M932.507 240.869C932.742 240.64 932.976 240.41 933.21 240.179C933.259 240.098 933.306 240.02 933.353 239.945C933.081 240.217 932.799 240.526 932.507 240.869Z" fill="white"/>
<path d="M932.507 240.869C929.081 244.206 925.494 247.296 921.533 249.678C906.404 259.218 891.665 251.378 880.485 239.649C880.911 240.37 881.36 241.077 881.829 241.767C890.598 256.317 903.081 273.013 917.618 262.054C923.161 258.209 928.023 249.442 931.211 243.695L931.291 243.553C931.544 243.096 931.786 242.659 932.018 242.246C932.457 241.461 932.856 240.763 933.21 240.179C932.976 240.41 932.742 240.64 932.507 240.869ZM922.823 251.628C924.576 250.367 926.194 248.96 927.683 247.443C924.525 251.91 920.725 257.028 916.329 260.104C905.25 267.09 897.309 259.324 889.462 250.06C898.984 257.696 911.764 259.964 922.823 251.628Z" fill="white"/>
<path fill-rule="evenodd" clip-rule="evenodd" d="M927.683 247.443C926.194 248.96 924.576 250.367 922.823 251.628C911.764 259.964 898.984 257.696 889.462 250.06C897.309 259.324 905.25 267.09 916.329 260.104C920.725 257.028 924.525 251.91 927.683 247.443Z" fill="white"/>
<path d="M912.816 194.947C919.307 185.797 933.979 176.559 932.634 181.535C931.855 184.42 925.889 187.468 924.563 188.663C935.076 186.332 944.303 192.746 940.202 190.566C933.827 187.427 919.289 192.178 912.816 194.947Z" fill="white"/>
<path d="M498.545 370.007L492.301 346.727H497.505L500.202 358.176C500.422 359.134 500.627 360.161 500.805 361.243C500.983 362.339 501.161 363.42 501.339 364.53C501.517 365.625 501.681 366.68 501.859 367.693H501.01C501.202 366.68 501.38 365.625 501.572 364.53C501.764 363.434 501.955 362.339 502.147 361.243C502.339 360.161 502.558 359.134 502.804 358.176L505.653 346.727H510.61L513.445 358.176C513.678 359.134 513.897 360.161 514.102 361.243C514.294 362.339 514.499 363.42 514.691 364.53C514.883 365.625 515.075 366.68 515.266 367.693H514.39C514.568 366.68 514.746 365.625 514.91 364.53C515.088 363.434 515.266 362.339 515.458 361.243C515.65 360.161 515.855 359.134 516.06 358.176L518.758 346.727H523.976L517.704 370.007H512.267L509.172 358.107C508.843 356.779 508.556 355.355 508.323 353.807C508.09 352.26 507.83 350.671 507.529 349.041H508.72C508.392 350.63 508.131 352.191 507.926 353.711C507.721 355.231 507.433 356.697 507.077 358.107L503.996 370.007H498.545Z" fill="white"/>
<path d="M572.837 370.007V346.727H588.421V350.685H577.603V356.313H587.599V360.202H577.603V366.063H588.449V370.021H572.837V370.007Z" fill="white"/>
<path d="M636.91 370.007L644.867 346.727H651.111L659.273 370.007H653.973L650.235 358.778C649.783 357.326 649.331 355.738 648.865 354.026C648.4 352.301 647.92 350.425 647.4 348.384H648.441C647.934 350.438 647.469 352.328 647.044 354.067C646.606 355.806 646.181 357.381 645.757 358.792L642.169 370.021H636.896L636.91 370.007ZM641.881 364.612V360.873H654.302V364.612H641.881Z" fill="white"/>
<path d="M708.135 370.007V346.727H717.214C718.981 346.727 720.487 347.042 721.733 347.658C722.966 348.288 723.924 349.165 724.568 350.301C725.212 351.438 725.54 352.766 725.54 354.3C725.54 355.834 725.212 357.148 724.554 358.258C723.897 359.367 722.938 360.216 721.678 360.805C720.419 361.394 718.899 361.681 717.105 361.681H710.942V357.819H716.338C717.31 357.819 718.118 357.683 718.748 357.422C719.378 357.162 719.843 356.765 720.158 356.231C720.473 355.711 720.624 355.053 720.624 354.286C720.624 353.519 720.473 352.835 720.158 352.301C719.843 351.767 719.378 351.356 718.748 351.068C718.118 350.781 717.31 350.644 716.338 350.644H712.914V369.994H708.148L708.135 370.007ZM721.09 370.007L715.42 359.408H720.597L726.376 370.007H721.09Z" fill="white"/>
<path d="M835.988 370.007V361.257L827.36 346.727H832.934L836.878 353.971C837.289 354.697 837.645 355.423 837.96 356.149C838.275 356.875 838.59 357.724 838.932 358.723H837.891C838.22 357.71 838.521 356.847 838.823 356.135C839.124 355.423 839.466 354.697 839.85 353.985L843.657 346.741H849.217L840.726 361.27V370.021H835.974L835.988 370.007Z" fill="white"/>
<path d="M906.924 370.321C904.87 370.321 903.021 369.855 901.392 368.91C899.762 367.966 898.447 366.61 897.502 364.83C896.557 363.049 896.078 360.899 896.078 358.38C896.078 355.86 896.557 353.696 897.502 351.902C898.461 350.122 899.748 348.752 901.392 347.821C903.035 346.89 904.884 346.411 906.924 346.411C908.965 346.411 910.841 346.876 912.47 347.821C914.1 348.752 915.401 350.122 916.36 351.902C917.318 353.696 917.784 355.846 917.784 358.38C917.784 360.913 917.304 363.049 916.36 364.83C915.415 366.61 914.114 367.966 912.47 368.91C910.841 369.842 908.992 370.321 906.924 370.321ZM906.924 366.089C908.129 366.089 909.184 365.802 910.087 365.213C910.991 364.624 911.69 363.761 912.183 362.597C912.689 361.447 912.936 360.037 912.936 358.38C912.936 356.723 912.689 355.285 912.183 354.134C911.676 352.984 910.978 352.108 910.087 351.519C909.184 350.93 908.129 350.642 906.924 350.642C905.719 350.642 904.678 350.944 903.774 351.532C902.871 352.121 902.158 352.998 901.665 354.148C901.159 355.298 900.912 356.709 900.912 358.38C900.912 360.05 901.159 361.433 901.665 362.584C902.172 363.734 902.871 364.597 903.774 365.199C904.678 365.802 905.733 366.089 906.924 366.089Z" fill="white"/>
<path d="M976.942 370.337C975.024 370.337 973.34 369.981 971.902 369.269C970.464 368.557 969.341 367.557 968.547 366.297C967.753 365.024 967.355 363.545 967.355 361.847V346.742H972.121V361.463C972.121 362.367 972.326 363.175 972.724 363.873C973.121 364.572 973.682 365.133 974.408 365.53C975.134 365.927 975.983 366.133 976.942 366.133C977.9 366.133 978.777 365.927 979.502 365.53C980.228 365.133 980.79 364.572 981.187 363.873C981.584 363.175 981.789 362.367 981.789 361.463V346.742H986.569V361.847C986.569 363.545 986.171 365.024 985.363 366.297C984.555 367.571 983.433 368.557 981.995 369.269C980.557 369.981 978.872 370.337 976.942 370.337Z" fill="white"/>
<path d="M1036.75 370.007V346.727H1045.83C1047.59 346.727 1049.1 347.042 1050.34 347.658C1051.58 348.288 1052.54 349.165 1053.18 350.301C1053.82 351.438 1054.15 352.766 1054.15 354.3C1054.15 355.834 1053.82 357.148 1053.17 358.258C1052.51 359.367 1051.55 360.216 1050.29 360.805C1049.03 361.394 1047.51 361.681 1045.72 361.681H1039.55V357.819H1044.95C1045.92 357.819 1046.73 357.683 1047.36 357.422C1047.99 357.162 1048.45 356.765 1048.77 356.231C1049.08 355.711 1049.24 355.053 1049.24 354.286C1049.24 353.519 1049.08 352.835 1048.77 352.301C1048.45 351.767 1047.99 351.356 1047.36 351.068C1046.73 350.781 1045.92 350.644 1044.95 350.644H1041.53V369.994H1036.76L1036.75 370.007ZM1049.7 370.007L1044.03 359.408H1049.21L1054.99 370.007H1049.7Z" fill="white"/>
<path d="M1164.06 370.322C1161.64 370.322 1159.75 369.692 1158.35 368.419C1156.95 367.145 1156.27 365.351 1156.27 363.01V361.654H1161.03V363.092C1161.03 364.201 1161.31 365.05 1161.85 365.625C1162.4 366.2 1163.14 366.488 1164.06 366.488C1164.98 366.488 1165.72 366.2 1166.26 365.625C1166.81 365.05 1167.07 364.201 1167.07 363.078V346.727H1171.8V362.996C1171.8 365.351 1171.11 367.159 1169.73 368.433C1168.35 369.706 1166.47 370.336 1164.06 370.336V370.322Z" fill="white"/>
<path d="M1232.23 370.321C1230.18 370.321 1228.33 369.855 1226.7 368.91C1225.07 367.966 1223.75 366.61 1222.81 364.83C1221.86 363.049 1221.38 360.899 1221.38 358.38C1221.38 355.86 1221.86 353.696 1222.81 351.902C1223.77 350.122 1225.05 348.752 1226.7 347.821C1228.34 346.89 1230.19 346.411 1232.23 346.411C1234.27 346.411 1236.15 346.876 1237.78 347.821C1239.41 348.752 1240.71 350.122 1241.67 351.902C1242.62 353.696 1243.09 355.846 1243.09 358.38C1243.09 360.913 1242.61 363.049 1241.67 364.83C1240.72 366.61 1239.42 367.966 1237.78 368.91C1236.15 369.842 1234.3 370.321 1232.23 370.321ZM1232.23 366.089C1233.44 366.089 1234.49 365.802 1235.39 365.213C1236.3 364.624 1237 363.761 1237.49 362.597C1238 361.447 1238.24 360.037 1238.24 358.38C1238.24 356.723 1238 355.285 1237.49 354.134C1236.98 352.984 1236.28 352.108 1235.39 351.519C1234.49 350.93 1233.44 350.642 1232.23 350.642C1231.03 350.642 1229.98 350.944 1229.08 351.532C1228.18 352.121 1227.46 352.998 1226.97 354.148C1226.47 355.298 1226.22 356.709 1226.22 358.38C1226.22 360.05 1226.47 361.433 1226.97 362.584C1227.48 363.734 1228.18 364.597 1229.08 365.199C1229.98 365.802 1231.04 366.089 1232.23 366.089Z" fill="white"/>
<path d="M1298.55 370.007V361.257L1289.92 346.727H1295.5L1299.44 353.971C1299.85 354.697 1300.21 355.423 1300.52 356.149C1300.84 356.875 1301.15 357.724 1301.5 358.723H1300.46C1300.78 357.71 1301.09 356.847 1301.39 356.135C1301.69 355.423 1302.03 354.697 1302.41 353.985L1306.22 346.741H1311.78L1303.29 361.27V370.021H1298.54L1298.55 370.007Z" fill="white"/>
</svg>
