<svg width="891" height="325" viewBox="0 0 891 325" fill="none" xmlns="http://www.w3.org/2000/svg">
<rect width="375" height="324" transform="translate(257.912)" fill="white"/>
<g opacity="0.03">
<path d="M24.619 170.378L42.6729 169.892C44.6621 169.844 48.5947 169.601 50.0506 168.145C50.3898 167.805 50.5838 167.514 50.4387 166.98L50.7305 166.689L57.0877 173.046L56.7958 173.338C48.448 170.328 39.761 171.445 31.025 171.542C43.1588 181.54 20.7354 203.574 28.356 211.193C29.9098 212.747 32.1908 213.28 34.2777 212.747L34.4229 213.184C31.4131 213.864 28.2597 212.845 26.1239 210.709C15.3988 199.984 36.8979 178.483 30.2978 171.883L30.0075 171.593L23.1157 171.883L8.94386 186.055C7.63302 187.366 7.14871 189.404 7.77969 191.199L7.53677 191.442L0.207947 184.113L0.450865 183.87C2.29491 184.356 4.33299 183.87 5.69272 182.512L32.6277 155.577C34.0348 154.17 34.5206 152.326 33.8897 150.433L34.1815 150.141L41.5103 157.47L41.2185 157.762C39.5196 157.131 37.4815 157.519 36.1707 158.83L24.6205 170.38L24.619 170.378Z" fill="black"/>
<path d="M20.2372 224.792L19.7514 206.738C19.7025 204.749 19.4596 200.816 18.0036 199.36C17.6644 199.021 17.3726 198.827 16.8394 198.972L16.5476 198.68L22.9047 192.323L23.1965 192.615C20.1868 200.963 21.3036 209.65 21.4014 218.386C31.3993 206.252 53.4331 228.676 61.0522 221.055C62.6059 219.501 63.1391 217.22 62.6059 215.133L63.0429 214.988C63.7228 217.998 62.7037 221.151 60.5679 223.287C49.8428 234.012 28.3421 212.513 21.7421 219.113L21.4518 219.403L21.7421 226.295L35.9139 240.467C37.2247 241.778 39.2628 242.262 41.058 241.631L41.3009 241.874L33.9721 249.203L33.7291 248.96C34.215 247.116 33.7291 245.078 32.3709 243.718L5.43595 216.783C4.02885 215.376 2.1848 214.89 0.29187 215.521L6.10352e-05 215.23L7.32888 207.901L7.62069 208.193C6.98971 209.891 7.37777 211.93 8.68862 213.24L20.2387 224.79L20.2372 224.792Z" fill="black"/>
<path d="M74.6512 229.174L56.5973 229.66C54.6081 229.708 50.6756 229.951 49.2196 231.407C48.8804 231.747 48.6864 232.038 48.8315 232.572L48.5397 232.863L42.1826 226.506L42.4744 226.214C50.8222 229.224 59.5093 228.107 68.2452 228.01C56.1114 218.012 78.5348 195.978 70.9142 188.359C69.3605 186.805 67.0795 186.272 64.9925 186.805L64.8474 186.368C67.8571 185.688 71.0105 186.707 73.1463 188.843C83.8714 199.568 62.3723 221.069 68.9724 227.669L69.2627 227.959L76.1545 227.669L90.3263 213.497C91.6372 212.186 92.1215 210.148 91.4905 208.353L91.7334 208.11L99.0623 215.439L98.8194 215.682C96.9753 215.196 94.9372 215.682 93.5775 217.04L66.6425 243.975C65.2354 245.382 64.7496 247.226 65.3806 249.119L65.0887 249.411L57.7599 242.082L58.0517 241.79C59.7506 242.421 61.7887 242.033 63.0996 240.722L74.6497 229.172L74.6512 229.174Z" fill="black"/>
<path d="M79.0329 174.76L79.5187 192.814C79.5676 194.803 79.8105 198.735 81.2665 200.191C81.6057 200.531 81.8975 200.725 82.4307 200.579L82.7225 200.871L76.3653 207.228L76.0735 206.937C79.0833 198.589 77.9665 189.902 77.8687 181.166C67.8708 193.3 45.837 170.876 38.2179 178.497C36.6641 180.05 36.1309 182.331 36.6641 184.418L36.2272 184.564C35.5473 181.554 36.5663 178.4 38.7022 176.265C49.4273 165.54 70.9279 187.039 77.528 180.439L77.8183 180.148L77.528 173.256L63.3562 159.085C62.0453 157.774 60.0073 157.289 58.2121 157.92L57.9692 157.677L65.298 150.349L65.5409 150.592C65.0551 152.436 65.5409 154.474 66.8991 155.833L93.8341 182.768C95.2412 184.176 97.0852 184.661 98.9782 184.03L99.27 184.322L91.9412 191.651L91.6494 191.359C92.2803 189.66 91.8923 187.622 90.5814 186.311L79.0313 174.761L79.0329 174.76Z" fill="black"/>
<path d="M146.473 170.378L164.527 169.892C166.516 169.844 170.449 169.601 171.905 168.145C172.244 167.805 172.438 167.514 172.293 166.98L172.585 166.689L178.942 173.046L178.65 173.338C170.302 170.328 161.615 171.445 152.879 171.542C165.013 181.54 142.59 203.574 150.21 211.193C151.764 212.747 154.045 213.28 156.132 212.747L156.277 213.184C153.267 213.864 150.114 212.845 147.978 210.709C137.253 199.984 158.752 178.483 152.152 171.883L151.862 171.593L144.97 171.883L130.798 186.055C129.487 187.366 129.003 189.404 129.634 191.199L129.391 191.442L122.062 184.113L122.305 183.87C124.149 184.356 126.187 183.87 127.547 182.512L154.482 155.577C155.889 154.17 156.375 152.326 155.744 150.433L156.036 150.141L163.365 157.47L163.073 157.762C161.374 157.131 159.336 157.519 158.025 158.83L146.475 170.38L146.473 170.378Z" fill="black"/>
<path d="M142.092 224.792L141.606 206.738C141.557 204.749 141.314 200.816 139.858 199.36C139.519 199.021 139.227 198.827 138.694 198.972L138.402 198.681L144.759 192.323L145.051 192.615C142.041 200.963 143.158 209.65 143.256 218.386C153.254 206.252 175.287 228.676 182.906 221.055C184.46 219.501 184.993 217.22 184.46 215.133L184.897 214.988C185.577 217.998 184.558 221.151 182.422 223.287C171.697 234.012 150.196 212.513 143.596 219.113L143.306 219.404L143.596 226.295L157.768 240.467C159.079 241.778 161.117 242.262 162.912 241.631L163.155 241.874L155.826 249.203L155.583 248.96C156.069 247.116 155.583 245.078 154.225 243.718L127.29 216.783C125.883 215.376 124.039 214.89 122.146 215.521L121.854 215.23L129.183 207.901L129.475 208.193C128.844 209.892 129.232 211.93 130.543 213.24L142.093 224.791L142.092 224.792Z" fill="black"/>
<path d="M196.506 229.174L178.452 229.66C176.462 229.709 172.53 229.951 171.074 231.407C170.735 231.747 170.541 232.038 170.686 232.572L170.394 232.863L164.037 226.506L164.329 226.214C172.677 229.224 181.364 228.107 190.099 228.01C177.966 218.012 200.389 195.978 192.769 188.359C191.215 186.805 188.934 186.272 186.847 186.805L186.702 186.368C189.711 185.688 192.865 186.707 195.001 188.843C205.726 199.568 184.227 221.069 190.827 227.669L191.117 227.959L198.009 227.669L212.181 213.497C213.492 212.186 213.976 210.148 213.345 208.353L213.588 208.11L220.917 215.439L220.674 215.682C218.83 215.196 216.792 215.682 215.432 217.04L188.497 243.975C187.09 245.382 186.604 247.226 187.235 249.119L186.943 249.411L179.614 242.082L179.906 241.79C181.605 242.421 183.643 242.033 184.954 240.722L196.504 229.172L196.506 229.174Z" fill="black"/>
<path d="M200.887 174.76L201.373 192.814C201.422 194.803 201.665 198.735 203.121 200.191C203.46 200.531 203.752 200.725 204.285 200.58L204.577 200.871L198.22 207.228L197.928 206.937C200.938 198.589 199.821 189.902 199.723 181.166C189.725 193.3 167.691 170.876 160.072 178.497C158.518 180.051 157.985 182.332 158.518 184.419L158.082 184.564C157.402 181.554 158.421 178.401 160.557 176.265C171.282 165.54 192.782 187.039 199.382 180.439L199.673 180.148L199.382 173.256L185.211 159.085C183.9 157.774 181.862 157.29 180.066 157.921L179.824 157.678L187.152 150.349L187.395 150.592C186.909 152.436 187.395 154.474 188.753 155.834L215.688 182.769C217.096 184.176 218.94 184.661 220.833 184.03L221.124 184.322L213.796 191.651L213.504 191.359C214.135 189.66 213.747 187.622 212.436 186.311L200.886 174.761L200.887 174.76Z" fill="black"/>
<path d="M268.328 170.378L286.382 169.892C288.371 169.843 292.304 169.6 293.76 168.144C294.099 167.805 294.293 167.514 294.148 166.98L294.439 166.688L300.797 173.046L300.505 173.337C292.157 170.328 283.47 171.445 274.734 171.542C286.868 181.54 264.444 203.574 272.065 211.193C273.619 212.747 275.9 213.28 277.987 212.747L278.132 213.184C275.122 213.864 271.969 212.845 269.833 210.709C259.108 199.984 280.607 178.483 274.007 171.883L273.716 171.593L266.825 171.883L252.653 186.055C251.342 187.366 250.858 189.404 251.489 191.199L251.246 191.442L243.917 184.113L244.16 183.87C246.004 184.356 248.042 183.87 249.402 182.512L276.337 155.577C277.744 154.17 278.23 152.326 277.599 150.433L277.89 150.141L285.219 157.47L284.927 157.762C283.228 157.131 281.19 157.519 279.88 158.83L268.329 170.38L268.328 170.378Z" fill="black"/>
<path d="M263.946 224.792L263.46 206.738C263.411 204.749 263.168 200.816 261.712 199.36C261.373 199.021 261.082 198.827 260.548 198.972L260.257 198.68L266.614 192.323L266.905 192.615C263.896 200.963 265.013 209.65 265.11 218.386C275.108 206.252 297.142 228.676 304.761 221.055C306.315 219.501 306.848 217.22 306.315 215.133L306.752 214.988C307.432 217.998 306.413 221.151 304.277 223.287C293.552 234.012 272.051 212.513 265.451 219.113L265.161 219.403L265.451 226.295L279.623 240.467C280.934 241.778 282.972 242.262 284.767 241.631L285.01 241.874L277.681 249.203L277.438 248.96C277.924 247.116 277.438 245.078 276.08 243.718L249.145 216.783C247.738 215.376 245.894 214.89 244.001 215.521L243.709 215.229L251.038 207.901L251.33 208.192C250.699 209.891 251.087 211.929 252.398 213.24L263.948 224.79L263.946 224.792Z" fill="black"/>
<path d="M318.36 229.174L300.306 229.659C298.317 229.708 294.384 229.951 292.928 231.407C292.589 231.746 292.395 232.038 292.54 232.571L292.249 232.863L285.891 226.506L286.183 226.214C294.531 229.224 303.218 228.107 311.954 228.009C299.82 218.012 322.244 195.978 314.623 188.359C313.069 186.805 310.788 186.272 308.701 186.805L308.556 186.368C311.566 185.688 314.719 186.707 316.855 188.843C327.58 199.568 306.081 221.069 312.681 227.669L312.972 227.959L319.863 227.669L334.035 213.497C335.346 212.186 335.83 210.148 335.199 208.353L335.442 208.11L342.771 215.439L342.528 215.682C340.684 215.196 338.646 215.682 337.286 217.04L310.351 243.975C308.944 245.382 308.459 247.226 309.089 249.119L308.798 249.411L301.469 242.082L301.761 241.79C303.46 242.421 305.498 242.033 306.808 240.722L318.359 229.172L318.36 229.174Z" fill="black"/>
<path d="M322.742 174.76L323.228 192.814C323.277 194.803 323.519 198.735 324.975 200.191C325.315 200.53 325.606 200.724 326.14 200.579L326.431 200.871L320.074 207.228L319.783 206.936C322.792 198.589 321.675 189.902 321.578 181.166C311.58 193.299 289.546 170.876 281.927 178.497C280.373 180.05 279.84 182.331 280.373 184.418L279.936 184.564C279.256 181.554 280.275 178.4 282.411 176.265C293.136 165.539 314.637 187.039 321.237 180.438L321.527 180.148L321.237 173.256L307.065 159.085C305.754 157.774 303.716 157.289 301.921 157.92L301.678 157.677L309.007 150.349L309.25 150.592C308.764 152.436 309.25 154.474 310.608 155.833L337.543 182.768C338.95 184.175 340.794 184.661 342.687 184.03L342.979 184.322L335.65 191.651L335.358 191.359C335.989 189.66 335.601 187.622 334.29 186.311L322.74 174.761L322.742 174.76Z" fill="black"/>
<path d="M390.182 170.378L408.236 169.892C410.225 169.844 414.158 169.601 415.614 168.145C415.953 167.805 416.147 167.514 416.002 166.98L416.294 166.689L422.651 173.046L422.359 173.338C414.011 170.328 405.324 171.445 396.588 171.542C408.722 181.54 386.299 203.574 393.919 211.193C395.473 212.747 397.754 213.28 399.841 212.747L399.986 213.184C396.976 213.864 393.823 212.845 391.687 210.709C380.962 199.984 402.461 178.483 395.861 171.883L395.571 171.593L388.679 171.883L374.507 186.055C373.196 187.366 372.712 189.404 373.343 191.199L373.1 191.442L365.771 184.113L366.014 183.87C367.858 184.356 369.896 183.87 371.256 182.512L398.191 155.577C399.598 154.17 400.084 152.326 399.453 150.433L399.745 150.141L407.074 157.47L406.782 157.762C405.083 157.131 403.045 157.519 401.734 158.83L390.184 170.38L390.182 170.378Z" fill="black"/>
<path d="M385.8 224.792L385.315 206.738C385.266 204.749 385.023 200.816 383.567 199.36C383.228 199.021 382.936 198.827 382.403 198.972L382.111 198.681L388.468 192.323L388.76 192.615C385.75 200.963 386.867 209.65 386.965 218.386C396.962 206.252 418.996 228.676 426.615 221.055C428.169 219.501 428.702 217.22 428.169 215.133L428.606 214.988C429.286 217.998 428.267 221.151 426.131 223.287C415.406 234.012 393.905 212.513 387.305 219.113L387.015 219.404L387.305 226.295L401.477 240.467C402.788 241.778 404.826 242.262 406.621 241.631L406.864 241.874L399.535 249.203L399.292 248.96C399.778 247.116 399.292 245.078 397.934 243.718L370.999 216.783C369.592 215.376 367.748 214.89 365.855 215.521L365.563 215.23L372.892 207.901L373.184 208.193C372.553 209.892 372.941 211.93 374.252 213.24L385.802 224.791L385.8 224.792Z" fill="black"/>
<path d="M440.214 229.174L422.161 229.66C420.171 229.709 416.239 229.951 414.783 231.407C414.444 231.747 414.25 232.038 414.395 232.572L414.103 232.863L407.746 226.506L408.038 226.214C416.385 229.224 425.072 228.107 433.808 228.01C421.675 218.012 444.098 195.978 436.477 188.359C434.924 186.805 432.643 186.272 430.556 186.805L430.411 186.368C433.42 185.688 436.574 186.707 438.71 188.843C449.435 199.568 427.936 221.069 434.536 227.669L434.826 227.959L441.718 227.669L455.89 213.497C457.2 212.186 457.685 210.148 457.054 208.353L457.297 208.11L464.625 215.439L464.383 215.682C462.539 215.196 460.5 215.682 459.141 217.04L432.206 243.975C430.799 245.382 430.313 247.226 430.944 249.119L430.652 249.411L423.323 242.082L423.615 241.79C425.314 242.421 427.352 242.033 428.663 240.722L440.213 229.172L440.214 229.174Z" fill="black"/>
<path d="M444.596 174.76L445.082 192.814C445.131 194.803 445.374 198.735 446.83 200.191C447.169 200.531 447.461 200.725 447.994 200.579L448.286 200.871L441.929 207.228L441.637 206.937C444.647 198.589 443.53 189.902 443.432 181.166C433.434 193.3 411.4 170.876 403.781 178.497C402.227 180.051 401.694 182.332 402.227 184.418L401.79 184.564C401.111 181.554 402.13 178.4 404.265 176.265C414.991 165.54 436.491 187.039 443.091 180.439L443.382 180.148L443.091 173.256L428.919 159.085C427.609 157.774 425.571 157.289 423.775 157.92L423.532 157.678L430.861 150.349L431.104 150.592C430.618 152.436 431.104 154.474 432.462 155.833L459.397 182.768C460.805 184.176 462.649 184.661 464.541 184.03L464.833 184.322L457.504 191.651L457.213 191.359C457.844 189.66 457.456 187.622 456.145 186.311L444.595 174.761L444.596 174.76Z" fill="black"/>
<path d="M512.037 170.378L530.09 169.892C532.08 169.843 536.012 169.6 537.468 168.144C537.807 167.805 538.001 167.514 537.856 166.98L538.148 166.688L544.505 173.046L544.213 173.337C535.866 170.328 527.179 171.445 518.443 171.542C530.576 181.54 508.153 203.574 515.774 211.193C517.327 212.747 519.608 213.28 521.695 212.747L521.84 213.184C518.831 213.864 515.677 212.845 513.541 210.709C502.816 199.984 524.315 178.483 517.715 171.883L517.425 171.593L510.533 171.883L496.361 186.055C495.051 187.366 494.566 189.404 495.197 191.199L494.954 191.442L487.625 184.113L487.868 183.87C489.712 184.356 491.751 183.87 493.11 182.512L520.045 155.577C521.452 154.17 521.938 152.326 521.307 150.433L521.599 150.141L528.928 157.47L528.636 157.762C526.937 157.131 524.899 157.519 523.588 158.83L512.038 170.38L512.037 170.378Z" fill="black"/>
<path d="M507.655 224.792L507.169 206.738C507.12 204.749 506.877 200.816 505.421 199.36C505.082 199.021 504.79 198.827 504.257 198.972L503.965 198.68L510.322 192.323L510.614 192.615C507.604 200.963 508.721 209.65 508.819 218.386C518.817 206.252 540.851 228.676 548.47 221.055C550.023 219.501 550.557 217.22 550.023 215.133L550.46 214.988C551.14 217.998 550.121 221.151 547.985 223.287C537.26 234.012 515.76 212.513 509.16 219.113L508.869 219.403L509.16 226.295L523.331 240.467C524.642 241.778 526.68 242.262 528.475 241.631L528.718 241.874L521.39 249.203L521.147 248.96C521.633 247.116 521.147 245.078 519.788 243.718L492.853 216.783C491.446 215.376 489.602 214.89 487.709 215.521L487.418 215.229L494.746 207.901L495.038 208.192C494.407 209.891 494.795 211.929 496.106 213.24L507.656 224.79L507.655 224.792Z" fill="black"/>
<path d="M562.069 229.174L544.015 229.659C542.026 229.708 538.093 229.951 536.637 231.407C536.298 231.746 536.104 232.038 536.249 232.571L535.957 232.863L529.6 226.506L529.892 226.214C538.24 229.224 546.927 228.107 555.663 228.009C543.529 218.012 565.952 195.978 558.332 188.359C556.778 186.805 554.497 186.272 552.41 186.805L552.265 186.368C555.275 185.688 558.428 186.707 560.564 188.843C571.289 199.568 549.79 221.069 556.39 227.669L556.68 227.959L563.572 227.669L577.744 213.497C579.055 212.186 579.539 210.148 578.908 208.353L579.151 208.11L586.48 215.439L586.237 215.682C584.393 215.196 582.355 215.682 580.995 217.04L554.06 243.975C552.653 245.382 552.167 247.226 552.798 249.119L552.506 249.411L545.177 242.082L545.469 241.79C547.168 242.421 549.206 242.033 550.517 240.722L562.067 229.172L562.069 229.174Z" fill="black"/>
<path d="M566.45 174.76L566.936 192.814C566.985 194.803 567.228 198.735 568.684 200.191C569.023 200.53 569.315 200.724 569.848 200.579L570.14 200.871L563.783 207.228L563.491 206.936C566.501 198.589 565.384 189.902 565.286 181.166C555.288 193.299 533.255 170.876 525.635 178.497C524.082 180.05 523.548 182.331 524.082 184.418L523.645 184.564C522.965 181.554 523.984 178.4 526.12 176.265C536.845 165.539 558.345 187.039 564.946 180.438L565.236 180.148L564.946 173.256L550.774 159.085C549.463 157.774 547.425 157.289 545.63 157.92L545.387 157.677L552.716 150.349L552.959 150.592C552.473 152.436 552.959 154.474 554.317 155.833L581.252 182.768C582.659 184.175 584.503 184.661 586.396 184.03L586.688 184.322L579.359 191.651L579.067 191.359C579.698 189.66 579.31 187.622 577.999 186.311L566.449 174.761L566.45 174.76Z" fill="black"/>
<path d="M633.891 170.378L651.945 169.893C653.934 169.844 657.867 169.601 659.323 168.145C659.662 167.806 659.856 167.514 659.711 166.981L660.003 166.689L666.36 173.046L666.068 173.338C657.72 170.328 649.033 171.445 640.297 171.543C652.431 181.54 630.007 203.574 637.628 211.193C639.182 212.747 641.463 213.28 643.55 212.747L643.695 213.184C640.685 213.864 637.532 212.845 635.396 210.709C624.671 199.984 646.17 178.483 639.57 171.883L639.28 171.593L632.388 171.883L618.216 186.055C616.905 187.366 616.421 189.404 617.052 191.199L616.809 191.442L609.48 184.113L609.723 183.87C611.567 184.356 613.605 183.87 614.965 182.512L641.9 155.577C643.307 154.17 643.793 152.326 643.162 150.433L643.454 150.141L650.782 157.47L650.491 157.762C648.792 157.131 646.754 157.519 645.443 158.83L633.893 170.38L633.891 170.378Z" fill="black"/>
<path d="M629.509 224.792L629.023 206.738C628.974 204.749 628.731 200.816 627.275 199.36C626.936 199.021 626.644 198.827 626.111 198.972L625.819 198.681L632.176 192.323L632.468 192.615C629.458 200.963 630.575 209.65 630.673 218.386C640.671 206.252 662.705 228.676 670.324 221.055C671.878 219.501 672.411 217.22 671.878 215.133L672.315 214.988C672.994 217.998 671.975 221.151 669.84 223.287C659.114 234.012 637.614 212.513 631.014 219.113L630.723 219.404L631.014 226.295L645.186 240.467C646.496 241.778 648.534 242.262 650.33 241.631L650.573 241.874L643.244 249.203L643.001 248.96C643.487 247.116 643.001 245.078 641.643 243.718L614.708 216.783C613.3 215.376 611.456 214.89 609.564 215.521L609.272 215.23L616.601 207.901L616.892 208.193C616.261 209.892 616.649 211.93 617.96 213.24L629.51 224.791L629.509 224.792Z" fill="black"/>
<path d="M683.923 229.174L665.869 229.66C663.88 229.709 659.947 229.951 658.491 231.407C658.152 231.747 657.958 232.038 658.103 232.572L657.811 232.863L651.454 226.506L651.746 226.214C660.094 229.224 668.781 228.107 677.517 228.01C665.383 218.012 687.806 195.978 680.186 188.359C678.632 186.805 676.351 186.272 674.264 186.805L674.119 186.368C677.129 185.688 680.282 186.707 682.418 188.843C693.143 199.568 671.644 221.069 678.244 227.669L678.534 227.959L685.426 227.669L699.598 213.497C700.909 212.186 701.393 210.148 700.762 208.353L701.005 208.11L708.334 215.439L708.091 215.682C706.247 215.196 704.209 215.682 702.849 217.04L675.914 243.975C674.507 245.382 674.021 247.226 674.652 249.119L674.36 249.411L667.032 242.082L667.323 241.79C669.022 242.421 671.06 242.033 672.371 240.722L683.921 229.172L683.923 229.174Z" fill="black"/>
<path d="M688.305 174.76L688.79 192.814C688.839 194.803 689.082 198.735 690.538 200.191C690.877 200.531 691.169 200.725 691.702 200.579L691.994 200.871L685.637 207.228L685.345 206.937C688.355 198.589 687.238 189.902 687.14 181.166C677.142 193.3 655.109 170.876 647.49 178.497C645.936 180.051 645.403 182.332 645.936 184.418L645.499 184.564C644.819 181.554 645.838 178.4 647.974 176.265C658.699 165.54 680.2 187.039 686.8 180.439L687.09 180.148L686.8 173.256L672.628 159.085C671.317 157.774 669.279 157.289 667.484 157.92L667.241 157.678L674.57 150.349L674.813 150.592C674.327 152.436 674.813 154.474 676.171 155.833L703.106 182.768C704.513 184.176 706.357 184.661 708.25 184.03L708.542 184.322L701.213 191.651L700.921 191.359C701.552 189.66 701.164 187.622 699.853 186.311L688.303 174.761L688.305 174.76Z" fill="black"/>
<path d="M755.745 170.378L773.799 169.892C775.788 169.844 779.721 169.601 781.177 168.145C781.516 167.806 781.71 167.514 781.565 166.981L781.857 166.689L788.214 173.046L787.922 173.338C779.574 170.328 770.887 171.445 762.151 171.542C774.285 181.54 751.861 203.574 759.482 211.193C761.036 212.747 763.317 213.28 765.404 212.747L765.549 213.184C762.539 213.864 759.386 212.845 757.25 210.709C746.525 199.984 768.024 178.483 761.424 171.883L761.134 171.593L754.242 171.883L740.07 186.055C738.759 187.366 738.275 189.404 738.906 191.199L738.663 191.442L731.334 184.113L731.577 183.87C733.421 184.356 735.459 183.87 736.819 182.512L763.754 155.577C765.161 154.17 765.647 152.326 765.016 150.433L765.308 150.141L772.636 157.47L772.345 157.762C770.646 157.131 768.608 157.519 767.297 158.83L755.747 170.38L755.745 170.378Z" fill="black"/>
<path d="M751.364 224.792L750.878 206.738C750.829 204.749 750.586 200.816 749.13 199.36C748.791 199.021 748.499 198.827 747.966 198.972L747.674 198.681L754.031 192.323L754.323 192.615C751.313 200.963 752.43 209.65 752.528 218.386C762.526 206.252 784.56 228.676 792.179 221.055C793.732 219.501 794.266 217.22 793.732 215.133L794.169 214.988C794.849 217.998 793.83 221.151 791.694 223.287C780.969 234.012 759.469 212.513 752.869 219.113L752.578 219.404L752.869 226.295L767.04 240.467C768.351 241.778 770.389 242.262 772.184 241.631L772.427 241.874L765.099 249.203L764.856 248.96C765.341 247.116 764.856 245.078 763.497 243.718L736.562 216.783C735.155 215.376 733.311 214.89 731.418 215.521L731.127 215.23L738.455 207.901L738.747 208.193C738.116 209.892 738.504 211.93 739.815 213.24L751.365 224.791L751.364 224.792Z" fill="black"/>
<path d="M805.777 229.174L787.723 229.66C785.734 229.709 781.802 229.951 780.346 231.407C780.006 231.747 779.812 232.038 779.958 232.572L779.666 232.863L773.309 226.506L773.6 226.215C781.948 229.224 790.635 228.107 799.371 228.01C787.238 218.012 809.661 195.978 802.04 188.359C800.487 186.805 798.206 186.272 796.119 186.805L795.973 186.368C798.983 185.688 802.137 186.707 804.272 188.843C814.998 199.568 793.498 221.069 800.098 227.669L800.389 227.959L807.281 227.669L821.452 213.497C822.763 212.186 823.248 210.148 822.617 208.353L822.86 208.11L830.188 215.439L829.945 215.682C828.101 215.196 826.063 215.682 824.704 217.04L797.769 243.975C796.362 245.382 795.876 247.226 796.507 249.119L796.215 249.411L788.886 242.082L789.178 241.79C790.877 242.421 792.915 242.033 794.226 240.722L805.776 229.172L805.777 229.174Z" fill="black"/>
<path d="M810.159 174.76L810.645 192.814C810.694 194.803 810.937 198.735 812.393 200.191C812.732 200.531 813.024 200.725 813.557 200.579L813.849 200.871L807.491 207.228L807.2 206.937C810.209 198.589 809.093 189.902 808.995 181.166C798.997 193.3 776.963 170.876 769.344 178.497C767.79 180.051 767.257 182.332 767.79 184.418L767.353 184.564C766.673 181.554 767.692 178.401 769.828 176.265C780.553 165.54 802.054 187.039 808.654 180.439L808.944 180.148L808.654 173.256L794.482 159.085C793.171 157.774 791.133 157.289 789.338 157.92L789.095 157.678L796.424 150.349L796.667 150.592C796.181 152.436 796.667 154.474 798.025 155.834L824.96 182.768C826.367 184.176 828.211 184.661 830.104 184.03L830.396 184.322L823.067 191.651L822.775 191.359C823.406 189.66 823.018 187.622 821.708 186.311L810.157 174.761L810.159 174.76Z" fill="black"/>
<path d="M24.6185 20.2373L42.6725 19.7515C44.6616 19.7026 48.5942 19.4596 50.0502 18.0037C50.3893 17.6645 50.5834 17.3727 50.4382 16.8395L50.73 16.5477L57.0872 22.9048L56.7954 23.1966C48.4475 20.1869 39.7605 21.3037 31.0246 21.4015C43.1583 31.3993 20.7349 53.4332 28.3555 61.0523C29.9093 62.606 32.1903 63.1392 34.2772 62.606L34.4224 63.043C31.4126 63.7229 28.2593 62.7038 26.1234 60.568C15.3983 49.8429 36.8974 28.3422 30.2973 21.7422L30.007 21.4519L23.1152 21.7422L8.94338 35.914C7.63253 37.2248 7.14822 39.2629 7.7792 41.058L7.53628 41.301L0.207458 33.9721L0.450377 33.7292C2.29442 34.2151 4.3325 33.7292 5.69223 32.371L32.6272 5.43604C34.0343 4.02894 34.5201 2.1849 33.8892 0.291963L34.181 0.000149911L41.5098 7.32898L41.218 7.62078C39.5191 6.9898 37.481 7.37786 36.1702 8.68871L24.6201 20.2388L24.6185 20.2373Z" fill="black"/>
<path d="M20.2371 74.6511L19.7513 56.5972C19.7024 54.608 19.4595 50.6755 18.0035 49.2195C17.6643 48.8803 17.3725 48.6863 16.8393 48.8314L16.5475 48.5396L22.9047 42.1824L23.1965 42.4743C20.1867 50.8221 21.3035 59.5092 21.4013 68.2451C31.3992 56.1113 53.433 78.5347 61.0521 70.9141C62.6059 69.3604 63.1391 67.0794 62.6059 64.9924L63.0428 64.8473C63.7227 67.857 62.7037 71.0104 60.5678 73.1462C49.8427 83.8713 28.3421 62.3722 21.742 68.9723L21.4517 69.2626L21.742 76.1544L35.9138 90.3262C37.2247 91.6371 39.2627 92.1214 41.0579 91.4904L41.3008 91.7334L33.972 99.0622L33.7291 98.8193C34.2149 96.9752 33.7291 94.9371 32.3709 93.5774L5.43589 66.6424C4.02879 65.2353 2.18474 64.7495 0.291809 65.3805L0 65.0886L7.32882 57.7598L7.62063 58.0516C6.98965 59.7505 7.37771 61.7886 8.68856 63.0995L20.2387 74.6496L20.2371 74.6511Z" fill="black"/>
<path d="M74.6507 79.0328L56.5968 79.5187C54.6076 79.5675 50.6751 79.8105 49.2191 81.2665C48.8799 81.6056 48.6859 81.8974 48.831 82.4306L48.5392 82.7225L42.1821 76.3653L42.4739 76.0735C50.8217 79.0832 59.5088 77.9664 68.2447 77.8687C56.111 67.8708 78.5344 45.837 70.9137 38.2179C69.36 36.6641 67.079 36.1309 64.992 36.6641L64.8469 36.2271C67.8566 35.5473 71.01 36.5663 73.1458 38.7022C83.8709 49.4273 62.3718 70.9279 68.9719 77.528L69.2622 77.8182L76.1541 77.528L90.3259 63.3562C91.6367 62.0453 92.121 60.0072 91.49 58.2121L91.733 57.9692L99.0618 65.298L98.8189 65.5409C96.9748 65.055 94.9367 65.5409 93.577 66.8991L66.642 93.8341C65.2349 95.2412 64.7491 97.0852 65.3801 98.9782L65.0883 99.27L57.7594 91.9412L58.0512 91.6493C59.7502 92.2803 61.7882 91.8923 63.0991 90.5814L74.6492 79.0313L74.6507 79.0328Z" fill="black"/>
<path d="M79.0328 24.6188L79.5186 42.6727C79.5675 44.6619 79.8104 48.5945 81.2664 50.0504C81.6056 50.3896 81.8974 50.5836 82.4306 50.4385L82.7224 50.7303L76.3653 57.0875L76.0735 56.7956C79.0832 48.4478 77.9664 39.7608 77.8686 31.0249C67.8707 43.1586 45.8369 20.7352 38.2178 28.3558C36.664 29.9096 36.1309 32.1905 36.6641 34.2775L36.2271 34.4227C35.5472 31.4129 36.5663 28.2595 38.7021 26.1237C49.4272 15.3986 70.9278 36.8977 77.5279 30.2976L77.8182 30.0073L77.5279 23.1155L63.3561 8.94367C62.0453 7.63282 60.0072 7.14851 58.212 7.77949L57.9691 7.53657L65.2979 0.207751L65.5409 0.450665C65.055 2.29471 65.5409 4.33279 66.8991 5.69252L93.834 32.6275C95.2411 34.0346 97.0852 34.5204 98.9781 33.8895L99.2699 34.1813L91.9411 41.5101L91.6493 41.2183C92.2803 39.5194 91.8922 37.4813 90.5814 36.1704L79.0313 24.6203L79.0328 24.6188Z" fill="black"/>
<path d="M146.474 20.2374L164.528 19.7516C166.517 19.7027 170.449 19.4598 171.905 18.0038C172.244 17.6646 172.439 17.3728 172.293 16.8396L172.585 16.5478L178.942 22.905L178.651 23.1968C170.303 20.187 161.616 21.3038 152.88 21.4016C165.013 31.3995 142.59 53.4333 150.211 61.0524C151.764 62.6062 154.045 63.1394 156.132 62.6062L156.278 63.0431C153.268 63.723 150.114 62.704 147.979 60.5681C137.253 49.843 158.753 28.3424 152.152 21.7423L151.862 21.452L144.97 21.7423L130.799 35.9141C129.488 37.225 129.003 39.263 129.634 41.0582L129.391 41.3011L122.063 33.9723L122.306 33.7294C124.15 34.2152 126.188 33.7294 127.547 32.3712L154.482 5.43617C155.889 4.02907 156.375 2.18503 155.744 0.292095L156.036 0.000281886L163.365 7.32911L163.073 7.62091C161.374 6.98993 159.336 7.37799 158.025 8.68884L146.475 20.239L146.474 20.2374Z" fill="black"/>
<path d="M142.091 74.6511L141.606 56.5972C141.557 54.608 141.314 50.6755 139.858 49.2195C139.519 48.8803 139.227 48.6863 138.694 48.8314L138.402 48.5396L144.759 42.1825L145.051 42.4743C142.041 50.8221 143.158 59.5092 143.256 68.2451C153.254 56.1114 175.287 78.5348 182.906 70.9141C184.46 69.3604 184.993 67.0794 184.46 64.9924L184.897 64.8473C185.577 67.857 184.558 71.0104 182.422 73.1462C171.697 83.8713 150.196 62.3722 143.596 68.9723L143.306 69.2626L143.596 76.1544L157.768 90.3263C159.079 91.6371 161.117 92.1214 162.912 91.4904L163.155 91.7334L155.826 99.0622L155.583 98.8193C156.069 96.9752 155.583 94.9371 154.225 93.5774L127.29 66.6424C125.883 65.2353 124.039 64.7495 122.146 65.3805L121.854 65.0887L129.183 57.7598L129.475 58.0516C128.844 59.7505 129.232 61.7886 130.543 63.0995L142.093 74.6496L142.091 74.6511Z" fill="black"/>
<path d="M196.505 79.0328L178.452 79.5187C176.462 79.5676 172.53 79.8105 171.074 81.2665C170.735 81.6056 170.541 81.8974 170.686 82.4306L170.394 82.7225L164.037 76.3653L164.329 76.0735C172.676 79.0833 181.364 77.9664 190.099 77.8687C177.966 67.8708 200.389 45.837 192.768 38.2179C191.215 36.6641 188.934 36.1309 186.847 36.6641L186.702 36.2271C189.711 35.5473 192.865 36.5663 195.001 38.7022C205.726 49.4273 184.227 70.9279 190.827 77.528L191.117 77.8182L198.009 77.528L212.181 63.3562C213.491 62.0453 213.976 60.0072 213.345 58.2121L213.588 57.9692L220.917 65.298L220.674 65.5409C218.83 65.0551 216.791 65.5409 215.432 66.8991L188.497 93.8341C187.09 95.2412 186.604 97.0852 187.235 98.9782L186.943 99.27L179.614 91.9412L179.906 91.6493C181.605 92.2803 183.643 91.8923 184.954 90.5814L196.504 79.0313L196.505 79.0328Z" fill="black"/>
<path d="M200.887 24.6188L201.373 42.6728C201.422 44.6619 201.665 48.5945 203.121 50.0504C203.46 50.3896 203.752 50.5837 204.285 50.4385L204.577 50.7303L198.22 57.0875L197.928 56.7957C200.938 48.4478 199.821 39.7608 199.723 31.0249C189.725 43.1586 167.691 20.7352 160.072 28.3558C158.518 29.9096 157.985 32.1906 158.518 34.2775L158.081 34.4227C157.402 31.4129 158.421 28.2595 160.556 26.1237C171.282 15.3986 192.782 36.8977 199.382 30.2976L199.673 30.0073L199.382 23.1155L185.21 8.94367C183.9 7.63283 181.862 7.14852 180.066 7.7795L179.823 7.53657L187.152 0.207758L187.395 0.450672C186.909 2.29472 187.395 4.33279 188.753 5.69253L215.688 32.6275C217.096 34.0346 218.94 34.5204 220.832 33.8895L221.124 34.1813L213.795 41.5101L213.504 41.2183C214.135 39.5194 213.747 37.4813 212.436 36.1705L200.886 24.6203L200.887 24.6188Z" fill="black"/>
<path d="M268.327 20.2374L286.381 19.7515C288.37 19.7026 292.303 19.4597 293.759 18.0037C294.098 17.6646 294.292 17.3728 294.147 16.8396L294.439 16.5477L300.796 22.9049L300.504 23.1967C292.156 20.187 283.469 21.3038 274.733 21.4015C286.867 31.3994 264.444 53.4332 272.064 61.0523C273.618 62.6061 275.899 63.1393 277.986 62.6061L278.131 63.043C275.121 63.7229 271.968 62.7039 269.832 60.568C259.107 49.8429 280.606 28.3423 274.006 21.7422L273.716 21.452L266.824 21.7422L252.652 35.914C251.341 37.2249 250.857 39.263 251.488 41.0581L251.245 41.301L243.916 33.9722L244.159 33.7293C246.003 34.2151 248.041 33.7293 249.401 32.3711L276.336 5.43611C277.743 4.02901 278.229 2.18497 277.598 0.292032L277.89 0.000217995L285.218 7.32904L284.927 7.62085C283.228 6.98987 281.19 7.37793 279.879 8.68877L268.329 20.2389L268.327 20.2374Z" fill="black"/>
<path d="M263.946 74.6511L263.46 56.5972C263.411 54.608 263.168 50.6755 261.712 49.2195C261.373 48.8803 261.081 48.6863 260.548 48.8314L260.256 48.5396L266.613 42.1825L266.905 42.4743C263.895 50.8222 265.012 59.5092 265.11 68.2451C275.108 56.1114 297.142 78.5348 304.761 70.9142C306.315 69.3604 306.848 67.0794 306.315 64.9924L306.751 64.8473C307.431 67.8571 306.412 71.0104 304.276 73.1463C293.551 83.8714 272.051 62.3723 265.451 68.9723L265.16 69.2626L265.451 76.1545L279.622 90.3263C280.933 91.6371 282.971 92.1214 284.767 91.4905L285.009 91.7334L277.681 99.0622L277.438 98.8193C277.924 96.9753 277.438 94.9372 276.08 93.5774L249.145 66.6425C247.737 65.2354 245.893 64.7495 244 65.3805L243.709 65.0887L251.037 57.7599L251.329 58.0517C250.698 59.7506 251.086 61.7887 252.397 63.0995L263.947 74.6496L263.946 74.6511Z" fill="black"/>
<path d="M318.359 79.0329L300.305 79.5188C298.316 79.5676 294.384 79.8106 292.928 81.2666C292.589 81.6057 292.395 81.8975 292.54 82.4307L292.248 82.7225L285.891 76.3654L286.183 76.0736C294.53 79.0833 303.217 77.9665 311.953 77.8688C299.82 67.8709 322.243 45.837 314.622 38.2179C313.069 36.6642 310.788 36.131 308.701 36.6642L308.556 36.2272C311.565 35.5474 314.719 36.5664 316.855 38.7023C327.58 49.4274 306.081 70.928 312.681 77.5281L312.971 77.8183L319.863 77.5281L334.035 63.3563C335.345 62.0454 335.83 60.0073 335.199 58.2122L335.442 57.9693L342.77 65.2981L342.528 65.541C340.683 65.0551 338.645 65.541 337.286 66.8992L310.351 93.8342C308.944 95.2413 308.458 97.0853 309.089 98.9782L308.797 99.2701L301.468 91.9412L301.76 91.6494C303.459 92.2804 305.497 91.8924 306.808 90.5815L318.358 79.0314L318.359 79.0329Z" fill="black"/>
<path d="M322.741 24.6189L323.227 42.6728C323.276 44.662 323.519 48.5945 324.975 50.0505C325.314 50.3897 325.606 50.5837 326.139 50.4386L326.431 50.7304L320.074 57.0876L319.782 56.7957C322.792 48.4479 321.675 39.7609 321.577 31.0249C311.579 43.1587 289.546 20.7353 281.926 28.3559C280.373 29.9096 279.84 32.1906 280.373 34.2776L279.936 34.4228C279.256 31.413 280.275 28.2596 282.411 26.1238C293.136 15.3987 314.637 36.8978 321.237 30.2977L321.527 30.0074L321.237 23.1156L307.065 8.94376C305.754 7.63291 303.716 7.1486 301.921 7.77958L301.678 7.53666L309.007 0.207844L309.25 0.450758C308.764 2.2948 309.25 4.33288 310.608 5.69261L337.543 32.6276C338.95 34.0347 340.794 34.5205 342.687 33.8896L342.979 34.1814L335.65 41.5102L335.358 41.2184C335.989 39.5195 335.601 37.4814 334.29 36.1705L322.74 24.6204L322.741 24.6189Z" fill="black"/>
<path d="M390.182 20.2373L408.236 19.7515C410.225 19.7026 414.157 19.4597 415.613 18.0037C415.952 17.6645 416.146 17.3727 416.001 16.8395L416.293 16.5477L422.65 22.9048L422.358 23.1966C414.011 20.1869 405.324 21.3037 396.588 21.4015C408.721 31.3994 386.298 53.4332 393.919 61.0523C395.472 62.606 397.753 63.1392 399.84 62.606L399.985 63.043C396.976 63.7229 393.822 62.7038 391.687 60.568C380.961 49.8429 402.461 28.3422 395.86 21.7422L395.57 21.4519L388.678 21.7422L374.506 35.914C373.196 37.2248 372.711 39.2629 373.342 41.0581L373.099 41.301L365.771 33.9721L366.013 33.7292C367.858 34.2151 369.896 33.7292 371.255 32.371L398.19 5.43605C399.597 4.02895 400.083 2.18491 399.452 0.291971L399.744 0.00015696L407.073 7.32898L406.781 7.62079C405.082 6.98981 403.044 7.37787 401.733 8.68871L390.183 20.2388L390.182 20.2373Z" fill="black"/>
<path d="M385.8 74.6511L385.314 56.5972C385.265 54.608 385.022 50.6755 383.566 49.2195C383.227 48.8803 382.935 48.6863 382.402 48.8314L382.11 48.5396L388.467 42.1825L388.759 42.4743C385.749 50.8221 386.866 59.5092 386.964 68.2451C396.962 56.1114 418.996 78.5348 426.615 70.9141C428.169 69.3604 428.702 67.0794 428.169 64.9924L428.606 64.8473C429.285 67.857 428.266 71.0104 426.13 73.1462C415.405 83.8713 393.905 62.3722 387.305 68.9723L387.014 69.2626L387.305 76.1544L401.477 90.3263C402.787 91.6371 404.825 92.1214 406.621 91.4904L406.864 91.7334L399.535 99.0622L399.292 98.8193C399.778 96.9752 399.292 94.9371 397.934 93.5774L370.999 66.6424C369.591 65.2353 367.747 64.7495 365.854 65.3805L365.563 65.0887L372.892 57.7598L373.183 58.0516C372.552 59.7505 372.94 61.7886 374.251 63.0995L385.801 74.6496L385.8 74.6511Z" fill="black"/>
<path d="M440.214 79.0328L422.16 79.5187C420.171 79.5676 416.238 79.8105 414.782 81.2665C414.443 81.6056 414.249 81.8974 414.394 82.4306L414.102 82.7225L407.745 76.3653L408.037 76.0735C416.385 79.0833 425.072 77.9664 433.808 77.8687C421.674 67.8708 444.097 45.837 436.477 38.2179C434.923 36.6641 432.642 36.1309 430.555 36.6641L430.41 36.2271C433.42 35.5473 436.573 36.5663 438.709 38.7022C449.434 49.4273 427.935 70.9279 434.535 77.528L434.825 77.8182L441.717 77.528L455.889 63.3562C457.2 62.0453 457.684 60.0072 457.053 58.2121L457.296 57.9692L464.625 65.298L464.382 65.5409C462.538 65.0551 460.5 65.5409 459.14 66.8991L432.205 93.8341C430.798 95.2412 430.312 97.0852 430.943 98.9782L430.651 99.27L423.323 91.9412L423.614 91.6493C425.313 92.2803 427.351 91.8923 428.662 90.5814L440.212 79.0313L440.214 79.0328Z" fill="black"/>
<path d="M444.596 24.6188L445.081 42.6728C445.13 44.6619 445.373 48.5945 446.829 50.0504C447.168 50.3896 447.46 50.5837 447.993 50.4385L448.285 50.7303L441.928 57.0875L441.636 56.7957C444.646 48.4478 443.529 39.7608 443.431 31.0249C433.433 43.1586 411.4 20.7352 403.781 28.3558C402.227 29.9096 401.694 32.1906 402.227 34.2775L401.79 34.4227C401.11 31.4129 402.129 28.2595 404.265 26.1237C414.99 15.3986 436.491 36.8977 443.091 30.2976L443.381 30.0073L443.091 23.1155L428.919 8.94367C427.608 7.63283 425.57 7.14852 423.775 7.7795L423.532 7.53657L430.861 0.207758L431.104 0.450672C430.618 2.29472 431.104 4.33279 432.462 5.69253L459.397 32.6275C460.804 34.0346 462.648 34.5204 464.541 33.8895L464.833 34.1813L457.504 41.5101L457.212 41.2183C457.843 39.5194 457.455 37.4813 456.144 36.1705L444.594 24.6203L444.596 24.6188Z" fill="black"/>
<path d="M512.036 20.2373L530.09 19.7515C532.08 19.7026 536.012 19.4597 537.468 18.0037C537.807 17.6645 538.001 17.3727 537.856 16.8395L538.148 16.5477L544.505 22.9049L544.213 23.1967C535.865 20.1869 527.178 21.3037 518.443 21.4015C530.576 31.3994 508.153 53.4332 515.773 61.0523C517.327 62.6061 519.608 63.1393 521.695 62.6061L521.84 63.043C518.831 63.7229 515.677 62.7039 513.541 60.568C502.816 49.8429 524.315 28.3423 517.715 21.7422L517.425 21.4519L510.533 21.7422L496.361 35.914C495.05 37.2249 494.566 39.2629 495.197 41.0581L494.954 41.301L487.625 33.9722L487.868 33.7293C489.712 34.2151 491.75 33.7293 493.11 32.3711L520.045 5.43609C521.452 4.02899 521.938 2.18495 521.307 0.292012L521.599 0.000198542L528.928 7.32902L528.636 7.62083C526.937 6.98985 524.899 7.37791 523.588 8.68875L512.038 20.2389L512.036 20.2373Z" fill="black"/>
<path d="M507.655 74.6511L507.169 56.5972C507.12 54.608 506.877 50.6755 505.421 49.2195C505.082 48.8803 504.79 48.6863 504.257 48.8315L503.965 48.5396L510.322 42.1825L510.614 42.4743C507.604 50.8222 508.721 59.5092 508.819 68.2451C518.817 56.1114 540.851 78.5348 548.47 70.9142C550.023 69.3604 550.557 67.0794 550.023 64.9924L550.46 64.8473C551.14 67.8571 550.121 71.0104 547.985 73.1463C537.26 83.8714 515.76 62.3723 509.16 68.9724L508.869 69.2626L509.16 76.1545L523.331 90.3263C524.642 91.6371 526.68 92.1214 528.475 91.4905L528.718 91.7334L521.39 99.0622L521.147 98.8193C521.632 96.9753 521.147 94.9372 519.788 93.5774L492.853 66.6425C491.446 65.2354 489.602 64.7495 487.709 65.3805L487.418 65.0887L494.746 57.7599L495.038 58.0517C494.407 59.7506 494.795 61.7887 496.106 63.0995L507.656 74.6496L507.655 74.6511Z" fill="black"/>
<path d="M562.068 79.0329L544.014 79.5187C542.025 79.5676 538.093 79.8105 536.637 81.2665C536.297 81.6057 536.103 81.8975 536.249 82.4307L535.957 82.7225L529.6 76.3653L529.891 76.0735C538.239 79.0833 546.926 77.9665 555.662 77.8687C543.529 67.8708 565.952 45.837 558.331 38.2179C556.778 36.6641 554.497 36.1309 552.41 36.6641L552.264 36.2272C555.274 35.5473 558.428 36.5664 560.563 38.7022C571.289 49.4273 549.789 70.9279 556.389 77.528L556.68 77.8183L563.572 77.528L577.743 63.3562C579.054 62.0454 579.539 60.0073 578.908 58.2121L579.151 57.9692L586.479 65.298L586.236 65.5409C584.392 65.0551 582.354 65.5409 580.995 66.8991L554.06 93.8341C552.652 95.2412 552.167 97.0853 552.798 98.9782L552.506 99.27L545.177 91.9412L545.469 91.6494C547.168 92.2804 549.206 91.8923 550.517 90.5815L562.067 79.0314L562.068 79.0329Z" fill="black"/>
<path d="M566.45 24.6189L566.936 42.6728C566.985 44.662 567.228 48.5945 568.684 50.0505C569.023 50.3897 569.315 50.5837 569.848 50.4386L570.14 50.7304L563.783 57.0875L563.491 56.7957C566.501 48.4478 565.384 39.7608 565.286 31.0249C555.288 43.1586 533.255 20.7352 525.635 28.3558C524.082 29.9096 523.548 32.1906 524.082 34.2776L523.645 34.4227C522.965 31.413 523.984 28.2596 526.12 26.1237C536.845 15.3986 558.345 36.8977 564.945 30.2977L565.236 30.0074L564.945 23.1155L550.774 8.94372C549.463 7.63287 547.425 7.14856 545.63 7.77954L545.387 7.53662L552.716 0.2078L552.958 0.450714C552.473 2.29476 552.958 4.33283 554.317 5.69257L581.252 32.6276C582.659 34.0347 584.503 34.5205 586.396 33.8895L586.688 34.1813L579.359 41.5101L579.067 41.2183C579.698 39.5194 579.31 37.4813 577.999 36.1705L566.449 24.6204L566.45 24.6189Z" fill="black"/>
<path d="M633.891 20.2372L651.945 19.7514C653.934 19.7025 657.866 19.4596 659.322 18.0036C659.661 17.6644 659.855 17.3726 659.71 16.8394L660.002 16.5476L666.359 22.9048L666.067 23.1966C657.72 20.1868 649.033 21.3036 640.297 21.4014C652.43 31.3993 630.007 53.4331 637.628 61.0522C639.181 62.606 641.462 63.1392 643.549 62.606L643.694 63.0429C640.685 63.7228 637.531 62.7038 635.395 60.5679C624.67 49.8428 646.169 28.3422 639.569 21.7421L639.279 21.4518L632.387 21.7421L618.215 35.9139C616.905 37.2248 616.42 39.2628 617.051 41.058L616.808 41.3009L609.48 33.9721L609.722 33.7292C611.566 34.215 613.605 33.7292 614.964 32.371L641.899 5.43599C643.306 4.02889 643.792 2.18485 643.161 0.291911L643.453 9.72634e-05L650.782 7.32892L650.49 7.62073C648.791 6.98975 646.753 7.37781 645.442 8.68865L633.892 20.2388L633.891 20.2372Z" fill="black"/>
<path d="M629.509 74.651L629.023 56.5971C628.974 54.6079 628.731 50.6754 627.275 49.2194C626.936 48.8802 626.644 48.6862 626.111 48.8313L625.819 48.5395L632.176 42.1824L632.468 42.4742C629.458 50.8221 630.575 59.5091 630.673 68.245C640.671 56.1113 662.705 78.5347 670.324 70.9141C671.878 69.3603 672.411 67.0793 671.878 64.9923L672.314 64.8472C672.994 67.857 671.975 71.0103 669.839 73.1462C659.114 83.8713 637.614 62.3722 631.014 68.9722L630.723 69.2625L631.014 76.1544L645.185 90.3262C646.496 91.637 648.534 92.1213 650.33 91.4904L650.572 91.7333L643.244 99.0621L643.001 98.8192C643.487 96.9752 643.001 94.9371 641.643 93.5773L614.708 66.6424C613.3 65.2353 611.456 64.7494 609.563 65.3804L609.272 65.0886L616.6 57.7598L616.892 58.0516C616.261 59.7505 616.649 61.7886 617.96 63.0994L629.51 74.6495L629.509 74.651Z" fill="black"/>
<path d="M683.923 79.0328L665.869 79.5186C663.88 79.5675 659.947 79.8104 658.491 81.2664C658.152 81.6056 657.958 81.8974 658.103 82.4306L657.811 82.7224L651.454 76.3652L651.746 76.0734C660.094 79.0832 668.781 77.9664 677.517 77.8686C665.383 67.8707 687.806 45.8369 680.186 38.2178C678.632 36.664 676.351 36.1308 674.264 36.664L674.119 36.2271C677.129 35.5472 680.282 36.5663 682.418 38.7021C693.143 49.4272 671.644 70.9278 678.244 77.5279L678.534 77.8182L685.426 77.5279L699.598 63.3561C700.909 62.0453 701.393 60.0072 700.762 58.212L701.005 57.9691L708.334 65.2979L708.091 65.5408C706.247 65.055 704.209 65.5408 702.849 66.899L675.914 93.834C674.507 95.2411 674.021 97.0852 674.652 98.9781L674.36 99.2699L667.032 91.9411L667.323 91.6493C669.022 92.2803 671.06 91.8922 672.371 90.5814L683.921 79.0312L683.923 79.0328Z" fill="black"/>
<path d="M688.304 24.6188L688.79 42.6727C688.839 44.6619 689.082 48.5944 690.538 50.0504C690.877 50.3896 691.169 50.5836 691.702 50.4385L691.994 50.7303L685.637 57.0874L685.345 56.7956C688.355 48.4478 687.238 39.7607 687.14 31.0248C677.142 43.1586 655.109 20.7351 647.489 28.3558C645.936 29.9095 645.403 32.1905 645.936 34.2775L645.499 34.4226C644.819 31.4129 645.838 28.2595 647.974 26.1237C658.699 15.3986 680.2 36.8977 686.8 30.2976L687.09 30.0073L686.8 23.1154L672.628 8.94364C671.317 7.63279 669.279 7.14848 667.484 7.77946L667.241 7.53654L674.57 0.207724L674.813 0.450637C674.327 2.29468 674.813 4.33276 676.171 5.69249L703.106 32.6275C704.513 34.0346 706.357 34.5204 708.25 33.8894L708.542 34.1812L701.213 41.5101L700.921 41.2183C701.552 39.5193 701.164 37.4813 699.853 36.1704L688.303 24.6203L688.304 24.6188Z" fill="black"/>
<path d="M755.745 20.2373L773.799 19.7515C775.788 19.7026 779.721 19.4597 781.177 18.0037C781.516 17.6645 781.71 17.3727 781.565 16.8395L781.857 16.5477L788.214 22.9049L787.922 23.1967C779.574 20.1869 770.887 21.3037 762.151 21.4015C774.285 31.3994 751.861 53.4332 759.482 61.0523C761.036 62.6061 763.317 63.1393 765.404 62.6061L765.549 63.043C762.539 63.7229 759.386 62.7039 757.25 60.568C746.525 49.8429 768.024 28.3423 761.424 21.7422L761.134 21.4519L754.242 21.7422L740.07 35.914C738.759 37.2249 738.275 39.2629 738.906 41.0581L738.663 41.301L731.334 33.9722L731.577 33.7293C733.421 34.2151 735.459 33.7293 736.819 32.3711L763.754 5.43609C765.161 4.02899 765.647 2.18495 765.016 0.292012L765.308 0.000198542L772.636 7.32902L772.345 7.62083C770.646 6.98985 768.608 7.37791 767.297 8.68875L755.747 20.2389L755.745 20.2373Z" fill="black"/>
<path d="M751.363 74.6511L750.877 56.5972C750.829 54.608 750.586 50.6755 749.13 49.2195C748.79 48.8803 748.499 48.6863 747.965 48.8315L747.674 48.5396L754.031 42.1825L754.323 42.4743C751.313 50.8222 752.43 59.5092 752.527 68.2451C762.525 56.1114 784.559 78.5348 792.178 70.9142C793.732 69.3604 794.265 67.0794 793.732 64.9924L794.169 64.8473C794.849 67.8571 793.83 71.0104 791.694 73.1463C780.969 83.8714 759.468 62.3723 752.868 68.9724L752.578 69.2626L752.868 76.1545L767.04 90.3263C768.351 91.6371 770.389 92.1214 772.184 91.4905L772.427 91.7334L765.098 99.0622L764.855 98.8193C765.341 96.9753 764.855 94.9372 763.497 93.5774L736.562 66.6425C735.155 65.2354 733.311 64.7495 731.418 65.3805L731.126 65.0887L738.455 57.7599L738.747 58.0517C738.116 59.7506 738.504 61.7887 739.815 63.0995L751.365 74.6496L751.363 74.6511Z" fill="black"/>
<path d="M805.777 79.0329L787.723 79.5187C785.734 79.5676 781.801 79.8105 780.345 81.2665C780.006 81.6057 779.812 81.8975 779.957 82.4307L779.665 82.7225L773.308 76.3653L773.6 76.0735C781.948 79.0833 790.635 77.9665 799.371 77.8687C787.237 67.8708 809.661 45.837 802.04 38.2179C800.486 36.6641 798.205 36.1309 796.118 36.6641L795.973 36.2272C798.983 35.5473 802.136 36.5664 804.272 38.7022C814.997 49.4273 793.498 70.9279 800.098 77.528L800.388 77.8183L807.28 77.528L821.452 63.3562C822.763 62.0454 823.247 60.0073 822.616 58.2121L822.859 57.9692L830.188 65.298L829.945 65.5409C828.101 65.0551 826.063 65.5409 824.703 66.8991L797.768 93.8341C796.361 95.2412 795.875 97.0853 796.506 98.9782L796.214 99.27L788.886 91.9412L789.177 91.6494C790.876 92.2804 792.914 91.8923 794.225 90.5815L805.775 79.0314L805.777 79.0329Z" fill="black"/>
<path d="M810.159 24.6189L810.645 42.6728C810.694 44.662 810.937 48.5945 812.393 50.0505C812.732 50.3897 813.024 50.5837 813.557 50.4386L813.849 50.7304L807.491 57.0875L807.2 56.7957C810.209 48.4478 809.093 39.7608 808.995 31.0249C798.997 43.1586 776.963 20.7352 769.344 28.3558C767.79 29.9096 767.257 32.1906 767.79 34.2776L767.353 34.4227C766.673 31.413 767.692 28.2596 769.828 26.1237C780.553 15.3986 802.054 36.8977 808.654 30.2977L808.944 30.0074L808.654 23.1155L794.482 8.94372C793.171 7.63287 791.133 7.14856 789.338 7.77954L789.095 7.53662L796.424 0.2078L796.667 0.450714C796.181 2.29476 796.667 4.33283 798.025 5.69257L824.96 32.6276C826.367 34.0347 828.211 34.5205 830.104 33.8895L830.396 34.1813L823.067 41.5101L822.775 41.2183C823.406 39.5194 823.018 37.4813 821.708 36.1705L810.157 24.6204L810.159 24.6189Z" fill="black"/>
<path d="M85.0471 96.4267L103.101 95.9409C105.09 95.892 109.023 95.649 110.479 94.1931C110.818 93.8539 111.012 93.5621 110.867 93.0289L111.159 92.7371L117.516 99.0942L117.224 99.386C108.876 96.3763 100.189 97.4931 91.4531 97.5909C103.587 107.589 81.1635 129.623 88.7841 137.242C90.3379 138.795 92.6189 139.329 94.7058 138.795L94.851 139.232C91.8412 139.912 88.6878 138.893 86.552 136.757C75.8269 126.032 97.326 104.532 90.7259 97.9316L90.4356 97.6413L83.5438 97.9316L69.372 112.103C68.0611 113.414 67.5768 115.452 68.2078 117.247L67.9649 117.49L60.636 110.162L60.879 109.919C62.723 110.404 64.7611 109.919 66.1208 108.56L93.0558 81.6254C94.4629 80.2183 94.9487 78.3743 94.3178 76.4814L94.6096 76.1896L101.938 83.5184L101.647 83.8102C99.9477 83.1792 97.9096 83.5673 96.5988 84.8781L85.0486 96.4282L85.0471 96.4267Z" fill="black"/>
<path d="M80.6653 150.84L80.1795 132.787C80.1306 130.797 79.8877 126.865 78.4317 125.409C78.0925 125.07 77.8007 124.876 77.2675 125.021L76.9757 124.729L83.3328 118.372L83.6246 118.664C80.6149 127.012 81.7317 135.699 81.8295 144.434C91.8274 132.301 113.861 154.724 121.48 147.104C123.034 145.55 123.567 143.269 123.034 141.182L123.471 141.037C124.151 144.046 123.132 147.2 120.996 149.336C110.271 160.061 88.7702 138.562 82.1702 145.162L81.8799 145.452L82.1702 152.344L96.342 166.516C97.6528 167.826 99.6909 168.311 101.486 167.68L101.729 167.923L94.4002 175.252L94.1572 175.009C94.6431 173.165 94.1572 171.127 92.799 169.767L65.864 142.832C64.457 141.425 62.6129 140.939 60.72 141.57L60.4282 141.278L67.757 133.949L68.0488 134.241C67.4178 135.94 67.8059 137.978 69.1167 139.289L80.6668 150.839L80.6653 150.84Z" fill="black"/>
<path d="M135.079 155.222L117.025 155.708C115.036 155.757 111.103 156 109.647 157.456C109.308 157.795 109.114 158.087 109.259 158.62L108.967 158.912L102.61 152.555L102.902 152.263C111.25 155.273 119.937 154.156 128.673 154.058C116.539 144.06 138.963 122.026 131.342 114.407C129.788 112.853 127.507 112.32 125.42 112.853L125.275 112.417C128.285 111.737 131.438 112.756 133.574 114.892C144.299 125.617 122.8 147.117 129.4 153.717L129.69 154.008L136.582 153.717L150.754 139.546C152.065 138.235 152.549 136.197 151.918 134.401L152.161 134.159L159.49 141.487L159.247 141.73C157.403 141.244 155.365 141.73 154.005 143.089L127.07 170.023C125.663 171.431 125.177 173.275 125.808 175.168L125.516 175.459L118.188 168.131L118.479 167.839C120.178 168.47 122.216 168.082 123.527 166.771L135.077 155.221L135.079 155.222Z" fill="black"/>
<path d="M139.461 100.808L139.947 118.862C139.996 120.851 140.239 124.784 141.695 126.24C142.034 126.579 142.326 126.773 142.859 126.628L143.151 126.92L136.793 133.277L136.502 132.985C139.511 124.637 138.395 115.95 138.297 107.214C128.299 119.348 106.265 96.9246 98.646 104.545C97.0922 106.099 96.559 108.38 97.0922 110.467L96.6553 110.612C95.9754 107.602 96.9944 104.449 99.1303 102.313C109.855 91.588 131.356 113.087 137.956 106.487L138.246 106.197L137.956 99.3049L123.784 85.1331C122.473 83.8222 120.435 83.3379 118.64 83.9689L118.397 83.726L125.726 76.3972L125.969 76.6401C125.483 78.4841 125.969 80.5222 127.327 81.8819L154.262 108.817C155.669 110.224 157.513 110.71 159.406 110.079L159.698 110.371L152.369 117.7L152.077 117.408C152.708 115.709 152.32 113.671 151.01 112.36L139.459 100.81L139.461 100.808Z" fill="black"/>
<path d="M206.901 96.4267L224.955 95.9409C226.944 95.892 230.877 95.649 232.333 94.1931C232.672 93.8539 232.866 93.5621 232.721 93.0289L233.013 92.7371L239.37 99.0942L239.078 99.386C230.73 96.3763 222.043 97.4931 213.307 97.5909C225.441 107.589 203.018 129.623 210.638 137.242C212.192 138.795 214.473 139.329 216.56 138.795L216.705 139.232C213.695 139.912 210.542 138.893 208.406 136.757C197.681 126.032 219.18 104.532 212.58 97.9316L212.29 97.6413L205.398 97.9316L191.226 112.103C189.915 113.414 189.431 115.452 190.062 117.247L189.819 117.49L182.49 110.162L182.733 109.919C184.577 110.404 186.615 109.919 187.975 108.56L214.91 81.6254C216.317 80.2183 216.803 78.3743 216.172 76.4814L216.464 76.1896L223.793 83.5184L223.501 83.8102C221.802 83.1792 219.764 83.5673 218.453 84.8781L206.903 96.4282L206.901 96.4267Z" fill="black"/>
<path d="M202.519 150.84L202.034 132.787C201.985 130.797 201.742 126.865 200.286 125.409C199.947 125.07 199.655 124.876 199.122 125.021L198.83 124.729L205.187 118.372L205.479 118.664C202.469 127.012 203.586 135.699 203.684 144.434C213.681 132.301 235.715 154.724 243.334 147.104C244.888 145.55 245.421 143.269 244.888 141.182L245.325 141.037C246.005 144.046 244.986 147.2 242.85 149.336C232.125 160.061 210.624 138.562 204.024 145.162L203.734 145.452L204.024 152.344L218.196 166.516C219.507 167.826 221.545 168.311 223.34 167.68L223.583 167.923L216.254 175.252L216.011 175.009C216.497 173.165 216.011 171.127 214.653 169.767L187.718 142.832C186.311 141.425 184.467 140.939 182.574 141.57L182.282 141.278L189.611 133.949L189.903 134.241C189.272 135.94 189.66 137.978 190.971 139.289L202.521 150.839L202.519 150.84Z" fill="black"/>
<path d="M256.933 155.222L238.88 155.708C236.89 155.757 232.958 156 231.502 157.456C231.163 157.795 230.969 158.087 231.114 158.62L230.822 158.912L224.465 152.555L224.757 152.263C233.104 155.273 241.791 154.156 250.527 154.058C238.394 144.06 260.817 122.026 253.196 114.407C251.643 112.853 249.362 112.32 247.275 112.853L247.13 112.417C250.139 111.737 253.293 112.756 255.429 114.892C266.154 125.617 244.655 147.117 251.255 153.717L251.545 154.008L258.437 153.717L272.609 139.546C273.919 138.235 274.404 136.197 273.773 134.401L274.016 134.159L281.344 141.487L281.102 141.73C279.258 141.244 277.219 141.73 275.86 143.089L248.925 170.023C247.518 171.431 247.032 173.275 247.663 175.168L247.371 175.459L240.042 168.131L240.334 167.839C242.033 168.47 244.071 168.082 245.382 166.771L256.932 155.221L256.933 155.222Z" fill="black"/>
<path d="M261.315 100.808L261.801 118.862C261.85 120.851 262.093 124.784 263.549 126.24C263.888 126.579 264.18 126.773 264.713 126.628L265.005 126.92L258.648 133.277L258.356 132.985C261.366 124.637 260.249 115.95 260.151 107.214C250.153 119.348 228.119 96.9245 220.5 104.545C218.946 106.099 218.413 108.38 218.946 110.467L218.509 110.612C217.83 107.602 218.849 104.449 220.984 102.313C231.71 91.588 253.21 113.087 259.81 106.487L260.101 106.197L259.81 99.3049L245.638 85.133C244.328 83.8222 242.29 83.3379 240.494 83.9689L240.251 83.7259L247.58 76.3971L247.823 76.64C247.337 78.4841 247.823 80.5222 249.181 81.8819L276.116 108.817C277.523 110.224 279.368 110.71 281.26 110.079L281.552 110.371L274.223 117.699L273.932 117.408C274.563 115.709 274.175 113.671 272.864 112.36L261.314 100.81L261.315 100.808Z" fill="black"/>
<path d="M328.756 96.4268L346.809 95.9409C348.799 95.892 352.731 95.6491 354.187 94.1931C354.526 93.854 354.72 93.5621 354.575 93.0289L354.867 92.7371L361.224 99.0943L360.932 99.3861C352.585 96.3763 343.897 97.4932 335.162 97.5909C347.295 107.589 324.872 129.623 332.493 137.242C334.046 138.795 336.327 139.329 338.414 138.795L338.559 139.232C335.55 139.912 332.396 138.893 330.26 136.757C319.535 126.032 341.034 104.532 334.434 97.9316L334.144 97.6414L327.252 97.9316L313.08 112.103C311.77 113.414 311.285 115.452 311.916 117.248L311.673 117.49L304.344 110.162L304.587 109.919C306.431 110.405 308.47 109.919 309.829 108.56L336.764 81.6255C338.171 80.2184 338.657 78.3744 338.026 76.4814L338.318 76.1896L345.647 83.5184L345.355 83.8102C343.656 83.1793 341.618 83.5673 340.307 84.8782L328.757 96.4283L328.756 96.4268Z" fill="black"/>
<path d="M324.374 150.841L323.888 132.787C323.839 130.797 323.596 126.865 322.14 125.409C321.801 125.07 321.509 124.876 320.976 125.021L320.684 124.729L327.041 118.372L327.333 118.664C324.323 127.012 325.44 135.699 325.538 144.435C335.536 132.301 357.57 154.724 365.189 147.104C366.742 145.55 367.276 143.269 366.742 141.182L367.179 141.037C367.859 144.046 366.84 147.2 364.704 149.336C353.979 160.061 332.479 138.562 325.879 145.162L325.588 145.452L325.879 152.344L340.05 166.516C341.361 167.827 343.399 168.311 345.194 167.68L345.437 167.923L338.109 175.252L337.866 175.009C338.352 173.165 337.866 171.127 336.507 169.767L309.572 142.832C308.165 141.425 306.321 140.939 304.428 141.57L304.137 141.278L311.465 133.949L311.757 134.241C311.126 135.94 311.514 137.978 312.825 139.289L324.375 150.839L324.374 150.841Z" fill="black"/>
<path d="M378.787 155.222L360.733 155.708C358.744 155.757 354.812 156 353.356 157.456C353.017 157.795 352.823 158.087 352.968 158.62L352.676 158.912L346.319 152.555L346.611 152.263C354.958 155.273 363.645 154.156 372.381 154.058C360.248 144.06 382.671 122.026 375.05 114.407C373.497 112.854 371.216 112.32 369.129 112.854L368.983 112.417C371.993 111.737 375.147 112.756 377.282 114.892C388.008 125.617 366.508 147.117 373.109 153.717L373.399 154.008L380.291 153.717L394.462 139.546C395.773 138.235 396.258 136.197 395.627 134.402L395.87 134.159L403.198 141.487L402.955 141.73C401.111 141.245 399.073 141.73 397.714 143.089L370.779 170.024C369.372 171.431 368.886 173.275 369.517 175.168L369.225 175.459L361.896 168.131L362.188 167.839C363.887 168.47 365.925 168.082 367.236 166.771L378.786 155.221L378.787 155.222Z" fill="black"/>
<path d="M383.169 100.808L383.655 118.862C383.704 120.851 383.947 124.784 385.403 126.24C385.742 126.579 386.034 126.773 386.567 126.628L386.859 126.92L380.502 133.277L380.21 132.985C383.22 124.637 382.103 115.95 382.005 107.214C372.007 119.348 349.974 96.9246 342.354 104.545C340.801 106.099 340.267 108.38 340.801 110.467L340.364 110.612C339.684 107.602 340.703 104.449 342.839 102.313C353.564 91.588 375.064 113.087 381.665 106.487L381.955 106.197L381.665 99.3049L367.493 85.1331C366.182 83.8223 364.144 83.3379 362.349 83.9689L362.106 83.726L369.435 76.3972L369.677 76.6401C369.192 78.4841 369.677 80.5222 371.036 81.882L397.971 108.817C399.378 110.224 401.222 110.71 403.115 110.079L403.407 110.371L396.078 117.7L395.786 117.408C396.417 115.709 396.029 113.671 394.718 112.36L383.168 100.81L383.169 100.808Z" fill="black"/>
<path d="M450.609 96.4269L468.663 95.9411C470.653 95.8922 474.585 95.6493 476.041 94.1933C476.38 93.8541 476.574 93.5623 476.429 93.0291L476.721 92.7373L483.078 99.0945L482.786 99.3863C474.438 96.3765 465.751 97.4933 457.015 97.5911C469.149 107.589 446.726 129.623 454.346 137.242C455.9 138.796 458.181 139.329 460.268 138.796L460.413 139.233C457.404 139.913 454.25 138.893 452.114 136.758C441.389 126.033 462.888 104.532 456.288 97.9318L455.998 97.6415L449.106 97.9318L434.934 112.104C433.623 113.414 433.139 115.453 433.77 117.248L433.527 117.491L426.198 110.162L426.441 109.919C428.285 110.405 430.323 109.919 431.683 108.561L458.618 81.6257C460.025 80.2186 460.511 78.3746 459.88 76.4816L460.172 76.1898L467.501 83.5186L467.209 83.8104C465.51 83.1795 463.472 83.5675 462.161 84.8784L450.611 96.4285L450.609 96.4269Z" fill="black"/>
<path d="M446.228 150.841L445.742 132.787C445.693 130.798 445.45 126.865 443.994 125.409C443.655 125.07 443.363 124.876 442.83 125.021L442.538 124.729L448.896 118.372L449.187 118.664C446.178 127.012 447.294 135.699 447.392 144.435C457.39 132.301 479.424 154.724 487.043 147.104C488.597 145.55 489.13 143.269 488.597 141.182L489.034 141.037C489.714 144.047 488.695 147.2 486.559 149.336C475.834 160.061 454.333 138.562 447.733 145.162L447.443 145.452L447.733 152.344L461.905 166.516C463.216 167.827 465.254 168.311 467.049 167.68L467.292 167.923L459.963 175.252L459.72 175.009C460.206 173.165 459.72 171.127 458.362 169.767L431.427 142.832C430.02 141.425 428.176 140.939 426.283 141.57L425.991 141.278L433.32 133.949L433.612 134.241C432.981 135.94 433.369 137.978 434.679 139.289L446.23 150.839L446.228 150.841Z" fill="black"/>
<path d="M500.642 155.222L482.588 155.708C480.599 155.757 476.666 156 475.21 157.456C474.871 157.795 474.677 158.087 474.822 158.62L474.53 158.912L468.173 152.555L468.465 152.263C476.813 155.273 485.5 154.156 494.236 154.058C482.102 144.06 504.525 122.027 496.905 114.408C495.351 112.854 493.07 112.321 490.983 112.854L490.838 112.417C493.848 111.737 497.001 112.756 499.137 114.892C509.862 125.617 488.363 147.118 494.963 153.718L495.253 154.008L502.145 153.718L516.317 139.546C517.628 138.235 518.112 136.197 517.481 134.402L517.724 134.159L525.053 141.488L524.81 141.731C522.966 141.245 520.928 141.731 519.568 143.089L492.633 170.024C491.226 171.431 490.74 173.275 491.371 175.168L491.079 175.46L483.75 168.131L484.042 167.839C485.741 168.47 487.779 168.082 489.09 166.771L500.64 155.221L500.642 155.222Z" fill="black"/>
<path d="M505.024 100.808L505.51 118.862C505.558 120.852 505.801 124.784 507.257 126.24C507.597 126.579 507.888 126.773 508.422 126.628L508.713 126.92L502.356 133.277L502.064 132.985C505.074 124.637 503.957 115.95 503.86 107.214C493.862 119.348 471.828 96.9248 464.209 104.545C462.655 106.099 462.122 108.38 462.655 110.467L462.218 110.612C461.538 107.603 462.557 104.449 464.693 102.313C475.418 91.5882 496.919 113.087 503.519 106.487L503.809 106.197L503.519 99.3051L489.347 85.1333C488.036 83.8224 485.998 83.3381 484.203 83.9691L483.96 83.7262L491.289 76.3974L491.532 76.6403C491.046 78.4843 491.532 80.5224 492.89 81.8821L519.825 108.817C521.232 110.224 523.076 110.71 524.969 110.079L525.261 110.371L517.932 117.7L517.64 117.408C518.271 115.709 517.883 113.671 516.572 112.36L505.022 100.81L505.024 100.808Z" fill="black"/>
<path d="M572.464 96.4268L590.518 95.9409C592.508 95.892 596.44 95.6491 597.896 94.1931C598.235 93.854 598.429 93.5621 598.284 93.0289L598.576 92.7371L604.933 99.0943L604.641 99.3861C596.293 96.3763 587.606 97.4932 578.87 97.5909C591.004 107.589 568.581 129.623 576.201 137.242C577.755 138.795 580.036 139.329 582.123 138.795L582.268 139.232C579.259 139.912 576.105 138.893 573.969 136.757C563.244 126.032 584.743 104.532 578.143 97.9316L577.853 97.6414L570.961 97.9316L556.789 112.103C555.478 113.414 554.994 115.452 555.625 117.248L555.382 117.49L548.053 110.162L548.296 109.919C550.14 110.405 552.178 109.919 553.538 108.56L580.473 81.6255C581.88 80.2184 582.366 78.3744 581.735 76.4814L582.027 76.1896L589.356 83.5184L589.064 83.8102C587.365 83.1793 585.327 83.5673 584.016 84.8782L572.466 96.4283L572.464 96.4268Z" fill="black"/>
<path d="M568.083 150.841L567.597 132.787C567.548 130.797 567.305 126.865 565.849 125.409C565.51 125.07 565.218 124.876 564.685 125.021L564.393 124.729L570.75 118.372L571.042 118.664C568.032 127.012 569.149 135.699 569.247 144.435C579.245 132.301 601.279 154.724 608.898 147.104C610.451 145.55 610.985 143.269 610.451 141.182L610.888 141.037C611.568 144.046 610.549 147.2 608.413 149.336C597.688 160.061 576.188 138.562 569.588 145.162L569.297 145.452L569.588 152.344L583.759 166.516C585.07 167.827 587.108 168.311 588.903 167.68L589.146 167.923L581.818 175.252L581.575 175.009C582.06 173.165 581.575 171.127 580.216 169.767L553.281 142.832C551.874 141.425 550.03 140.939 548.137 141.57L547.846 141.278L555.174 133.949L555.466 134.241C554.835 135.94 555.223 137.978 556.534 139.289L568.084 150.839L568.083 150.841Z" fill="black"/>
<path d="M622.496 155.222L604.442 155.708C602.453 155.757 598.521 156 597.065 157.456C596.725 157.795 596.531 158.087 596.677 158.62L596.385 158.912L590.028 152.555L590.319 152.263C598.667 155.273 607.354 154.156 616.09 154.058C603.957 144.06 626.38 122.026 618.759 114.407C617.206 112.854 614.925 112.32 612.838 112.854L612.692 112.417C615.702 111.737 618.856 112.756 620.991 114.892C631.716 125.617 610.217 147.117 616.817 153.717L617.108 154.008L624 153.717L638.171 139.546C639.482 138.235 639.967 136.197 639.336 134.402L639.579 134.159L646.907 141.487L646.664 141.73C644.82 141.245 642.782 141.73 641.423 143.089L614.488 170.024C613.08 171.431 612.595 173.275 613.226 175.168L612.934 175.459L605.605 168.131L605.897 167.839C607.596 168.47 609.634 168.082 610.945 166.771L622.495 155.221L622.496 155.222Z" fill="black"/>
<path d="M626.878 100.808L627.364 118.862C627.413 120.851 627.656 124.784 629.112 126.24C629.451 126.579 629.743 126.773 630.276 126.628L630.568 126.92L624.211 133.277L623.919 132.985C626.929 124.637 625.812 115.95 625.714 107.214C615.716 119.348 593.682 96.9246 586.063 104.545C584.51 106.099 583.976 108.38 584.51 110.467L584.073 110.612C583.393 107.602 584.412 104.449 586.548 102.313C597.273 91.588 618.773 113.087 625.373 106.487L625.664 106.197L625.373 99.3049L611.202 85.1331C609.891 83.8223 607.853 83.3379 606.058 83.9689L605.815 83.726L613.143 76.3972L613.386 76.6401C612.901 78.4841 613.386 80.5222 614.745 81.882L641.68 108.817C643.087 110.224 644.931 110.71 646.824 110.079L647.115 110.371L639.787 117.7L639.495 117.408C640.126 115.709 639.738 113.671 638.427 112.36L626.877 100.81L626.878 100.808Z" fill="black"/>
<path d="M694.319 96.4269L712.373 95.9411C714.362 95.8922 718.294 95.6492 719.75 94.1933C720.089 93.8541 720.283 93.5623 720.138 93.0291L720.43 92.7373L726.787 99.0944L726.495 99.3862C718.148 96.3765 709.461 97.4933 700.725 97.5911C712.858 107.589 690.435 129.623 698.056 137.242C699.609 138.796 701.89 139.329 703.977 138.796L704.122 139.233C701.113 139.912 697.959 138.893 695.823 136.758C685.098 126.032 706.597 104.532 699.997 97.9318L699.707 97.6415L692.815 97.9318L678.643 112.104C677.333 113.414 676.848 115.452 677.479 117.248L677.236 117.491L669.908 110.162L670.15 109.919C671.994 110.405 674.033 109.919 675.392 108.561L702.327 81.6256C703.734 80.2185 704.22 78.3745 703.589 76.4816L703.881 76.1898L711.21 83.5186L710.918 83.8104C709.219 83.1794 707.181 83.5675 705.87 84.8783L694.32 96.4284L694.319 96.4269Z" fill="black"/>
<path d="M689.937 150.841L689.451 132.787C689.402 130.798 689.16 126.865 687.704 125.409C687.364 125.07 687.073 124.876 686.539 125.021L686.248 124.729L692.605 118.372L692.897 118.664C689.887 127.012 691.004 135.699 691.101 144.435C701.099 132.301 723.133 154.724 730.752 147.104C732.306 145.55 732.839 143.269 732.306 141.182L732.743 141.037C733.423 144.047 732.404 147.2 730.268 149.336C719.543 160.061 698.042 138.562 691.442 145.162L691.152 145.452L691.442 152.344L705.614 166.516C706.925 167.827 708.963 168.311 710.758 167.68L711.001 167.923L703.672 175.252L703.429 175.009C703.915 173.165 703.429 171.127 702.071 169.767L675.136 142.832C673.729 141.425 671.885 140.939 669.992 141.57L669.7 141.278L677.029 133.949L677.321 134.241C676.69 135.94 677.078 137.978 678.389 139.289L689.939 150.839L689.937 150.841Z" fill="black"/>
<path d="M744.351 155.222L726.297 155.708C724.308 155.757 720.375 156 718.919 157.456C718.58 157.795 718.386 158.087 718.531 158.62L718.239 158.912L711.882 152.555L712.174 152.263C720.522 155.273 729.209 154.156 737.945 154.058C725.811 144.06 748.234 122.027 740.614 114.407C739.06 112.854 736.779 112.32 734.692 112.854L734.547 112.417C737.557 111.737 740.71 112.756 742.846 114.892C753.571 125.617 732.072 147.117 738.672 153.718L738.962 154.008L745.854 153.718L760.026 139.546C761.337 138.235 761.821 136.197 761.19 134.402L761.433 134.159L768.762 141.488L768.519 141.73C766.675 141.245 764.637 141.73 763.277 143.089L736.342 170.024C734.935 171.431 734.449 173.275 735.08 175.168L734.788 175.46L727.46 168.131L727.751 167.839C729.45 168.47 731.488 168.082 732.799 166.771L744.349 155.221L744.351 155.222Z" fill="black"/>
<path d="M748.733 100.808L749.219 118.862C749.268 120.852 749.511 124.784 750.967 126.24C751.306 126.579 751.597 126.773 752.131 126.628L752.422 126.92L746.065 133.277L745.774 132.985C748.783 124.637 747.666 115.95 747.569 107.214C737.571 119.348 715.537 96.9248 707.918 104.545C706.364 106.099 705.831 108.38 706.364 110.467L705.927 110.612C705.247 107.603 706.266 104.449 708.402 102.313C719.127 91.5882 740.628 113.087 747.228 106.487L747.518 106.197L747.228 99.3051L733.056 85.1333C731.745 83.8224 729.707 83.3381 727.912 83.9691L727.669 83.7262L734.998 76.3974L735.241 76.6403C734.755 78.4843 735.241 80.5224 736.599 81.8821L763.534 108.817C764.941 110.224 766.785 110.71 768.678 110.079L768.97 110.371L761.641 117.7L761.349 117.408C761.98 115.709 761.592 113.671 760.281 112.36L748.731 100.81L748.733 100.808Z" fill="black"/>
<path d="M816.173 96.4268L834.227 95.941C836.217 95.8921 840.149 95.6492 841.605 94.1932C841.944 93.854 842.138 93.5622 841.993 93.029L842.285 92.7372L848.642 99.0943L848.35 99.3861C840.002 96.3764 831.315 97.4932 822.58 97.591C834.713 107.589 812.29 129.623 819.91 137.242C821.464 138.796 823.745 139.329 825.832 138.796L825.977 139.232C822.968 139.912 819.814 138.893 817.678 136.757C806.953 126.032 828.452 104.532 821.852 97.9317L821.562 97.6414L814.67 97.9317L800.498 112.103C799.187 113.414 798.703 115.452 799.334 117.248L799.091 117.49L791.762 110.162L792.005 109.919C793.849 110.405 795.887 109.919 797.247 108.561L824.182 81.6255C825.589 80.2185 826.075 78.3744 825.444 76.4815L825.736 76.1897L833.065 83.5185L832.773 83.8103C831.074 83.1793 829.036 83.5674 827.725 84.8782L816.175 96.4283L816.173 96.4268Z" fill="black"/>
<path d="M811.791 150.841L811.305 132.787C811.257 130.797 811.014 126.865 809.558 125.409C809.218 125.07 808.927 124.876 808.393 125.021L808.102 124.729L814.459 118.372L814.751 118.664C811.741 127.012 812.858 135.699 812.955 144.435C822.953 132.301 844.987 154.724 852.606 147.104C854.16 145.55 854.693 143.269 854.16 141.182L854.597 141.037C855.277 144.046 854.258 147.2 852.122 149.336C841.397 160.061 819.896 138.562 813.296 145.162L813.006 145.452L813.296 152.344L827.468 166.516C828.779 167.827 830.817 168.311 832.612 167.68L832.855 167.923L825.526 175.252L825.283 175.009C825.769 173.165 825.283 171.127 823.925 169.767L796.99 142.832C795.583 141.425 793.739 140.939 791.846 141.57L791.554 141.278L798.883 133.949L799.175 134.241C798.544 135.94 798.932 137.978 800.243 139.289L811.793 150.839L811.791 150.841Z" fill="black"/>
<path d="M866.205 155.222L848.151 155.708C846.162 155.757 842.23 156 840.774 157.456C840.434 157.795 840.24 158.087 840.386 158.62L840.094 158.912L833.737 152.555L834.028 152.263C842.376 155.273 851.063 154.156 859.799 154.058C847.666 144.06 870.089 122.026 862.468 114.407C860.915 112.853 858.634 112.32 856.547 112.853L856.401 112.417C859.411 111.737 862.565 112.756 864.7 114.892C875.425 125.617 853.926 147.117 860.526 153.717L860.817 154.008L867.709 153.717L881.88 139.546C883.191 138.235 883.676 136.197 883.045 134.401L883.288 134.159L890.616 141.487L890.373 141.73C888.529 141.244 886.491 141.73 885.132 143.089L858.197 170.023C856.789 171.431 856.304 173.275 856.935 175.168L856.643 175.459L849.314 168.131L849.606 167.839C851.305 168.47 853.343 168.082 854.654 166.771L866.204 155.221L866.205 155.222Z" fill="black"/>
<path d="M870.587 100.808L871.073 118.862C871.122 120.851 871.365 124.784 872.821 126.24C873.16 126.579 873.452 126.773 873.985 126.628L874.277 126.92L867.919 133.277L867.628 132.985C870.637 124.637 869.521 115.95 869.423 107.214C859.425 119.348 837.391 96.9246 829.772 104.545C828.218 106.099 827.685 108.38 828.218 110.467L827.781 110.612C827.101 107.602 828.12 104.449 830.256 102.313C840.981 91.588 862.482 113.087 869.082 106.487L869.372 106.197L869.082 99.3049L854.91 85.1331C853.599 83.8223 851.561 83.3379 849.766 83.9689L849.523 83.726L856.852 76.3972L857.095 76.6401C856.609 78.4841 857.095 80.5222 858.453 81.882L885.388 108.817C886.795 110.224 888.639 110.71 890.532 110.079L890.824 110.371L883.495 117.7L883.203 117.408C883.834 115.709 883.446 113.671 882.136 112.36L870.585 100.81L870.587 100.808Z" fill="black"/>
<path d="M85.0471 245.395L103.101 244.91C105.09 244.861 109.023 244.618 110.479 243.162C110.818 242.823 111.012 242.531 110.867 241.998L111.159 241.706L117.516 248.063L117.224 248.355C108.876 245.345 100.189 246.462 91.4531 246.56C103.587 256.557 81.1635 278.591 88.7841 286.21C90.3379 287.764 92.6189 288.297 94.7058 287.764L94.851 288.201C91.8412 288.881 88.6878 287.862 86.552 285.726C75.8269 275.001 97.326 253.5 90.7259 246.9L90.4356 246.61L83.5438 246.9L69.372 261.072C68.0611 262.383 67.5768 264.421 68.2078 266.216L67.9649 266.459L60.636 259.13L60.879 258.887C62.723 259.373 64.7611 258.887 66.1208 257.529L93.0558 230.594C94.4629 229.187 94.9487 227.343 94.3178 225.45L94.6096 225.158L101.938 232.487L101.647 232.779C99.9477 232.148 97.9096 232.536 96.5988 233.847L85.0486 245.397L85.0471 245.395Z" fill="black"/>
<path d="M80.6653 299.809L80.1795 281.755C80.1306 279.766 79.8877 275.834 78.4317 274.378C78.0925 274.038 77.8007 273.844 77.2675 273.99L76.9757 273.698L83.3328 267.341L83.6246 267.632C80.6149 275.98 81.7317 284.667 81.8295 293.403C91.8274 281.269 113.861 303.693 121.48 296.072C123.034 294.518 123.567 292.237 123.034 290.151L123.471 290.005C124.151 293.015 123.132 296.168 120.996 298.304C110.271 309.029 88.7702 287.53 82.1702 294.13L81.8799 294.421L82.1702 301.313L96.342 315.484C97.6528 316.795 99.6909 317.28 101.486 316.649L101.729 316.891L94.4002 324.22L94.1572 323.977C94.6431 322.133 94.1572 320.095 92.799 318.736L65.864 291.801C64.457 290.393 62.6129 289.908 60.72 290.539L60.4282 290.247L67.757 282.918L68.0488 283.21C67.4178 284.909 67.8059 286.947 69.1167 288.258L80.6668 299.808L80.6653 299.809Z" fill="black"/>
<path d="M135.079 304.191L117.025 304.677C115.036 304.726 111.103 304.969 109.647 306.425C109.308 306.764 109.114 307.056 109.259 307.589L108.967 307.881L102.61 301.523L102.902 301.232C111.25 304.241 119.937 303.125 128.673 303.027C116.539 293.029 138.963 270.995 131.342 263.376C129.788 261.822 127.507 261.289 125.42 261.822L125.275 261.385C128.285 260.705 131.438 261.724 133.574 263.86C144.299 274.585 122.8 296.086 129.4 302.686L129.69 302.976L136.582 302.686L150.754 288.514C152.065 287.203 152.549 285.165 151.918 283.37L152.161 283.127L159.49 290.456L159.247 290.699C157.403 290.213 155.365 290.699 154.005 292.057L127.07 318.992C125.663 320.399 125.177 322.243 125.808 324.136L125.516 324.428L118.188 317.099L118.479 316.807C120.178 317.438 122.216 317.05 123.527 315.74L135.077 304.189L135.079 304.191Z" fill="black"/>
<path d="M139.461 249.777L139.947 267.831C139.996 269.82 140.239 273.753 141.695 275.209C142.034 275.548 142.326 275.742 142.859 275.597L143.151 275.888L136.793 282.246L136.502 281.954C139.511 273.606 138.395 264.919 138.297 256.183C128.299 268.317 106.265 245.893 98.646 253.514C97.0922 255.068 96.559 257.349 97.0922 259.436L96.6553 259.581C95.9754 256.571 96.9944 253.418 99.1303 251.282C109.855 240.557 131.356 262.056 137.956 255.456L138.246 255.166L137.956 248.274L123.784 234.102C122.473 232.791 120.435 232.307 118.64 232.938L118.397 232.695L125.726 225.366L125.969 225.609C125.483 227.453 125.969 229.491 127.327 230.851L154.262 257.786C155.669 259.193 157.513 259.679 159.406 259.048L159.698 259.339L152.369 266.668L152.077 266.376C152.708 264.678 152.32 262.639 151.01 261.329L139.459 249.779L139.461 249.777Z" fill="black"/>
<path d="M206.902 245.396L224.956 244.91C226.945 244.861 230.877 244.618 232.333 243.162C232.672 242.823 232.866 242.531 232.721 241.998L233.013 241.706L239.37 248.063L239.079 248.355C230.731 245.345 222.044 246.462 213.308 246.56C225.441 256.558 203.018 278.592 210.639 286.211C212.192 287.764 214.473 288.298 216.56 287.764L216.706 288.201C213.696 288.881 210.542 287.862 208.407 285.726C197.681 275.001 219.181 253.501 212.58 246.901L212.29 246.61L205.398 246.901L191.227 261.072C189.916 262.383 189.431 264.421 190.062 266.216L189.819 266.459L182.491 259.13L182.734 258.888C184.578 259.373 186.616 258.888 187.975 257.529L214.91 230.594C216.317 229.187 216.803 227.343 216.172 225.45L216.464 225.158L223.793 232.487L223.501 232.779C221.802 232.148 219.764 232.536 218.453 233.847L206.903 245.397L206.902 245.396Z" fill="black"/>
<path d="M202.519 299.809L202.034 281.755C201.985 279.766 201.742 275.834 200.286 274.378C199.947 274.038 199.655 273.844 199.122 273.99L198.83 273.698L205.187 267.341L205.479 267.632C202.469 275.98 203.586 284.667 203.684 293.403C213.681 281.269 235.715 303.693 243.334 296.072C244.888 294.518 245.421 292.237 244.888 290.15L245.325 290.005C246.005 293.015 244.986 296.168 242.85 298.304C232.125 309.029 210.624 287.53 204.024 294.13L203.734 294.421L204.024 301.313L218.196 315.484C219.507 316.795 221.545 317.279 223.34 316.649L223.583 316.891L216.254 324.22L216.011 323.977C216.497 322.133 216.011 320.095 214.653 318.735L187.718 291.801C186.311 290.393 184.467 289.908 182.574 290.539L182.282 290.247L189.611 282.918L189.903 283.21C189.272 284.909 189.66 286.947 190.971 288.258L202.521 299.808L202.519 299.809Z" fill="black"/>
<path d="M256.933 304.191L238.88 304.677C236.89 304.726 232.958 304.969 231.502 306.425C231.163 306.764 230.969 307.056 231.114 307.589L230.822 307.881L224.465 301.523L224.757 301.232C233.104 304.241 241.791 303.125 250.527 303.027C238.394 293.029 260.817 270.995 253.196 263.376C251.643 261.822 249.362 261.289 247.275 261.822L247.13 261.385C250.139 260.705 253.293 261.724 255.429 263.86C266.154 274.585 244.655 296.086 251.255 302.686L251.545 302.976L258.437 302.686L272.609 288.514C273.919 287.203 274.404 285.165 273.773 283.37L274.016 283.127L281.344 290.456L281.102 290.699C279.258 290.213 277.219 290.699 275.86 292.057L248.925 318.992C247.518 320.399 247.032 322.243 247.663 324.136L247.371 324.428L240.042 317.099L240.334 316.807C242.033 317.438 244.071 317.05 245.382 315.74L256.932 304.189L256.933 304.191Z" fill="black"/>
<path d="M261.315 249.777L261.801 267.831C261.85 269.82 262.093 273.753 263.549 275.209C263.888 275.548 264.18 275.742 264.713 275.597L265.005 275.888L258.648 282.246L258.356 281.954C261.366 273.606 260.249 264.919 260.151 256.183C250.153 268.317 228.119 245.893 220.5 253.514C218.946 255.068 218.413 257.349 218.946 259.436L218.509 259.581C217.83 256.571 218.849 253.418 220.984 251.282C231.71 240.557 253.21 262.056 259.81 255.456L260.101 255.165L259.81 248.274L245.638 234.102C244.328 232.791 242.29 232.307 240.494 232.938L240.251 232.695L247.58 225.366L247.823 225.609C247.337 227.453 247.823 229.491 249.181 230.851L276.116 257.786C277.523 259.193 279.368 259.679 281.26 259.048L281.552 259.339L274.223 266.668L273.932 266.376C274.563 264.677 274.175 262.639 272.864 261.329L261.314 249.778L261.315 249.777Z" fill="black"/>
<path d="M328.756 245.395L346.809 244.91C348.799 244.861 352.731 244.618 354.187 243.162C354.526 242.823 354.72 242.531 354.575 241.998L354.867 241.706L361.224 248.063L360.932 248.355C352.585 245.345 343.897 246.462 335.162 246.56C347.295 256.558 324.872 278.591 332.493 286.21C334.046 287.764 336.327 288.297 338.414 287.764L338.559 288.201C335.55 288.881 332.396 287.862 330.26 285.726C319.535 275.001 341.034 253.5 334.434 246.9L334.144 246.61L327.252 246.9L313.08 261.072C311.77 262.383 311.285 264.421 311.916 266.216L311.673 266.459L304.344 259.13L304.587 258.887C306.431 259.373 308.47 258.887 309.829 257.529L336.764 230.594C338.171 229.187 338.657 227.343 338.026 225.45L338.318 225.158L345.647 232.487L345.355 232.779C343.656 232.148 341.618 232.536 340.307 233.847L328.757 245.397L328.756 245.395Z" fill="black"/>
<path d="M324.374 299.809L323.888 281.755C323.839 279.766 323.596 275.834 322.14 274.378C321.801 274.038 321.509 273.844 320.976 273.99L320.684 273.698L327.041 267.341L327.333 267.632C324.323 275.98 325.44 284.667 325.538 293.403C335.536 281.27 357.57 303.693 365.189 296.072C366.742 294.519 367.276 292.238 366.742 290.151L367.179 290.005C367.859 293.015 366.84 296.169 364.704 298.304C353.979 309.03 332.479 287.53 325.879 294.13L325.588 294.421L325.879 301.313L340.05 315.484C341.361 316.795 343.399 317.28 345.194 316.649L345.437 316.892L338.109 324.22L337.866 323.977C338.352 322.133 337.866 320.095 336.507 318.736L309.572 291.801C308.165 290.394 306.321 289.908 304.428 290.539L304.137 290.247L311.465 282.918L311.757 283.21C311.126 284.909 311.514 286.947 312.825 288.258L324.375 299.808L324.374 299.809Z" fill="black"/>
<path d="M378.787 304.191L360.733 304.677C358.744 304.726 354.812 304.969 353.356 306.425C353.017 306.764 352.823 307.056 352.968 307.589L352.676 307.881L346.319 301.523L346.611 301.232C354.958 304.241 363.645 303.125 372.381 303.027C360.248 293.029 382.671 270.995 375.05 263.376C373.497 261.822 371.216 261.289 369.129 261.822L368.983 261.385C371.993 260.705 375.147 261.725 377.282 263.86C388.008 274.585 366.508 296.086 373.109 302.686L373.399 302.976L380.291 302.686L394.462 288.514C395.773 287.204 396.258 285.165 395.627 283.37L395.87 283.127L403.198 290.456L402.955 290.699C401.111 290.213 399.073 290.699 397.714 292.057L370.779 318.992C369.372 320.399 368.886 322.243 369.517 324.136L369.225 324.428L361.896 317.099L362.188 316.808C363.887 317.439 365.925 317.05 367.236 315.74L378.786 304.19L378.787 304.191Z" fill="black"/>
<path d="M383.169 249.777L383.655 267.831C383.704 269.82 383.947 273.753 385.403 275.209C385.742 275.548 386.034 275.742 386.567 275.597L386.859 275.888L380.502 282.246L380.21 281.954C383.22 273.606 382.103 264.919 382.005 256.183C372.007 268.317 349.974 245.893 342.354 253.514C340.801 255.068 340.267 257.349 340.801 259.436L340.364 259.581C339.684 256.571 340.703 253.418 342.839 251.282C353.564 240.557 375.064 262.056 381.665 255.456L381.955 255.166L381.665 248.274L367.493 234.102C366.182 232.791 364.144 232.307 362.349 232.938L362.106 232.695L369.435 225.366L369.677 225.609C369.192 227.453 369.677 229.491 371.036 230.851L397.971 257.786C399.378 259.193 401.222 259.679 403.115 259.048L403.407 259.339L396.078 266.668L395.786 266.376C396.417 264.678 396.029 262.639 394.718 261.329L383.168 249.779L383.169 249.777Z" fill="black"/>
<path d="M450.609 245.396L468.663 244.91C470.653 244.861 474.585 244.618 476.041 243.162C476.38 242.823 476.574 242.531 476.429 241.998L476.721 241.706L483.078 248.063L482.786 248.355C474.438 245.345 465.751 246.462 457.015 246.56C469.149 256.558 446.726 278.592 454.346 286.211C455.9 287.764 458.181 288.298 460.268 287.764L460.413 288.201C457.404 288.881 454.25 287.862 452.114 285.726C441.389 275.001 462.888 253.501 456.288 246.901L455.998 246.61L449.106 246.901L434.934 261.072C433.623 262.383 433.139 264.421 433.77 266.216L433.527 266.459L426.198 259.131L426.441 258.888C428.285 259.373 430.323 258.888 431.683 257.529L458.618 230.594C460.025 229.187 460.511 227.343 459.88 225.45L460.172 225.159L467.501 232.487L467.209 232.779C465.51 232.148 463.472 232.536 462.161 233.847L450.611 245.397L450.609 245.396Z" fill="black"/>
<path d="M446.228 299.809L445.742 281.755C445.693 279.766 445.45 275.834 443.994 274.378C443.655 274.039 443.363 273.845 442.83 273.99L442.538 273.698L448.896 267.341L449.187 267.633C446.178 275.98 447.294 284.667 447.392 293.403C457.39 281.27 479.424 303.693 487.043 296.072C488.597 294.519 489.13 292.238 488.597 290.151L489.034 290.006C489.714 293.015 488.695 296.169 486.559 298.305C475.834 309.03 454.333 287.531 447.733 294.131L447.443 294.421L447.733 301.313L461.905 315.485C463.216 316.795 465.254 317.28 467.049 316.649L467.292 316.892L459.963 324.22L459.72 323.978C460.206 322.134 459.72 320.095 458.362 318.736L431.427 291.801C430.02 290.394 428.176 289.908 426.283 290.539L425.991 290.247L433.32 282.918L433.612 283.21C432.981 284.909 433.369 286.947 434.679 288.258L446.23 299.808L446.228 299.809Z" fill="black"/>
<path d="M500.642 304.191L482.588 304.677C480.599 304.726 476.666 304.969 475.21 306.425C474.871 306.764 474.677 307.056 474.822 307.589L474.53 307.881L468.173 301.524L468.465 301.232C476.813 304.242 485.5 303.125 494.236 303.027C482.102 293.029 504.525 270.995 496.905 263.376C495.351 261.822 493.07 261.289 490.983 261.822L490.838 261.385C493.848 260.706 497.001 261.725 499.137 263.86C509.862 274.586 488.363 296.086 494.963 302.686L495.253 302.977L502.145 302.686L516.317 288.514C517.628 287.204 518.112 285.166 517.481 283.37L517.724 283.127L525.053 290.456L524.81 290.699C522.966 290.213 520.928 290.699 519.568 292.057L492.633 318.992C491.226 320.4 490.74 322.244 491.371 324.136L491.079 324.428L483.75 317.099L484.042 316.808C485.741 317.439 487.779 317.051 489.09 315.74L500.64 304.19L500.642 304.191Z" fill="black"/>
<path d="M505.024 249.777L505.51 267.831C505.558 269.82 505.801 273.753 507.257 275.209C507.597 275.548 507.888 275.742 508.422 275.597L508.713 275.889L502.356 282.246L502.064 281.954C505.074 273.606 503.957 264.919 503.86 256.183C493.862 268.317 471.828 245.893 464.209 253.514C462.655 255.068 462.122 257.349 462.655 259.436L462.218 259.581C461.538 256.571 462.557 253.418 464.693 251.282C475.418 240.557 496.919 262.056 503.519 255.456L503.809 255.166L503.519 248.274L489.347 234.102C488.036 232.791 485.998 232.307 484.203 232.938L483.96 232.695L491.289 225.366L491.532 225.609C491.046 227.453 491.532 229.491 492.89 230.851L519.825 257.786C521.232 259.193 523.076 259.679 524.969 259.048L525.261 259.34L517.932 266.668L517.64 266.377C518.271 264.678 517.883 262.64 516.572 261.329L505.022 249.779L505.024 249.777Z" fill="black"/>
<path d="M572.464 245.395L590.518 244.91C592.508 244.861 596.44 244.618 597.896 243.162C598.235 242.823 598.429 242.531 598.284 241.998L598.576 241.706L604.933 248.063L604.641 248.355C596.293 245.345 587.606 246.462 578.87 246.56C591.004 256.557 568.581 278.591 576.201 286.21C577.755 287.764 580.036 288.297 582.123 287.764L582.268 288.201C579.259 288.881 576.105 287.862 573.969 285.726C563.244 275.001 584.743 253.5 578.143 246.9L577.853 246.61L570.961 246.9L556.789 261.072C555.478 262.383 554.994 264.421 555.625 266.216L555.382 266.459L548.053 259.13L548.296 258.887C550.14 259.373 552.178 258.887 553.538 257.529L580.473 230.594C581.88 229.187 582.366 227.343 581.735 225.45L582.027 225.158L589.356 232.487L589.064 232.779C587.365 232.148 585.327 232.536 584.016 233.847L572.466 245.397L572.464 245.395Z" fill="black"/>
<path d="M568.083 299.809L567.597 281.755C567.548 279.766 567.305 275.834 565.849 274.378C565.51 274.038 565.218 273.844 564.685 273.99L564.393 273.698L570.75 267.341L571.042 267.632C568.032 275.98 569.149 284.667 569.247 293.403C579.245 281.269 601.279 303.693 608.898 296.072C610.451 294.518 610.985 292.237 610.451 290.151L610.888 290.005C611.568 293.015 610.549 296.168 608.413 298.304C597.688 309.029 576.188 287.53 569.588 294.13L569.297 294.421L569.588 301.313L583.759 315.484C585.07 316.795 587.108 317.28 588.903 316.649L589.146 316.891L581.818 324.22L581.575 323.977C582.06 322.133 581.575 320.095 580.216 318.736L553.281 291.801C551.874 290.393 550.03 289.908 548.137 290.539L547.846 290.247L555.174 282.918L555.466 283.21C554.835 284.909 555.223 286.947 556.534 288.258L568.084 299.808L568.083 299.809Z" fill="black"/>
<path d="M622.496 304.191L604.442 304.677C602.453 304.726 598.521 304.969 597.065 306.425C596.725 306.764 596.531 307.056 596.677 307.589L596.385 307.881L590.028 301.523L590.319 301.232C598.667 304.241 607.354 303.125 616.09 303.027C603.957 293.029 626.38 270.995 618.759 263.376C617.206 261.822 614.925 261.289 612.838 261.822L612.692 261.385C615.702 260.705 618.856 261.724 620.991 263.86C631.716 274.585 610.217 296.086 616.817 302.686L617.108 302.976L624 302.686L638.171 288.514C639.482 287.203 639.967 285.165 639.336 283.37L639.579 283.127L646.907 290.456L646.664 290.699C644.82 290.213 642.782 290.699 641.423 292.057L614.488 318.992C613.08 320.399 612.595 322.243 613.226 324.136L612.934 324.428L605.605 317.099L605.897 316.807C607.596 317.438 609.634 317.05 610.945 315.74L622.495 304.189L622.496 304.191Z" fill="black"/>
<path d="M626.878 249.777L627.364 267.831C627.413 269.82 627.656 273.753 629.112 275.209C629.451 275.548 629.743 275.742 630.276 275.597L630.568 275.888L624.211 282.246L623.919 281.954C626.929 273.606 625.812 264.919 625.714 256.183C615.716 268.317 593.682 245.893 586.063 253.514C584.51 255.068 583.976 257.349 584.51 259.436L584.073 259.581C583.393 256.571 584.412 253.418 586.548 251.282C597.273 240.557 618.773 262.056 625.373 255.456L625.664 255.166L625.373 248.274L611.202 234.102C609.891 232.791 607.853 232.307 606.058 232.938L605.815 232.695L613.143 225.366L613.386 225.609C612.901 227.453 613.386 229.491 614.745 230.851L641.68 257.786C643.087 259.193 644.931 259.679 646.824 259.048L647.115 259.339L639.787 266.668L639.495 266.376C640.126 264.678 639.738 262.639 638.427 261.329L626.877 249.779L626.878 249.777Z" fill="black"/>
<path d="M694.319 245.396L712.373 244.91C714.362 244.861 718.294 244.618 719.75 243.162C720.089 242.823 720.283 242.531 720.138 241.998L720.43 241.706L726.787 248.063L726.495 248.355C718.148 245.345 709.461 246.462 700.725 246.56C712.858 256.558 690.435 278.591 698.056 286.211C699.609 287.764 701.89 288.298 703.977 287.764L704.122 288.201C701.113 288.881 697.959 287.862 695.823 285.726C685.098 275.001 706.597 253.501 699.997 246.9L699.707 246.61L692.815 246.9L678.643 261.072C677.333 262.383 676.848 264.421 677.479 266.216L677.236 266.459L669.908 259.13L670.15 258.888C671.994 259.373 674.033 258.888 675.392 257.529L702.327 230.594C703.734 229.187 704.22 227.343 703.589 225.45L703.881 225.158L711.21 232.487L710.918 232.779C709.219 232.148 707.181 232.536 705.87 233.847L694.32 245.397L694.319 245.396Z" fill="black"/>
<path d="M689.937 299.809L689.451 281.755C689.402 279.766 689.16 275.834 687.704 274.378C687.364 274.039 687.073 273.845 686.539 273.99L686.248 273.698L692.605 267.341L692.897 267.633C689.887 275.98 691.004 284.667 691.101 293.403C701.099 281.27 723.133 303.693 730.752 296.072C732.306 294.519 732.839 292.238 732.306 290.151L732.743 290.006C733.423 293.015 732.404 296.169 730.268 298.305C719.543 309.03 698.042 287.531 691.442 294.131L691.152 294.421L691.442 301.313L705.614 315.485C706.925 316.795 708.963 317.28 710.758 316.649L711.001 316.892L703.672 324.22L703.429 323.978C703.915 322.134 703.429 320.095 702.071 318.736L675.136 291.801C673.729 290.394 671.885 289.908 669.992 290.539L669.7 290.247L677.029 282.918L677.321 283.21C676.69 284.909 677.078 286.947 678.389 288.258L689.939 299.808L689.937 299.809Z" fill="black"/>
<path d="M744.351 304.191L726.297 304.677C724.308 304.726 720.375 304.969 718.919 306.425C718.58 306.764 718.386 307.056 718.531 307.589L718.239 307.881L711.882 301.524L712.174 301.232C720.522 304.242 729.209 303.125 737.945 303.027C725.811 293.029 748.234 270.995 740.614 263.376C739.06 261.822 736.779 261.289 734.692 261.822L734.547 261.385C737.557 260.706 740.71 261.725 742.846 263.86C753.571 274.586 732.072 296.086 738.672 302.686L738.962 302.977L745.854 302.686L760.026 288.514C761.337 287.204 761.821 285.166 761.19 283.37L761.433 283.127L768.762 290.456L768.519 290.699C766.675 290.213 764.637 290.699 763.277 292.057L736.342 318.992C734.935 320.4 734.449 322.244 735.08 324.136L734.788 324.428L727.46 317.099L727.751 316.808C729.45 317.439 731.488 317.051 732.799 315.74L744.349 304.19L744.351 304.191Z" fill="black"/>
<path d="M748.733 249.777L749.219 267.831C749.268 269.82 749.511 273.753 750.967 275.209C751.306 275.548 751.597 275.742 752.131 275.597L752.422 275.889L746.065 282.246L745.774 281.954C748.783 273.606 747.666 264.919 747.569 256.183C737.571 268.317 715.537 245.893 707.918 253.514C706.364 255.068 705.831 257.349 706.364 259.436L705.927 259.581C705.247 256.571 706.266 253.418 708.402 251.282C719.127 240.557 740.628 262.056 747.228 255.456L747.518 255.166L747.228 248.274L733.056 234.102C731.745 232.791 729.707 232.307 727.912 232.938L727.669 232.695L734.998 225.366L735.241 225.609C734.755 227.453 735.241 229.491 736.599 230.851L763.534 257.786C764.941 259.193 766.785 259.679 768.678 259.048L768.97 259.34L761.641 266.668L761.349 266.377C761.98 264.678 761.592 262.64 760.281 261.329L748.731 249.779L748.733 249.777Z" fill="black"/>
<path d="M816.173 245.395L834.227 244.91C836.216 244.861 840.149 244.618 841.605 243.162C841.944 242.823 842.138 242.531 841.993 241.998L842.285 241.706L848.642 248.063L848.35 248.355C840.002 245.345 831.315 246.462 822.579 246.56C834.713 256.557 812.289 278.591 819.91 286.21C821.464 287.764 823.745 288.297 825.832 287.764L825.977 288.201C822.967 288.881 819.814 287.862 817.678 285.726C806.953 275.001 828.452 253.5 821.852 246.9L821.562 246.61L814.67 246.9L800.498 261.072C799.187 262.383 798.703 264.421 799.334 266.216L799.091 266.459L791.762 259.13L792.005 258.887C793.849 259.373 795.887 258.887 797.247 257.529L824.182 230.594C825.589 229.187 826.075 227.343 825.444 225.45L825.736 225.158L833.064 232.487L832.773 232.779C831.074 232.148 829.036 232.536 827.725 233.847L816.175 245.397L816.173 245.395Z" fill="black"/>
<path d="M811.791 299.809L811.305 281.755C811.257 279.766 811.014 275.834 809.558 274.378C809.218 274.038 808.927 273.844 808.393 273.99L808.102 273.698L814.459 267.341L814.751 267.632C811.741 275.98 812.858 284.667 812.955 293.403C822.953 281.269 844.987 303.693 852.606 296.072C854.16 294.518 854.693 292.237 854.16 290.151L854.597 290.005C855.277 293.015 854.258 296.168 852.122 298.304C841.397 309.029 819.896 287.53 813.296 294.13L813.006 294.421L813.296 301.313L827.468 315.484C828.779 316.795 830.817 317.28 832.612 316.649L832.855 316.891L825.526 324.22L825.283 323.977C825.769 322.133 825.283 320.095 823.925 318.736L796.99 291.801C795.583 290.393 793.739 289.908 791.846 290.539L791.554 290.247L798.883 282.918L799.175 283.21C798.544 284.909 798.932 286.947 800.243 288.258L811.793 299.808L811.791 299.809Z" fill="black"/>
<path d="M866.205 304.191L848.151 304.677C846.162 304.726 842.229 304.969 840.773 306.425C840.434 306.764 840.24 307.056 840.385 307.589L840.093 307.881L833.736 301.523L834.028 301.232C842.376 304.241 851.063 303.125 859.799 303.027C847.665 293.029 870.089 270.995 862.468 263.376C860.914 261.822 858.633 261.289 856.546 261.822L856.401 261.385C859.411 260.705 862.564 261.724 864.7 263.86C875.425 274.585 853.926 296.086 860.526 302.686L860.816 302.976L867.708 302.686L881.88 288.514C883.191 287.203 883.675 285.165 883.044 283.37L883.287 283.127L890.616 290.456L890.373 290.699C888.529 290.213 886.491 290.699 885.131 292.057L858.196 318.992C856.789 320.399 856.303 322.243 856.934 324.136L856.642 324.428L849.314 317.099L849.605 316.807C851.304 317.438 853.342 317.05 854.653 315.74L866.203 304.189L866.205 304.191Z" fill="black"/>
<path d="M870.587 249.777L871.073 267.831C871.122 269.82 871.365 273.753 872.821 275.209C873.16 275.548 873.452 275.742 873.985 275.597L874.277 275.888L867.919 282.246L867.628 281.954C870.637 273.606 869.521 264.919 869.423 256.183C859.425 268.317 837.391 245.893 829.772 253.514C828.218 255.068 827.685 257.349 828.218 259.436L827.781 259.581C827.101 256.571 828.12 253.418 830.256 251.282C840.981 240.557 862.482 262.056 869.082 255.456L869.372 255.165L869.082 248.274L854.91 234.102C853.599 232.791 851.561 232.307 849.766 232.938L849.523 232.695L856.852 225.366L857.095 225.609C856.609 227.453 857.095 229.491 858.453 230.851L885.388 257.786C886.795 259.193 888.639 259.679 890.532 259.048L890.824 259.339L883.495 266.668L883.203 266.376C883.834 264.677 883.446 262.639 882.136 261.329L870.585 249.778L870.587 249.777Z" fill="black"/>
</g>
<rect x="257.912" y="187.925" width="375" height="136.075" fill="url(#paint0_linear_7969_13921)"/>
<defs>
<linearGradient id="paint0_linear_7969_13921" x1="445.412" y1="187.925" x2="445.412" y2="324" gradientUnits="userSpaceOnUse">
<stop stop-color="white" stop-opacity="0"/>
<stop offset="1" stop-color="white"/>
</linearGradient>
</defs>
</svg>
